SplineFontDB: 3.0
FontName: Laksaman-Bold
FullName: Laksaman Bold
FamilyName: Laksaman
Weight: Bold
Copyright: Laksaman, based on TH Sarabun New.\n\nCopyright (c) 2014 Theppitak Karoonboonyanan.\n\nTH Sarabun New:\n\nCopyright (c) 2010-2011 by Software Industry Promotion Agency (Public Organization) (SIPA). All rights reserved.\nCreated by : Suppakit CHALERMLARP.
Version: 004.001
ItalicAngle: 0
UnderlinePosition: -20
UnderlineWidth: 30
Ascent: 800
Descent: 200
InvalidEm: 0
LayerCount: 3
Layer: 0 0 "Back" 1
Layer: 1 0 "Fore" 0
Layer: 2 1 "Quad" 0
XUID: [1021 373 914837695 7351316]
FSType: 0
OS2Version: 4
OS2_WeightWidthSlopeOnly: 0
OS2_UseTypoMetrics: 1
CreationTime: 1308745583
ModificationTime: 1540799706
PfmFamily: 33
TTFWeight: 700
TTFWidth: 5
LineGap: 30
VLineGap: 0
Panose: 2 11 5 0 4 2 0 2 0 3
OS2TypoAscent: 1279
OS2TypoAOffset: 0
OS2TypoDescent: -376
OS2TypoDOffset: 0
OS2TypoLinegap: 60
OS2WinAscent: 1270
OS2WinAOffset: 0
OS2WinDescent: 687
OS2WinDOffset: 0
HheadAscent: 1270
HheadAOffset: 0
HheadDescent: -687
HheadDOffset: 0
OS2SubXSize: 700
OS2SubYSize: 650
OS2SubXOff: 0
OS2SubYOff: 140
OS2SupXSize: 700
OS2SupYSize: 650
OS2SupXOff: 0
OS2SupYOff: 477
OS2StrikeYSize: 30
OS2StrikeYPos: 250
OS2FamilyClass: 2053
OS2Vendor: 'psk '
OS2CodePages: 60010183.80000000
OS2UnicodeRanges: a100006f.5000205a.00000000.00000000
Lookup: 4 0 0 "'frac' Diagonal Fractions in Latin lookup 0" { "'frac' Diagonal Fractions in Latin lookup 0 subtable"  } ['frac' ('latn' <'dflt' > ) ]
Lookup: 4 0 1 "'rlig' Required Ligatures in Latin lookup 18" { "'rlig' Required Ligatures in Latin lookup 18 subtable"  } ['rlig' ('latn' <'dflt' > ) ]
Lookup: 4 0 1 "'rlig' Required Ligatures in Latin lookup 19" { "'rlig' Required Ligatures in Latin lookup 19 subtable"  } ['rlig' ('latn' <'dflt' > ) ]
Lookup: 4 0 1 "'rlig' Required Ligatures in Latin lookup 20" { "'rlig' Required Ligatures in Latin lookup 20 subtable"  } ['rlig' ('latn' <'dflt' > ) ]

StartChar: .notdef
Encoding: 65536 -1 0
Width: 1049
VWidth: 1504
Flags: W
HStem: 0 47<134 916> 1170 47<134 916>
VStem: 80 54<47 1170> 916 54<47 1170>
LayerCount: 3
Fore
SplineSet
970 0 m 1
 80 0 l 1
 80 1217 l 1
 970 1217 l 1
 970 0 l 1
916 47 m 1
 916 1170 l 1
 134 1170 l 1
 134 47 l 1
 916 47 l 1
EndSplineSet
Validated: 1
Layer: 2
SplineSet
970 0 m 1,0,-1
 80 0 l 1,1,-1
 80 1217 l 1,2,-1
 970 1217 l 1,3,-1
 970 0 l 1,0,-1
916 47 m 1,4,-1
 916 1170 l 1,5,-1
 134 1170 l 1,6,-1
 134 47 l 1,7,-1
 916 47 l 1,4,-1
EndSplineSet
EndChar

StartChar: exclam
Encoding: 33 33 2
Width: 252
VWidth: 1504
Flags: W
HStem: -14 145<75 177.5> 696 20G<72 181>
VStem: 54 145<7.5 110> 72 109<462.5 716> 83 84<209 462.5>
LayerCount: 3
Back
SplineSet
167 209 m 1
 83 209 l 1
 72 716 l 1
 181 716 l 1
 167 209 l 1
199 59 m 256
 199 39 191.833 21.8333 177.5 7.5 c 128
 163.167 -6.83333 146 -14 126 -14 c 256
 106 -14 89 -6.83333 75 7.5 c 128
 61 21.8333 54 39 54 59 c 256
 54 79 61 96 75 110 c 128
 89 124 106 131 126 131 c 256
 146 131 163.167 124 177.5 110 c 128
 191.833 96 199 79 199 59 c 256
EndSplineSet
Fore
SplineSet
167 209 m 1xc8
 83 209 l 1xc8
 72 716 l 1
 181 716 l 1xd0
 167 209 l 1xc8
126 131 m 259
 166 131 199 99 199 59 c 259
 199 19 166 -14 126 -14 c 259
 86 -14 54 19 54 59 c 259xe0
 54 99 86 131 126 131 c 259
EndSplineSet
Validated: 1
Layer: 2
SplineSet
167 209 m 1,0,-1
 83 209 l 1,1,-1
 72 716 l 1,2,-1
 181 716 l 1,3,-1
 167 209 l 1,0,-1
126 131 m 259,4,5
 156 131 156 131 177.5 110 c 128,-1,6
 199 89 199 89 199 59 c 128,-1,7
 199 29 199 29 177.5 7.5 c 128,-1,8
 156 -14 156 -14 126 -14 c 128,-1,9
 96 -14 96 -14 75 7.5 c 128,-1,10
 54 29 54 29 54 59 c 128,-1,11
 54 89 54 89 75 110 c 128,-1,12
 96 131 96 131 126 131 c 259,4,5
EndSplineSet
EndChar

StartChar: quotedbl
Encoding: 34 34 3
Width: 437
VWidth: 1504
Flags: W
HStem: 501 290<93 161 275 344>
VStem: 93 68<501 602.5> 275 69<501 607.842>
LayerCount: 3
Fore
SplineSet
344 501 m 1
 275 501 l 1
 256 791 l 1
 363 791 l 1
 344 501 l 1
161 501 m 1
 93 501 l 1
 74 791 l 1
 181 791 l 1
 161 501 l 1
EndSplineSet
Validated: 1
Layer: 2
SplineSet
344 501 m 1,0,-1
 275 501 l 1,1,-1
 256 791 l 1,2,-1
 363 791 l 1,3,-1
 344 501 l 1,0,-1
161 501 m 1,4,-1
 93 501 l 1,5,-1
 74 791 l 1,6,-1
 181 791 l 1,7,-1
 161 501 l 1,4,-1
EndSplineSet
EndChar

StartChar: numbersign
Encoding: 35 35 4
Width: 694
VWidth: 1504
Flags: W
HStem: 0 21G<117 208.43 396 486.71> 214 79<50 143 242 426 520 621> 427 81<69 171 269 451 549 644>
DStem2: 117 0 206 0 0.127795 0.991801<11.3738 215.568 306.572 430.4 523.26 719.903> 396 0 484 0 0.126428 0.991976<11.1257 216.076 306.326 430.527 523.267 719.649>
LayerCount: 3
Fore
SplineSet
484 0 m 1
 396 0 l 1
 426 214 l 1
 232 214 l 1
 206 0 l 1
 117 0 l 1
 143 214 l 1
 50 214 l 1
 50 293 l 1
 153 293 l 1
 171 427 l 1
 69 427 l 1
 69 508 l 1
 181 508 l 1
 209 714 l 1
 295 714 l 1
 269 508 l 1
 460 508 l 1
 486 714 l 1
 575 714 l 1
 549 508 l 1
 644 508 l 1
 644 427 l 1
 537 427 l 1
 520 293 l 1
 621 293 l 1
 621 214 l 1
 513 214 l 1
 484 0 l 1
433 293 m 1
 451 427 l 1
 259 427 l 1
 242 293 l 1
 433 293 l 1
EndSplineSet
Validated: 1
Layer: 2
SplineSet
484 0 m 1,0,-1
 396 0 l 1,1,-1
 426 214 l 1,2,-1
 232 214 l 1,3,-1
 206 0 l 1,4,-1
 117 0 l 1,5,-1
 143 214 l 1,6,-1
 50 214 l 1,7,-1
 50 293 l 1,8,-1
 153 293 l 1,9,-1
 171 427 l 1,10,-1
 69 427 l 1,11,-1
 69 508 l 1,12,-1
 181 508 l 1,13,-1
 209 714 l 1,14,-1
 295 714 l 1,15,-1
 269 508 l 1,16,-1
 460 508 l 1,17,-1
 486 714 l 1,18,-1
 575 714 l 1,19,-1
 549 508 l 1,20,-1
 644 508 l 1,21,-1
 644 427 l 1,22,-1
 537 427 l 1,23,-1
 520 293 l 1,24,-1
 621 293 l 1,25,-1
 621 214 l 1,26,-1
 513 214 l 1,27,-1
 484 0 l 1,0,-1
433 293 m 1,28,-1
 451 427 l 1,29,-1
 259 427 l 1,30,-1
 242 293 l 1,31,-1
 433 293 l 1,28,-1
EndSplineSet
EndChar

StartChar: dollar
Encoding: 36 36 5
Width: 552
VWidth: 1504
Flags: W
HStem: -83 187<232.261 319.591> 612 190<246.141 329.494>
VStem: 83 91<479.211 578.878> 232 88<-83 25.4725> 244 87<689.173 802> 396 91<145.07 259.424>
LayerCount: 3
Back
SplineSet
487 208 m 0
 487 166 472 127.833 442 93.5 c 128
 412 59.1667 371.333 36.6667 320 26 c 1
 320 -83 l 1
 232 -83 l 1
 232 23 l 1
 166 29 110.333 49.3333 65 84 c 1
 105 156 l 1
 149 120.667 201.667 103.333 263 104 c 0
 303 104 335.167 113.167 359.5 131.5 c 128
 383.833 149.833 396 174.333 396 205 c 0
 396 252.333 355.333 292.667 274 326 c 0
 146.667 380 83 443.667 83 517 c 0
 83 560.333 97.1667 597.5 125.5 628.5 c 128
 153.833 659.5 193.333 680 244 690 c 1
 244 802 l 1
 331 802 l 1
 331 692 l 1
 378.333 686 426.333 669.333 475 642 c 1
 430 569 l 1
 396 598.333 349.333 612.667 290 612 c 0
 256.667 612 229 604.333 207 589 c 128
 185 573.664 174 552.331 174 525 c 0
 174 487 218.333 448.333 307 409 c 0
 373 379.667 419.5 350.167 446.5 320.5 c 128
 473.5 290.833 487 253.333 487 208 c 0
EndSplineSet
Fore
SplineSet
290 612 m 3xec
 229 612 174 584 174 525 c 3
 174 487 218 448 307 409 c 0
 406 365 487 314 487 208 c 3
 487 111 407 44 320 26 c 1
 320 -83 l 1
 232 -83 l 1
 232 23 l 1xf4
 166 29 110 49 65 84 c 1
 105 156 l 1
 149 121 202 104 263 104 c 3
 334 104 396 137 396 205 c 3
 396 252 355 292 274 326 c 0
 147 380 83 444 83 517 c 3
 83 615 156 673 244 690 c 1
 244 802 l 1
 331 802 l 1
 331 692 l 1
 378 686 426 669 475 642 c 1
 430 569 l 1
 396 598 349 612 290 612 c 3xec
EndSplineSet
Validated: 1
Layer: 2
SplineSet
290 612 m 3,0,1
 241 612 241 612 207.5 589.5 c 128,-1,2
 174 567 174 567 174 525 c 0,3,4
 174 467 174 467 307 409 c 0,5,6
 394 370 394 370 440.5 325.5 c 128,-1,7
 487 281 487 281 487 208 c 0,8,9
 487 139 487 139 438.5 89.5 c 128,-1,10
 390 40 390 40 320 26 c 1,11,-1
 320 -83 l 1,12,-1
 232 -83 l 1,13,-1
 232 23 l 1,14,15
 132 32 132 32 65 84 c 1,16,-1
 105 156 l 1,17,18
 170 104 170 104 263 104 c 0,19,20
 320 104 320 104 358 130 c 128,-1,21
 396 156 396 156 396 205 c 0,22,23
 396 275 396 275 274 326 c 0,24,25
 83 407 83 407 83 517 c 0,26,27
 83 587 83 587 128.5 631.5 c 128,-1,28
 174 676 174 676 244 690 c 1,29,-1
 244 802 l 1,30,-1
 331 802 l 1,31,-1
 331 692 l 1,32,33
 400 683 400 683 475 642 c 1,34,-1
 430 569 l 1,35,36
 380 612 380 612 290 612 c 3,0,1
EndSplineSet
EndChar

StartChar: percent
Encoding: 37 37 6
Width: 1034
VWidth: 1504
Flags: W
HStem: -12 81<740.034 852.569> 289 81<183.158 292.353> 350 79<740.034 852.569> 650 80<183.158 292.353> 696 20G<680.452 785>
VStem: 59 90<405.804 614.752> 326 89<406.684 610.917> 617 90<106.84 311.504> 886 90<106.84 311.504>
DStem2: 235 -14 326 -14 0.53229 0.846562<48.4384 861.779>
LayerCount: 3
Back
SplineSet
326 -14 m 1
 235 -14 l 1
 693 716 l 1
 785 716 l 1
 326 -14 l 1
415 508 m 0
 415 361.333 355.333 288.333 236 289 c 0
 118 289 59 362 59 508 c 0
 59 655.333 118 729.333 236 730 c 0
 355.333 729.333 415 655.333 415 508 c 0
326 508 m 0
 326 602 296 649.333 236 650 c 0
 178 650 149 602.667 149 508 c 0
 149 416 178 370 236 370 c 0
 296 370 326 416 326 508 c 0
976 209 m 0
 976 61.6667 916 -12 796 -12 c 0
 676.667 -12 617 61.6667 617 209 c 0
 617 355.667 676.667 429 796 429 c 0
 916 429 976 355.667 976 209 c 0
886 209 m 0
 886 303 856 350 796 350 c 0
 736.667 350 707 303 707 209 c 0
 707 115.667 736.667 69 796 69 c 0
 856 69 886 115.667 886 209 c 0
EndSplineSet
Fore
SplineSet
326 -14 m 1x8f80
 235 -14 l 1
 693 716 l 1
 785 716 l 1
 326 -14 l 1x8f80
415 508 m 3
 415 361 355 289 236 289 c 3
 118 289 59 362 59 508 c 3
 59 655 118 730 236 730 c 3xd780
 355 730 415 655 415 508 c 3
326 508 m 3
 326 602 296 650 236 650 c 3
 178 650 149 603 149 508 c 3
 149 416 178 370 236 370 c 3
 296 370 326 416 326 508 c 3
976 209 m 3
 976 62 916 -12 796 -12 c 3
 677 -12 617 62 617 209 c 3
 617 356 677 429 796 429 c 3xa780
 916 429 976 356 976 209 c 3
886 209 m 3
 886 303 856 350 796 350 c 3
 737 350 707 303 707 209 c 3
 707 116 737 69 796 69 c 3
 856 69 886 116 886 209 c 3
EndSplineSet
Validated: 1
Layer: 2
SplineSet
326 -14 m 1,0,-1
 235 -14 l 1,1,-1
 693 716 l 1,2,-1
 785 716 l 1,3,-1
 326 -14 l 1,0,-1
415 508 m 3,4,5
 415 289 415 289 236 289 c 0,6,7
 59 289 59 289 59 508 c 0,8,9
 59 730 59 730 236 730 c 0,10,11
 415 730 415 730 415 508 c 3,4,5
326 508 m 3,12,13
 326 650 326 650 236 650 c 0,14,15
 149 650 149 650 149 508 c 0,16,17
 149 370 149 370 236 370 c 0,18,19
 326 370 326 370 326 508 c 3,12,13
976 209 m 3,20,21
 976 -12 976 -12 796 -12 c 0,22,23
 617 -12 617 -12 617 209 c 0,24,25
 617 429 617 429 796 429 c 0,26,27
 976 429 976 429 976 209 c 3,20,21
886 209 m 3,28,29
 886 350 886 350 796 350 c 0,30,31
 707 350 707 350 707 209 c 0,32,33
 707 69 707 69 796 69 c 0,34,35
 886 69 886 69 886 209 c 3,28,29
EndSplineSet
EndChar

StartChar: ampersand
Encoding: 38 38 7
Width: 731
VWidth: 1504
Flags: W
HStem: -14 82<219.04 408.868> 663 77<270.001 394.575>
VStem: 53 94<135.683 277.374> 140 92<495.81 624.972> 417 87<525.21 640.45> 608 79<304.347 400>
DStem2: 332 384 251 350 0.70065 -0.713506<0 272.244> 587 134 529 72 0.742218 -0.670158<-1.49885 137.274>
LayerCount: 3
Back
SplineSet
632 -21 m 1
 529 72 l 1
 449.667 14.6667 369.667 -14 289 -14 c 0
 221 -14 164.667 7.16667 120 49.5 c 128
 75.3333 91.8333 53 142.667 53 202 c 0
 53 291.333 100.667 362 196 414 c 1
 158.667 462 140 508.667 140 554 c 0
 140 606 158.333 650 195 686 c 128
 231.667 722 278.333 740 335 740 c 0
 384.333 740 424.833 725.167 456.5 695.5 c 128
 488.167 665.833 504 628 504 582 c 0
 504 502.667 446.667 436.667 332 384 c 1
 377.333 334 441 269.333 523 190 c 1
 572.333 254 600.667 324 608 400 c 1
 687 400 l 1
 673 292 639.667 203.333 587 134 c 1
 634.333 90.6667 676.333 53 713 21 c 1
 632 -21 l 1
417 578 m 0
 417 635.333 388.333 663.667 331 663 c 0
 301 663 277 653 259 633 c 128
 241 613 232 588.667 232 560 c 256
 232 530.667 250.333 493.333 287 448 c 1
 373.667 491.333 417 534.667 417 578 c 0
469 128 m 1
 251 350 l 1
 181.667 310.667 147 263.333 147 208 c 0
 147 166.667 161.667 133 191 107 c 128
 220.333 81 257 68 301 68 c 0
 367 68 423 88 469 128 c 1
EndSplineSet
Fore
SplineSet
335 740 m 3xdc
 430 740 504 676 504 582 c 3
 504 503 447 437 332 384 c 1
 377 334 441 269 523 190 c 1
 572 254 601 324 608 400 c 1
 687 400 l 1
 673 292 640 203 587 134 c 1
 634 91 676 53 713 21 c 1
 632 -21 l 1
 529 72 l 1
 450 15 370 -14 289 -14 c 3
 162 -14 53 78 53 202 c 3xec
 53 291 101 362 196 414 c 1
 159 462 140 509 140 554 c 3
 140 661 226 740 335 740 c 3xdc
331 663 m 3
 272 663 232 618 232 560 c 259xdc
 232 531 250 493 287 448 c 1
 374 491 417 535 417 578 c 3
 417 635 388 663 331 663 c 3
147 208 m 3xec
 147 124 216 68 301 68 c 3
 367 68 423 88 469 128 c 1
 251 350 l 1
 182 311 147 263 147 208 c 3xec
EndSplineSet
Validated: 1
Layer: 2
SplineSet
335 740 m 3,0,1
 407 740 407 740 455.5 696 c 128,-1,2
 504 652 504 652 504 582 c 0,3,4
 504 463 504 463 332 384 c 1,5,6
 400 309 400 309 523 190 c 1,7,8
 598 287 598 287 608 400 c 1,9,-1
 687 400 l 1,10,11
 666 237 666 237 587 134 c 1,12,13
 667 60 667 60 713 21 c 1,14,-1
 632 -21 l 1,15,-1
 529 72 l 1,16,17
 410 -14 410 -14 289 -14 c 0,18,19
 192 -14 192 -14 122.5 48 c 128,-1,20
 53 110 53 110 53 202 c 0,21,22
 53 336 53 336 196 414 c 1,23,24
 140 487 140 487 140 554 c 0,25,26
 140 634 140 634 196.5 687 c 128,-1,27
 253 740 253 740 335 740 c 3,0,1
331 663 m 3,28,29
 287 663 287 663 259.5 633.5 c 128,-1,30
 232 604 232 604 232 560 c 0,31,32
 232 515 232 515 287 448 c 1,33,34
 417 512 417 512 417 578 c 0,35,36
 417 663 417 663 331 663 c 3,28,29
147 208 m 3,37,38
 147 146 147 146 191.5 107 c 128,-1,39
 236 68 236 68 301 68 c 0,40,41
 400 68 400 68 469 128 c 1,42,-1
 251 350 l 1,43,44
 147 291 147 291 147 208 c 3,37,38
EndSplineSet
EndChar

StartChar: quotesingle
Encoding: 39 39 8
Width: 254
VWidth: 1504
Flags: W
HStem: 501 290<93 161>
VStem: 93 68<501 602.5>
LayerCount: 3
Fore
SplineSet
161 501 m 1
 93 501 l 1
 74 791 l 1
 181 791 l 1
 161 501 l 1
EndSplineSet
Validated: 1
Layer: 2
SplineSet
161 501 m 1,0,-1
 93 501 l 1,1,-1
 74 791 l 1,2,-1
 181 791 l 1,3,-1
 161 501 l 1,0,-1
EndSplineSet
EndChar

StartChar: parenleft
Encoding: 40 40 9
Width: 367
VWidth: 1504
Flags: W
VStem: 66 93<204.896 504.64>
LayerCount: 3
Fore
SplineSet
244 -83 m 1
 126 40 66 185 66 353 c 3
 66 510 124 658 239 797 c 1
 350 797 l 1
 223 658 159 510 159 353 c 3
 159 204 222 59 349 -83 c 1
 244 -83 l 1
EndSplineSet
Validated: 1
Layer: 2
SplineSet
244 -83 m 1,0,1
 66 103 66 103 66 353 c 0,2,3
 66 588 66 588 239 797 c 1,4,-1
 350 797 l 1,5,6
 159 588 159 588 159 353 c 0,7,8
 159 129 159 129 349 -83 c 1,9,-1
 244 -83 l 1,0,1
EndSplineSet
EndChar

StartChar: parenright
Encoding: 41 41 10
Width: 367
VWidth: 1504
Flags: W
VStem: 206 93<215.213 500.726>
LayerCount: 3
Fore
SplineSet
299 358 m 3
 299 193 240 46 122 -83 c 1
 18 -83 l 1
 143 66 206 213 206 358 c 3
 206 503 143 650 17 797 c 1
 120 797 l 1
 239 670 299 523 299 358 c 3
EndSplineSet
Validated: 1
Layer: 2
SplineSet
299 358 m 3,0,1
 299 110.5 299 110.5 122 -83 c 1,2,-1
 18 -83 l 1,3,4
 206 141 206 141 206 358 c 0,5,6
 206 576 206 576 17 797 c 1,7,-1
 120 797 l 1,8,9
 299 606 299 606 299 358 c 3,0,1
EndSplineSet
EndChar

StartChar: asterisk
Encoding: 42 42 11
Width: 515
VWidth: 1504
Flags: W
HStem: 519 21G<59 208 307 456>
LayerCount: 3
Fore
SplineSet
400 417 m 1
 323 372 l 1
 257 501 l 1
 191 372 l 1
 114 417 l 1
 208 532 l 1
 59 519 l 1
 59 597 l 1
 208 585 l 1
 114 701 l 1
 191 746 l 1
 257 617 l 1
 323 746 l 1
 400 701 l 1
 307 585 l 1
 456 597 l 1
 456 520 l 1
 307 532 l 1
 400 417 l 1
EndSplineSet
Validated: 1
Layer: 2
SplineSet
400 417 m 1,0,-1
 323 372 l 1,1,-1
 257 501 l 1,2,-1
 191 372 l 1,3,-1
 114 417 l 1,4,-1
 208 532 l 1,5,-1
 59 519 l 1,6,-1
 59 597 l 1,7,-1
 208 585 l 1,8,-1
 114 701 l 1,9,-1
 191 746 l 1,10,-1
 257 617 l 1,11,-1
 323 746 l 1,12,-1
 400 701 l 1,13,-1
 307 585 l 1,14,-1
 456 597 l 1,15,-1
 456 520 l 1,16,-1
 307 532 l 1,17,-1
 400 417 l 1,0,-1
EndSplineSet
EndChar

StartChar: plus
Encoding: 43 43 12
Width: 627
VWidth: 1504
Flags: W
HStem: 0 21G<266 361> 236 83<44 266 361 584>
VStem: 266 95<0 236 319 546>
LayerCount: 3
Fore
SplineSet
361 0 m 1
 266 0 l 1
 266 236 l 1
 44 236 l 1
 44 319 l 1
 266 319 l 1
 266 546 l 1
 361 546 l 1
 361 319 l 1
 584 319 l 1
 584 236 l 1
 361 236 l 1
 361 0 l 1
EndSplineSet
Validated: 1
Layer: 2
SplineSet
361 0 m 1,0,-1
 266 0 l 1,1,-1
 266 236 l 1,2,-1
 44 236 l 1,3,-1
 44 319 l 1,4,-1
 266 319 l 1,5,-1
 266 546 l 1,6,-1
 361 546 l 1,7,-1
 361 319 l 1,8,-1
 584 319 l 1,9,-1
 584 236 l 1,10,-1
 361 236 l 1,11,-1
 361 0 l 1,0,-1
EndSplineSet
EndChar

StartChar: comma
Encoding: 44 44 13
Width: 258
VWidth: 1504
Flags: W
HStem: -161 299
VStem: 57 149<7.26748 114.25>
LayerCount: 3
Back
SplineSet
206 56 m 0
 206 -43.3333 160.333 -115.667 69 -161 c 1
 38 -117 l 1
 91.3333 -85 121.667 -50 129 -12 c 1
 81 -8.66667 57 16.3333 57 63 c 0
 57 84.3334 64.3333 102.167 79 116.5 c 128
 93.6667 130.833 111 138 131 138 c 0
 152.333 138 170.167 130.333 184.5 115 c 128
 198.833 99.6667 206 80 206 56 c 0
EndSplineSet
Fore
SplineSet
131 138 m 3
 175 138 206 102 206 56 c 3
 206 -43 160 -116 69 -161 c 1
 38 -117 l 1
 91 -85 122 -50 129 -12 c 1
 81 -9 57 16 57 63 c 3
 57 104 90 138 131 138 c 3
EndSplineSet
Validated: 1
Layer: 2
SplineSet
131 138 m 3,0,1
 164 138 164 138 185 114.5 c 128,-1,2
 206 91 206 91 206 56 c 0,3,4
 206 -93 206 -93 69 -161 c 1,5,-1
 38 -117 l 1,6,7
 119 -68 119 -68 129 -12 c 1,8,9
 57 -7.5 57 -7.5 57 63 c 0,10,11
 57 94 57 94 78.5 116 c 128,-1,12
 100 138 100 138 131 138 c 3,0,1
EndSplineSet
EndChar

StartChar: hyphen
Encoding: 45 45 14
AltUni2: 0000ad.ffffffff.0
Width: 339
VWidth: 1504
Flags: W
HStem: 236 81<20 320>
VStem: 20 300<236 317>
LayerCount: 3
Fore
SplineSet
320 236 m 1
 20 236 l 1
 20 317 l 1
 320 317 l 1
 320 236 l 1
EndSplineSet
Validated: 1
Layer: 2
SplineSet
320 236 m 1,0,-1
 20 236 l 1,1,-1
 20 317 l 1,2,-1
 320 317 l 1,3,-1
 320 236 l 1,0,-1
EndSplineSet
EndChar

StartChar: period
Encoding: 46 46 15
Width: 258
VWidth: 1504
Flags: W
HStem: -14 145<78 180.5>
VStem: 57 145<7.5 110>
LayerCount: 3
Back
SplineSet
202 59 m 256
 202 39 194.833 21.8333 180.5 7.5 c 128
 166.167 -6.83333 149 -14 129 -14 c 256
 109 -14 92 -6.83333 78 7.5 c 128
 64 21.8333 57 39 57 59 c 256
 57 79 64 96 78 110 c 128
 92 124 109 131 129 131 c 256
 149 131 166.167 124 180.5 110 c 128
 194.833 96 202 79 202 59 c 256
EndSplineSet
Fore
SplineSet
129 131 m 259
 169 131 202 99 202 59 c 259
 202 19 169 -14 129 -14 c 259
 89 -14 57 19 57 59 c 259
 57 99 89 131 129 131 c 259
EndSplineSet
Validated: 1
Layer: 2
SplineSet
129 131 m 259,0,1
 159 131 159 131 180.5 110 c 128,-1,2
 202 89 202 89 202 59 c 128,-1,3
 202 29 202 29 180.5 7.5 c 128,-1,4
 159 -14 159 -14 129 -14 c 128,-1,5
 99 -14 99 -14 78 7.5 c 128,-1,6
 57 29 57 29 57 59 c 128,-1,7
 57 89 57 89 78 110 c 128,-1,8
 99 131 99 131 129 131 c 259,0,1
EndSplineSet
EndChar

StartChar: slash
Encoding: 47 47 16
Width: 415
VWidth: 1504
Flags: W
DStem2: -45 -42 51 -42 0.457194 0.889367<43.8906 878.82>
LayerCount: 3
Fore
SplineSet
51 -42 m 1
 -45 -42 l 1
 356 740 l 1
 453 740 l 1
 51 -42 l 1
EndSplineSet
Validated: 1
Layer: 2
SplineSet
51 -42 m 1,0,-1
 -45 -42 l 1,1,-1
 356 740 l 1,2,-1
 453 740 l 1,3,-1
 51 -42 l 1,0,-1
EndSplineSet
EndChar

StartChar: zero
Encoding: 48 48 17
Width: 568
VWidth: 1504
Flags: W
HStem: -14 83<217.594 347.581> 638 83<221.152 347.419>
VStem: 42 96<192.26 514.473> 429 96<195.054 513.4>
LayerCount: 3
Back
SplineSet
525 353 m 256
 525 251.667 504 165.167 462 93.5 c 128
 420 21.8333 359.667 -14 281 -14 c 0
 205.667 -14 147 22 105 94 c 128
 63 166 42 252.333 42 353 c 256
 42 454.333 63 541 105 613 c 128
 147 685 205.667 721 281 721 c 0
 359 721 419.167 685 461.5 613 c 128
 503.833 541 525 454.333 525 353 c 256
429 353 m 256
 429 437 416.833 505.5 392.5 558.5 c 128
 368.167 611.5 332 638 284 638 c 0
 234.667 638 198 611.667 174 559 c 128
 150 506.333 138 437.666 138 353 c 256
 138 269 150.167 200.667 174.5 148 c 128
 198.833 95.3333 235 69 283 69 c 0
 332.333 69 369 95.3334 393 148 c 128
 417 200.667 429 269 429 353 c 256
EndSplineSet
Fore
SplineSet
525 353 m 259
 525 174 452 -14 281 -14 c 3
 115 -14 42 178 42 353 c 259
 42 529 115 721 281 721 c 3
 452 721 525 532 525 353 c 259
429 353 m 259
 429 482 398 638 284 638 c 3
 167 638 138 485 138 353 c 259
 138 222 167 69 283 69 c 3
 400 69 429 221 429 353 c 259
EndSplineSet
Validated: 1
Layer: 2
SplineSet
525 353 m 259,0,1
 525 258 525 258 500.5 177.5 c 128,-1,2
 476 97 476 97 419 41.5 c 128,-1,3
 362 -14 362 -14 281 -14 c 0,4,5
 202 -14 202 -14 146 42.5 c 128,-1,6
 90 99 90 99 66 179.5 c 128,-1,7
 42 260 42 260 42 353 c 128,-1,8
 42 446 42 446 66 527 c 128,-1,9
 90 608 90 608 146 664.5 c 128,-1,10
 202 721 202 721 281 721 c 0,11,12
 343 721 343 721 391 689 c 128,-1,13
 439 657 439 657 467.5 603.5 c 128,-1,14
 496 550 496 550 510.5 486.5 c 128,-1,15
 525 423 525 423 525 353 c 259,0,1
429 353 m 259,16,17
 429 406 429 406 422 453 c 128,-1,18
 415 500 415 500 399.5 543.5 c 128,-1,19
 384 587 384 587 354.5 612.5 c 128,-1,20
 325 638 325 638 284 638 c 0,21,22
 242 638 242 638 212 613 c 128,-1,23
 182 588 182 588 166.5 544.5 c 128,-1,24
 151 501 151 501 144.5 454 c 128,-1,25
 138 407 138 407 138 353 c 128,-1,26
 138 299 138 299 144.5 252.5 c 128,-1,27
 151 206 151 206 166.5 162.5 c 128,-1,28
 182 119 182 119 212 94 c 128,-1,29
 242 69 242 69 283 69 c 0,30,31
 325 69 325 69 355 94 c 128,-1,32
 385 119 385 119 400.5 162 c 128,-1,33
 416 205 416 205 422.5 252 c 128,-1,34
 429 299 429 299 429 353 c 259,16,17
EndSplineSet
EndChar

StartChar: one
Encoding: 49 49 18
Width: 568
VWidth: 1504
Flags: W
HStem: 0 77<144 256 352 462> 699 20G<272.273 314.5>
VStem: 256 96<77 576>
DStem2: 105 558 161 496 0.7646 0.644506<2.85824 127.056>
LayerCount: 3
Fore
SplineSet
462 0 m 1
 144 0 l 1
 144 77 l 1
 256 77 l 1
 256 576 l 1
 161 496 l 1
 105 558 l 1
 296 719 l 1
 333 719 352 695 352 647 c 2
 352 77 l 1
 462 77 l 1
 462 0 l 1
EndSplineSet
Validated: 1
Layer: 2
SplineSet
462 0 m 1,0,-1
 144 0 l 1,1,-1
 144 77 l 1,2,-1
 256 77 l 1,3,-1
 256 576 l 1,4,-1
 161 496 l 1,5,-1
 105 558 l 1,6,-1
 296 719 l 1,7,8
 352 719 352 719 352 647 c 2,9,-1
 352 77 l 1,10,-1
 462 77 l 1,11,-1
 462 0 l 1,0,-1
EndSplineSet
EndChar

StartChar: two
Encoding: 50 50 19
Width: 568
VWidth: 1504
Flags: W
HStem: 0 84<158 523> 632 87<229.679 389.746>
VStem: 80 88<518.25 563.004> 424 96<462.416 597.889>
LayerCount: 3
Back
SplineSet
523 0 m 1
 36 0 l 1
 44 44 52.6667 80 62 108 c 1
 88 140 167.667 218.333 301 343 c 0
 383 420.333 424 483.333 424 532 c 0
 424 598 385 631.333 307 632 c 0
 229.667 632 183.333 587.333 168 498 c 1
 80 520 l 1
 87.3334 584 112.333 633.667 155 669 c 0
 195 702.333 246 719 308 719 c 0
 369.333 719 420 701 460 665 c 128
 500 629 520 583.333 520 528 c 0
 520 478.667 494 423 442 361 c 0
 410 323.667 356.333 272 281 206 c 0
 213.667 146.667 172.667 106 158 84 c 1
 542 84 l 1
 523 0 l 1
EndSplineSet
Fore
SplineSet
308 719 m 3
 425 719 520 643 520 528 c 3
 520 479 494 423 442 361 c 0
 410 324 356 272 281 206 c 0
 214 147 173 106 158 84 c 1
 542 84 l 1
 523 0 l 1
 36 0 l 1
 44 44 53 80 62 108 c 1
 88 140 168 218 301 343 c 0
 383 420 424 483 424 532 c 3
 424 598 385 632 307 632 c 3
 230 632 183 587 168 498 c 1
 80 520 l 1
 94 640 176 719 308 719 c 3
EndSplineSet
Validated: 1
Layer: 2
SplineSet
308 719 m 3,0,1
 398 719 398 719 459 666 c 128,-1,2
 520 613 520 613 520 528 c 0,3,4
 520 454 520 454 442 361 c 0,5,6
 394 305 394 305 281 206 c 0,7,8
 181 118 181 118 158 84 c 1,9,-1
 542 84 l 1,10,-1
 523 0 l 1,11,-1
 36 0 l 1,12,13
 47 62 47 62 62 108 c 1,14,15
 98 152 98 152 301 343 c 0,16,17
 424 458.5 424 458.5 424 532 c 0,18,19
 424 632 424 632 307 632 c 0,20,21
 191 632 191 632 168 498 c 1,22,-1
 80 520 l 1,23,24
 91 612 91 612 151 665.5 c 128,-1,25
 211 719 211 719 308 719 c 3,0,1
EndSplineSet
EndChar

StartChar: three
Encoding: 51 51 20
Width: 568
VWidth: 1504
Flags: W
HStem: -12 92<127.184 322.416> 522 21G<80.1429 130.5> 638 81<205.486 353.211>
VStem: 367 90<526.141 623.036> 424 95<174.431 315.673>
LayerCount: 3
Back
SplineSet
519 248 m 0
 519 170 491.167 107.167 435.5 59.5 c 128
 379.833 11.8333 307 -12 217 -12 c 0
 149 -12 89.6667 9 39 51 c 1
 81 128 l 1
 126.333 96 176.667 80 232 80 c 0
 284 80 329 96.5 367 129.5 c 128
 405 162.5 424 201 424 245 c 0
 424 277 413.833 304.167 393.5 326.5 c 128
 373.167 348.833 347.333 360 316 360 c 0
 278.667 360 243 345.333 209 316 c 1
 168 382 l 1
 217.333 410 261 441.667 299 477 c 0
 344.333 519 367 553 367 579 c 0
 367 618.333 339.333 638 284 638 c 0
 248 638 214.667 626.5 184 603.5 c 128
 153.333 580.5 131.667 553.333 119 522 c 1
 51 557 l 1
 70.3334 607 101.333 646.5 144 675.5 c 128
 186.667 704.5 235 719 289 719 c 0
 337 719 377 706.5 409 681.5 c 128
 441 656.5 457 623 457 581 c 0
 457 539.667 426 492.333 364 439 c 1
 411.333 429.667 449 408 477 374 c 128
 505 340 519 298 519 248 c 0
EndSplineSet
Fore
SplineSet
364 439 m 1xf0
 454 421 519 353 519 248 c 3
 519 84 386 -12 217 -12 c 3
 149 -12 90 9 39 51 c 1
 81 128 l 1
 126 96 177 80 232 80 c 3
 328 80 424 152 424 245 c 3xe8
 424 308 379 360 316 360 c 3
 279 360 243 345 209 316 c 1
 168 382 l 1
 229 417 367 508 367 579 c 3
 367 618 339 638 284 638 c 3
 207 638 142 578 119 522 c 1
 51 557 l 1
 86 647 171 719 289 719 c 3
 379 719 457 669 457 581 c 3
 457 540 426 492 364 439 c 1xf0
EndSplineSet
Validated: 1
Layer: 2
SplineSet
364 439 m 1,0,1
 434 425 434 425 476.5 375 c 128,-1,2
 519 325 519 325 519 248 c 0,3,4
 519 128 519 128 433.5 58 c 128,-1,5
 348 -12 348 -12 217 -12 c 0,6,7
 116 -12 116 -12 39 51 c 1,8,-1
 81 128 l 1,9,10
 148 80 148 80 232 80 c 0,11,12
 306 80 306 80 365 128.5 c 128,-1,13
 424 177 424 177 424 245 c 0,14,15
 424 293 424 293 393.5 326.5 c 128,-1,16
 363 360 363 360 316 360 c 0,17,18
 261 360 261 360 209 316 c 1,19,-1
 168 382 l 1,20,21
 208 405 208 405 248 433 c 128,-1,22
 288 461 288 461 327.5 504 c 128,-1,23
 367 547 367 547 367 579 c 0,24,25
 367 638 367 638 284 638 c 0,26,27
 230 638 230 638 184 603 c 128,-1,28
 138 568 138 568 119 522 c 1,29,-1
 51 557 l 1,30,31
 79 628 79 628 141.5 673.5 c 128,-1,32
 204 719 204 719 289 719 c 0,33,34
 360 719 360 719 408.5 682 c 128,-1,35
 457 645 457 645 457 581 c 0,36,37
 457 518 457 518 364 439 c 1,0,1
EndSplineSet
EndChar

StartChar: four
Encoding: 52 52 21
Width: 568
VWidth: 1504
Flags: W
HStem: 0 21G<344 441> 159 82<137 344 441 526>
VStem: 344 97<0 159 241 608>
LayerCount: 3
Fore
SplineSet
344 241 m 1
 344 608 l 1
 296 577 253 526 214 456 c 0
 175 386 150 314 137 241 c 1
 344 241 l 1
441 0 m 1
 344 0 l 1
 344 159 l 1
 42 159 l 1
 42 284 82 409 161 534 c 0
 240 659 334 727 441 736 c 1
 441 241 l 1
 537 241 l 1
 526 159 l 1
 441 159 l 1
 441 0 l 1
EndSplineSet
Validated: 1
Layer: 2
SplineSet
344 241 m 1,0,-1
 344 608 l 1,1,2
 273 562 273 562 214 456 c 0,3,4
 157 354 157 354 137 241 c 1,5,-1
 344 241 l 1,0,-1
441 0 m 1,6,-1
 344 0 l 1,7,-1
 344 159 l 1,8,-1
 42 159 l 1,9,10
 42 346 42 346 161 534 c 128,-1,11
 280 722 280 722 441 736 c 1,12,-1
 441 241 l 1,13,-1
 537 241 l 1,14,-1
 526 159 l 1,15,-1
 441 159 l 1,16,-1
 441 0 l 1,6,-1
EndSplineSet
EndChar

StartChar: five
Encoding: 53 53 22
Width: 568
VWidth: 1504
Flags: W
HStem: -12 81<139.3 322.194> 387 85<224.71 359.834> 635 81<235 484>
VStem: 424 96<167.533 327.022>
DStem2: 117 334 224 460 0.0679057 0.997692<132.975 308.318>
LayerCount: 3
Back
SplineSet
520 253 m 0
 520 175 492.5 111.333 437.5 62 c 128
 382.5 12.6667 311.333 -12 224 -12 c 0
 150 -12 88.3333 9.66667 39 53 c 1
 80 122 l 1
 136 86.6666 187.667 69 235 69 c 0
 287 69 331.5 86.3334 368.5 121 c 128
 405.5 155.667 424 199 424 251 c 0
 424 294.333 410 327.833 382 351.5 c 128
 354 375.167 316.333 387 269 387 c 256
 221.667 387 191 370.333 177 337 c 1
 117 334 l 1
 143 716 l 1
 501 716 l 1
 484 635 l 1
 235 635 l 1
 224 460 l 1
 242 468 263.667 472 289 472 c 0
 355 472 410 451.5 454 410.5 c 128
 498 369.5 520 317 520 253 c 0
EndSplineSet
Fore
SplineSet
235 69 m 3
 338 69 424 148 424 251 c 3
 424 340 360 387 269 387 c 259
 222 387 191 370 177 337 c 1
 117 334 l 1
 143 716 l 1
 501 716 l 1
 484 635 l 1
 235 635 l 1
 224 460 l 1
 242 468 264 472 289 472 c 3
 419 472 520 382 520 253 c 3
 520 90 390 -12 224 -12 c 3
 150 -12 88 10 39 53 c 1
 80 122 l 1
 136 87 188 69 235 69 c 3
EndSplineSet
Validated: 1
Layer: 2
SplineSet
235 69 m 3,0,1
 313 69 313 69 368.5 121.5 c 128,-1,2
 424 174 424 174 424 251 c 0,3,4
 424 316 424 316 381.5 351.5 c 128,-1,5
 339 387 339 387 269 387 c 0,6,7
 198 387 198 387 177 337 c 1,8,-1
 117 334 l 1,9,-1
 143 716 l 1,10,-1
 501 716 l 1,11,-1
 484 635 l 1,12,-1
 235 635 l 1,13,-1
 224 460 l 1,14,15
 251 472 251 472 289 472 c 0,16,17
 388 472 388 472 454 410.5 c 128,-1,18
 520 349 520 349 520 253 c 0,19,20
 520 133 520 133 435.5 60.5 c 128,-1,21
 351 -12 351 -12 224 -12 c 0,22,23
 113 -12 113 -12 39 53 c 1,24,-1
 80 122 l 1,25,26
 165 69 165 69 235 69 c 3,0,1
EndSplineSet
EndChar

StartChar: six
Encoding: 54 54 23
Width: 568
VWidth: 1504
Flags: W
HStem: -12 84<224.223 357.641> 379 81<222.863 355.363> 656 75<415.842 466.84>
VStem: 54 102<144.811 305.829> 426 87<148.613 304.933>
LayerCount: 3
Back
SplineSet
513 226 m 0
 513 158.667 492.667 102.167 452 56.5 c 128
 411.333 10.8333 359.333 -12 296 -12 c 0
 226 -12 168.167 12.5 122.5 61.5 c 128
 76.8333 110.5 54 175.667 54 257 c 0
 54 372.334 92.1667 474.167 168.5 562.5 c 128
 244.833 650.833 344 707 466 731 c 1
 475 656 l 1
 411.667 638.667 351.5 607.667 294.5 563 c 128
 237.5 518.333 196.333 468.667 171 414 c 1
 202.333 445.334 245 460.668 299 460 c 0
 359 460 409.667 437.5 451 392.5 c 128
 492.333 347.5 513 292 513 226 c 0
426 226 m 256
 426 266 412.833 301.5 386.5 332.5 c 128
 360.167 363.5 329 379 293 379 c 0
 255 379 222.667 364.167 196 334.5 c 128
 169.333 304.833 156 268.667 156 226 c 0
 156 184 169.333 147.833 196 117.5 c 128
 222.667 87.1667 255 72 293 72 c 0
 329 72 360.167 87.6667 386.5 119 c 128
 412.833 150.333 426 186 426 226 c 256
EndSplineSet
Fore
SplineSet
513 226 m 3
 513 96 425 -12 296 -12 c 3
 148 -12 54 104 54 257 c 3
 54 372 92 474 168 562 c 0
 244 650 344 707 466 731 c 1
 475 656 l 1
 412 639 351 608 294 563 c 0
 237 518 196 469 171 414 c 1
 202 445 245 460 299 460 c 3
 422 460 513 352 513 226 c 3
293 72 m 3
 367 72 426 150 426 226 c 259
 426 302 367 379 293 379 c 3
 214 379 156 307 156 226 c 3
 156 146 215 72 293 72 c 3
EndSplineSet
Validated: 1
Layer: 2
SplineSet
513 226 m 3,0,1
 513 126 513 126 452 57 c 128,-1,2
 391 -12 391 -12 296 -12 c 0,3,4
 187 -12 187 -12 120.5 64 c 128,-1,5
 54 140 54 140 54 257 c 0,6,7
 54 430 54 430 168 562 c 0,8,9
 283 695 283 695 466 731 c 1,10,-1
 475 656 l 1,11,12
 379 630 379 630 294 563 c 0,13,14
 208 495 208 495 171 414 c 1,15,16
 217 460 217 460 299 460 c 0,17,18
 390 460 390 460 451.5 391 c 128,-1,19
 513 322 513 322 513 226 c 3,0,1
293 72 m 3,20,21
 347 72 347 72 386.5 119.5 c 128,-1,22
 426 167 426 167 426 226 c 128,-1,23
 426 285 426 285 386.5 332 c 128,-1,24
 347 379 347 379 293 379 c 0,25,26
 235 379 235 379 195.5 333.5 c 128,-1,27
 156 288 156 288 156 226 c 0,28,29
 156 165 156 165 196 118.5 c 128,-1,30
 236 72 236 72 293 72 c 3,20,21
EndSplineSet
EndChar

StartChar: seven
Encoding: 55 55 24
Width: 568
VWidth: 1504
Flags: W
HStem: 0 21G<199 296> 635 81<65 411>
VStem: 199 97<0 211.401>
LayerCount: 3
Back
SplineSet
296 0 m 1
 199 0 l 1
 207 280 278 492 411 635 c 1
 42 635 l 1
 65 716 l 1
 532 716 l 1
 519 635 l 1
 442 539 386 447 353 358 c 0
 315 257 296 137 296 0 c 1
EndSplineSet
Fore
SplineSet
296 0 m 1
 199 0 l 1
 207 280 278 492 411 635 c 1
 42 635 l 1
 65 716 l 1
 532 716 l 1
 519 635 l 1
 374 454 296 300 296 0 c 1
EndSplineSet
Validated: 1
Layer: 2
SplineSet
296 0 m 1,0,-1
 199 0 l 1,1,2
 211 420 211 420 411 635 c 1,3,-1
 42 635 l 1,4,-1
 65 716 l 1,5,-1
 532 716 l 1,6,-1
 519 635 l 1,7,8
 401 488 401 488 348.5 350 c 128,-1,9
 296 212 296 212 296 0 c 1,0,-1
EndSplineSet
EndChar

StartChar: eight
Encoding: 56 56 25
Width: 568
VWidth: 1504
Flags: W
HStem: -12 81<198.637 368.965> 639 82<205.194 362.806>
VStem: 47 91<126.067 274.246> 69 90<479.276 594.917> 409 90<480.172 594.917> 430 92<126.067 274.246>
LayerCount: 3
Back
SplineSet
430 197 m 0
 430 234.333 417.5 268 392.5 298 c 128
 367.5 328 331.333 344.333 284 347 c 1
 236.667 343.667 200.5 327.167 175.5 297.5 c 128
 150.5 267.833 138 234.333 138 197 c 0
 138 157.667 151.667 126.5 179 103.5 c 128
 206.333 80.5 241.333 69 284 69 c 256
 327.333 69 362.5 80.5 389.5 103.5 c 128
 416.5 126.5 430 157.667 430 197 c 0
409 534 m 0
 409 564 397.5 589 374.5 609 c 128
 351.5 629 321.333 639 284 639 c 256
 246.667 639 216.5 629 193.5 609 c 128
 170.5 589 159 564 159 534 c 0
 159 484.667 200.333 448.667 283 426 c 1
 367 448.667 409 484.667 409 534 c 0
522 202 m 0
 522 136 500.5 83.8333 457.5 45.5 c 128
 414.5 7.16667 356.333 -12 283 -12 c 0
 211 -12 153.667 7 111 45 c 128
 68.3333 83 47 135.333 47 202 c 0
 47 242 58.1667 279 80.5 313 c 128
 102.833 347 131.667 372 167 388 c 1
 101.667 423.333 69 470.333 69 529 c 0
 69 584.333 89.3334 630.167 130 666.5 c 128
 170.667 702.833 222 721 284 721 c 256
 346 721 397.333 702.833 438 666.5 c 128
 478.667 630.166 499 584.333 499 529 c 0
 499 469.667 466.667 422.667 402 388 c 1
 437.334 372 466.167 347 488.5 313 c 128
 510.833 279 522 242 522 202 c 0
EndSplineSet
Fore
SplineSet
284 69 m 259xe4
 367 69 430 116 430 197 c 3
 430 281 368 342 284 347 c 1
 200 342 138 281 138 197 c 3
 138 116 202 69 284 69 c 259xe4
284 639 m 259
 216 639 159 599 159 534 c 3
 159 485 200 449 283 426 c 1
 367 449 409 485 409 534 c 3xd8
 409 599 352 639 284 639 c 259
402 388 m 1
 465 359 522 289 522 202 c 3
 522 65 423 -12 283 -12 c 3
 144 -12 47 65 47 202 c 3xe4
 47 289 104 359 167 388 c 1
 102 423 69 470 69 529 c 3
 69 644 166 721 284 721 c 259
 402 721 499 644 499 529 c 3
 499 470 467 423 402 388 c 1
EndSplineSet
Validated: 1
Layer: 2
SplineSet
284 69 m 259,0,1
 348 69 348 69 389 103.5 c 128,-1,2
 430 138 430 138 430 197 c 0,3,4
 430 260 430 260 388.5 301.5 c 128,-1,5
 347 343 347 343 284 347 c 1,6,7
 221 343 221 343 179.5 301.5 c 128,-1,8
 138 260 138 260 138 197 c 0,9,10
 138 138 138 138 179.5 103.5 c 128,-1,11
 221 69 221 69 284 69 c 259,0,1
284 639 m 259,12,13
 231 639 231 639 195 610 c 128,-1,14
 159 581 159 581 159 534 c 0,15,16
 159 460 159 460 283 426 c 1,17,18
 409 460.5 409 460.5 409 534 c 0,19,20
 409 581 409 581 373 610 c 128,-1,21
 337 639 337 639 284 639 c 259,12,13
402 388 m 1,22,23
 452 365 452 365 487 314.5 c 128,-1,24
 522 264 522 264 522 202 c 0,25,26
 522 101 522 101 456 44.5 c 128,-1,27
 390 -12 390 -12 283 -12 c 0,28,29
 177 -12 177 -12 112 44.5 c 128,-1,30
 47 101 47 101 47 202 c 0,31,32
 47 264 47 264 82 314.5 c 128,-1,33
 117 365 117 365 167 388 c 1,34,35
 69 441 69 441 69 529 c 0,36,37
 69 614 69 614 131.5 667.5 c 128,-1,38
 194 721 194 721 284 721 c 128,-1,39
 374 721 374 721 436.5 667.5 c 128,-1,40
 499 614 499 614 499 529 c 0,41,42
 499 440 499 440 402 388 c 1,22,23
EndSplineSet
EndChar

StartChar: nine
Encoding: 57 57 26
Width: 568
VWidth: 1504
Flags: W
HStem: -24 75<100.16 151.104> 247 81<211.471 344.096> 635 84<209.138 342.777>
VStem: 54 87<402.067 561.127> 411 102<400.923 561.974>
LayerCount: 3
Back
SplineSet
513 450 m 0
 513 334.667 474.833 232.833 398.5 144.5 c 128
 322.167 56.1667 223 0 101 -24 c 1
 92 51 l 1
 153.333 67 214.333 99.1667 275 147.5 c 128
 335.667 195.833 378 245 402 295 c 1
 372.667 263 328 247 268 247 c 256
 208 247 157.333 269.5 116 314.5 c 128
 74.6667 359.5 54 415 54 481 c 0
 54 548.333 74.3333 604.833 115 650.5 c 128
 155.667 696.167 207.667 719 271 719 c 0
 341 719 398.833 694.5 444.5 645.5 c 128
 490.167 596.5 513 531.333 513 450 c 0
411 481 m 0
 411 523 397.667 559.167 371 589.5 c 128
 344.333 619.833 312 635 274 635 c 0
 238 635 206.833 619.5 180.5 588.5 c 128
 154.167 557.5 141 521.667 141 481 c 256
 141 441 154.167 405.5 180.5 374.5 c 128
 206.833 343.5 238 328 274 328 c 0
 312 328 344.333 342.667 371 372 c 128
 397.667 401.334 411 437.667 411 481 c 0
EndSplineSet
Fore
SplineSet
54 481 m 3
 54 611 142 719 271 719 c 3
 419 719 513 602 513 450 c 3
 513 335 474 232 398 144 c 0
 322 56 223 0 101 -24 c 1
 92 51 l 1
 153 67 214 100 275 148 c 0
 336 196 378 245 402 295 c 1
 373 263 328 247 268 247 c 259
 144 247 54 355 54 481 c 3
274 328 m 3
 353 328 411 399 411 481 c 3
 411 561 352 635 274 635 c 3
 199 635 141 557 141 481 c 259
 141 405 200 328 274 328 c 3
EndSplineSet
Validated: 1
Layer: 2
SplineSet
54 481 m 3,0,1
 54 581 54 581 115 650 c 128,-1,2
 176 719 176 719 271 719 c 0,3,4
 380 719 380 719 446.5 642.5 c 128,-1,5
 513 566 513 566 513 450 c 0,6,7
 513 277 513 277 398 144 c 0,8,9
 284 12 284 12 101 -24 c 1,10,-1
 92 51 l 1,11,12
 182 74 182 74 275 148 c 0,13,14
 366 219 366 219 402 295 c 1,15,16
 358 247 358 247 268 247 c 0,17,18
 176 247 176 247 115 316 c 128,-1,19
 54 385 54 385 54 481 c 3,0,1
274 328 m 3,20,21
 332 328 332 328 371.5 373 c 128,-1,22
 411 418 411 418 411 481 c 0,23,24
 411 542 411 542 371 588.5 c 128,-1,25
 331 635 331 635 274 635 c 0,26,27
 219 635 219 635 180 587.5 c 128,-1,28
 141 540 141 540 141 481 c 128,-1,29
 141 422 141 422 180.5 375 c 128,-1,30
 220 328 220 328 274 328 c 3,20,21
EndSplineSet
EndChar

StartChar: colon
Encoding: 58 58 27
Width: 258
VWidth: 1504
Flags: W
HStem: -14 145<78 180.5> 356 145<78 180.5>
VStem: 57 145<7.5 110 377.5 480>
LayerCount: 3
Back
SplineSet
202 59 m 256
 202 39 194.833 21.8333 180.5 7.5 c 128
 166.167 -6.83333 149 -14 129 -14 c 256
 109 -14 92 -6.83333 78 7.5 c 128
 64 21.8333 57 39 57 59 c 256
 57 79 64 96 78 110 c 128
 92 124 109 131 129 131 c 256
 149 131 166.167 124 180.5 110 c 128
 194.833 96 202 79 202 59 c 256
202 429 m 256
 202 409 194.833 391.833 180.5 377.5 c 128
 166.167 363.167 149 356 129 356 c 256
 109 356 92 363.167 78 377.5 c 128
 64 391.833 57 409 57 429 c 256
 57 449 64 466 78 480 c 128
 92 494 109 501 129 501 c 256
 149 501 166.167 494 180.5 480 c 128
 194.833 466 202 449 202 429 c 256
EndSplineSet
Fore
SplineSet
129 131 m 259
 169 131 202 99 202 59 c 259
 202 19 169 -14 129 -14 c 259
 89 -14 57 19 57 59 c 259
 57 99 89 131 129 131 c 259
129 501 m 259
 169 501 202 469 202 429 c 259
 202 389 169 356 129 356 c 259
 89 356 57 389 57 429 c 259
 57 469 89 501 129 501 c 259
EndSplineSet
Validated: 1
Layer: 2
SplineSet
129 131 m 259,0,1
 159 131 159 131 180.5 110 c 128,-1,2
 202 89 202 89 202 59 c 128,-1,3
 202 29 202 29 180.5 7.5 c 128,-1,4
 159 -14 159 -14 129 -14 c 128,-1,5
 99 -14 99 -14 78 7.5 c 128,-1,6
 57 29 57 29 57 59 c 128,-1,7
 57 89 57 89 78 110 c 128,-1,8
 99 131 99 131 129 131 c 259,0,1
129 501 m 259,9,10
 159 501 159 501 180.5 480 c 128,-1,11
 202 459 202 459 202 429 c 128,-1,12
 202 399 202 399 180.5 377.5 c 128,-1,13
 159 356 159 356 129 356 c 128,-1,14
 99 356 99 356 78 377.5 c 128,-1,15
 57 399 57 399 57 429 c 128,-1,16
 57 459 57 459 78 480 c 128,-1,17
 99 501 99 501 129 501 c 259,9,10
EndSplineSet
EndChar

StartChar: semicolon
Encoding: 59 59 28
Width: 258
VWidth: 1504
Flags: W
HStem: 356 145<78 180.5>
VStem: 57 149<7.26748 114.25 381.356 476.214>
LayerCount: 3
Back
SplineSet
202 429 m 256
 202 409 194.833 391.833 180.5 377.5 c 128
 166.167 363.167 149 356 129 356 c 256
 109 356 92 363.167 78 377.5 c 128
 64 391.833 57 409 57 429 c 256
 57 449 64 466 78 480 c 128
 92 494 109 501 129 501 c 256
 149 501 166.167 494 180.5 480 c 128
 194.833 466 202 449 202 429 c 256
206 56 m 0
 206 -43.3333 160.333 -115.667 69 -161 c 1
 38 -117 l 1
 91.3333 -85 121.667 -50 129 -12 c 1
 81 -8.66667 57 16.3333 57 63 c 0
 57 84.3334 64.3333 102.167 79 116.5 c 128
 93.6667 130.833 111 138 131 138 c 0
 152.333 138 170.167 130.333 184.5 115 c 128
 198.833 99.6667 206 80 206 56 c 0
EndSplineSet
Fore
SplineSet
129 501 m 259
 169 501 202 469 202 429 c 259
 202 389 169 356 129 356 c 259
 89 356 57 389 57 429 c 259
 57 469 89 501 129 501 c 259
131 138 m 3
 175 138 206 102 206 56 c 3
 206 -43 160 -116 69 -161 c 1
 38 -117 l 1
 91 -85 122 -50 129 -12 c 1
 81 -9 57 16 57 63 c 3
 57 104 90 138 131 138 c 3
EndSplineSet
Validated: 1
Layer: 2
SplineSet
129 501 m 259,0,1
 159 501 159 501 180.5 480 c 128,-1,2
 202 459 202 459 202 429 c 128,-1,3
 202 399 202 399 180.5 377.5 c 128,-1,4
 159 356 159 356 129 356 c 128,-1,5
 99 356 99 356 78 377.5 c 128,-1,6
 57 399 57 399 57 429 c 128,-1,7
 57 459 57 459 78 480 c 128,-1,8
 99 501 99 501 129 501 c 259,0,1
131 138 m 3,9,10
 164 138 164 138 185 114.5 c 128,-1,11
 206 91 206 91 206 56 c 0,12,13
 206 -93 206 -93 69 -161 c 1,14,-1
 38 -117 l 1,15,16
 119 -68 119 -68 129 -12 c 1,17,18
 57 -7.5 57 -7.5 57 63 c 0,19,20
 57 94 57 94 78.5 116 c 128,-1,21
 100 138 100 138 131 138 c 3,9,10
EndSplineSet
EndChar

StartChar: less
Encoding: 60 60 29
Width: 627
VWidth: 1504
Flags: W
HStem: -15 21G<534.697 573>
DStem2: 54 317 174 286 0.887133 0.461514<92.149 541.187> 174 286 54 256 0.886433 -0.462858<0 449.035>
LayerCount: 3
Fore
SplineSet
573 -15 m 1
 54 256 l 1
 54 317 l 1
 573 587 l 1
 573 492 l 1
 174 286 l 1
 573 80 l 1
 573 -15 l 1
EndSplineSet
Validated: 1
Layer: 2
SplineSet
573 -15 m 1,0,-1
 54 256 l 1,1,-1
 54 317 l 1,2,-1
 573 587 l 1,3,-1
 573 492 l 1,4,-1
 174 286 l 1,5,-1
 573 80 l 1,6,-1
 573 -15 l 1,0,-1
EndSplineSet
EndChar

StartChar: equal
Encoding: 61 61 30
Width: 627
VWidth: 1504
Flags: W
HStem: 146 80<69 558> 335 79<69 558>
LayerCount: 3
Fore
SplineSet
558 335 m 1
 69 335 l 1
 69 414 l 1
 558 414 l 1
 558 335 l 1
558 146 m 1
 69 146 l 1
 69 226 l 1
 558 226 l 1
 558 146 l 1
EndSplineSet
Validated: 1
Layer: 2
SplineSet
558 335 m 1,0,-1
 69 335 l 1,1,-1
 69 414 l 1,2,-1
 558 414 l 1,3,-1
 558 335 l 1,0,-1
558 146 m 1,4,-1
 69 146 l 1,5,-1
 69 226 l 1,6,-1
 558 226 l 1,7,-1
 558 146 l 1,4,-1
EndSplineSet
EndChar

StartChar: greater
Encoding: 62 62 31
Width: 627
VWidth: 1504
Flags: W
HStem: -15 21G<54 92.3026>
DStem2: 54 587 54 492 0.887133 -0.461514<43.8438 493.307> 54 80 54 -15 0.886433 0.462858<0 450.385>
LayerCount: 3
Fore
SplineSet
573 256 m 1
 54 -15 l 1
 54 80 l 1
 454 287 l 1
 54 492 l 1
 54 587 l 1
 573 317 l 1
 573 256 l 1
EndSplineSet
Validated: 1
Layer: 2
SplineSet
573 256 m 1,0,-1
 54 -15 l 1,1,-1
 54 80 l 1,2,-1
 454 287 l 1,3,-1
 54 492 l 1,4,-1
 54 587 l 1,5,-1
 573 317 l 1,6,-1
 573 256 l 1,0,-1
EndSplineSet
EndChar

StartChar: question
Encoding: 63 63 32
Width: 434
VWidth: 1504
Flags: W
HStem: -14 145<152 254> 641 86<110.095 276.853>
VStem: 131 144<7.5 110> 140 90<177.331 314.613> 304 95<493.612 614.237>
LayerCount: 3
Back
SplineSet
399 558 m 0
 399 504 365.667 443.333 299 376 c 0
 253.667 330.667 230.667 285 230 239 c 0
 230 223.667 233.667 202.667 241 176 c 1
 155 176 l 1
 145 206 140 228.667 140 244 c 0
 140 293.333 167.333 349.5 222 412.5 c 128
 276.667 475.5 304 523 304 555 c 0
 304 612.333 269 641 199 641 c 0
 155.667 641 114 626.333 74 597 c 1
 36 671 l 1
 95.3333 708.333 153 727 209 727 c 0
 266.333 727 312.333 711.667 347 681 c 128
 381.667 650.333 399 609.333 399 558 c 0
275 59 m 256
 275 39 268 21.8333 254 7.5 c 128
 240 -6.83333 223 -14 203 -14 c 256
 183 -14 166 -6.83333 152 7.5 c 128
 138 21.8333 131 39 131 59 c 256
 131 79 138 96 152 110 c 128
 166 124 183 131 203 131 c 256
 223 131 240 124 254 110 c 128
 268 96 275 79 275 59 c 256
EndSplineSet
Fore
SplineSet
209 727 m 3xd8
 318 727 399 665 399 558 c 3
 399 504 366 443 299 376 c 0
 254 331 230 285 230 239 c 3
 230 224 234 203 241 176 c 1
 155 176 l 1
 145 206 140 229 140 244 c 3
 140 293 167 349 222 412 c 0
 277 475 304 523 304 555 c 3
 304 612 269 641 199 641 c 3
 156 641 114 626 74 597 c 1
 36 671 l 1
 95 708 153 727 209 727 c 3xd8
203 131 m 259
 243 131 275 99 275 59 c 259
 275 19 243 -14 203 -14 c 259
 163 -14 131 19 131 59 c 259xe8
 131 99 163 131 203 131 c 259
EndSplineSet
Validated: 1
Layer: 2
SplineSet
209 727 m 131,-1,1
 293 727 293 727 346 681.5 c 128,-1,2
 399 636 399 636 399 558 c 0,3,4
 399 476 399 476 299 376 c 0,5,6
 230 307 230 307 230 239 c 0,7,8
 230 218 230 218 241 176 c 1,9,-1
 155 176 l 1,10,11
 140 221 140 221 140 244 c 0,12,13
 140 318 140 318 222 412 c 128,-1,14
 304 506 304 506 304 555 c 0,15,16
 304 641 304 641 199 641 c 0,17,18
 135 641 135 641 74 597 c 1,19,-1
 36 671 l 1,20,0
 125 727 125 727 209 727 c 131,-1,1
203 131 m 259,21,22
 233 131 233 131 254 110 c 128,-1,23
 275 89 275 89 275 59 c 128,-1,24
 275 29 275 29 254 7.5 c 128,-1,25
 233 -14 233 -14 203 -14 c 128,-1,26
 173 -14 173 -14 152 7.5 c 128,-1,27
 131 29 131 29 131 59 c 128,-1,28
 131 89 131 89 152 110 c 128,-1,29
 173 131 173 131 203 131 c 259,21,22
EndSplineSet
EndChar

StartChar: at
Encoding: 64 64 33
Width: 860
VWidth: 1504
Flags: W
HStem: -143 62<294.988 529.02> 2 66<310.085 466.597> 11 69<597.49 653.415> 245 57<378.396 516> 417 63<318.009 480.052> 534 62<333.034 568.428>
VStem: 45 77<93.952 325.504> 217 75<86 187.512> 520 77<113.286 245 302 376.172> 742 70<174.103 371.251>
LayerCount: 3
Back
SplineSet
812 266 m 0
 812 186 783 122 725 74 c 0
 673.667 32 613 11 543 11 c 1
 534 65 l 1
 486.667 23 433 2 373 2 c 0
 329.667 2 292.833 14.1667 262.5 38.5 c 128
 232.167 62.8333 217 93.6667 217 131 c 0
 217 240.333 316.667 297.333 516 302 c 1
 516 378 480 416.333 408 417 c 0
 368.667 417 332.333 406.333 299 385 c 1
 274 438 l 1
 322 466 374.667 480 432 480 c 0
 485.333 480 526.167 462.5 554.5 427.5 c 128
 582.833 392.5 597 344.667 597 284 c 2
 597 128 l 2
 597 104.667 597.667 88.6667 599 80 c 1
 617 80 l 1
 652.333 90 682 112.833 706 148.5 c 128
 730 184.167 742 222.333 742 263 c 0
 742 340.333 715.833 404.833 663.5 456.5 c 128
 611.166 508.167 541.333 534 454 534 c 0
 356 534 276.167 502.667 214.5 440 c 128
 152.833 377.333 122 299 122 205 c 0
 122 123 149.333 54.8333 204 0.5 c 128
 258.667 -53.8333 326 -81 406 -81 c 0
 467.333 -81 528.667 -65 590 -33 c 1
 618 -93 l 1
 548 -126.333 476 -143 402 -143 c 0
 304 -143 220.667 -111 152 -47 c 1
 80.6667 18.3333 45 100.667 45 200 c 0
 45 313.333 84.6667 407.667 164 483 c 128
 243.333 558.333 342.667 596 462 596 c 0
 564 596 647.833 565 713.5 503 c 128
 779.167 441 812 362 812 266 c 0
520 161 m 2
 520 245 l 1
 367.333 239 291.333 203.333 292 138 c 0
 292 90.6667 319.667 67.3333 375 68 c 0
 412.334 68 444.667 76 472 92 c 0
 504 110 520 133 520 161 c 2
EndSplineSet
Fore
SplineSet
432 480 m 3xdfc0
 544 480 597 399 597 284 c 2
 597 128 l 2
 597 105 598 89 599 80 c 1
 617 80 l 1
 684 99 742 178 742 263 c 3
 742 424 620 534 454 534 c 3
 262 534 122 395 122 205 c 3
 122 43 245 -81 406 -81 c 3
 467 -81 529 -65 590 -33 c 1
 618 -93 l 1
 548 -126 476 -143 402 -143 c 3
 206 -143 45 5 45 200 c 3
 45 430 230 596 462 596 c 3
 660 596 812 462 812 266 c 3
 812 118 694 11 543 11 c 1xbfc0
 534 65 l 1
 487 23 433 2 373 2 c 3
 292 2 217 52 217 131 c 3
 217 240 317 297 516 302 c 1
 516 378 480 417 408 417 c 3
 369 417 332 406 299 385 c 1
 274 438 l 1
 322 466 375 480 432 480 c 3xdfc0
375 68 m 3xdfc0
 442 68 520 102 520 161 c 2
 520 245 l 1
 367 239 292 203 292 138 c 3
 292 91 320 68 375 68 c 3xdfc0
EndSplineSet
Validated: 1
Layer: 2
SplineSet
432 480 m 3,0,1
 513 480 513 480 555 427 c 128,-1,2
 597 374 597 374 597 284 c 2,3,-1
 597 128 l 2,4,5
 597 98 597 98 599 80 c 1,6,-1
 617 80 l 1,7,8
 668 94 668 94 705 147 c 128,-1,9
 742 200 742 200 742 263 c 0,10,11
 742 383 742 383 660.5 458.5 c 128,-1,12
 579 534 579 534 454 534 c 0,13,14
 310 534 310 534 216 441 c 128,-1,15
 122 348 122 348 122 205 c 0,16,17
 122 83 122 83 203.5 1 c 128,-1,18
 285 -81 285 -81 406 -81 c 0,19,20
 498 -81 498 -81 590 -33 c 1,21,-1
 618 -93 l 1,22,23
 512 -143 512 -143 402 -143 c 0,24,25
 254 -143 254 -143 149.5 -44 c 128,-1,26
 45 55 45 55 45 200 c 0,27,28
 45 371 45 371 165.5 483.5 c 128,-1,29
 286 596 286 596 462 596 c 0,30,31
 612 596 612 596 712 503.5 c 128,-1,32
 812 411 812 411 812 266 c 0,33,34
 812 156 812 156 734.5 83.5 c 128,-1,35
 657 11 657 11 543 11 c 1,36,-1
 534 65 l 1,37,38
 464 2 464 2 373 2 c 0,39,40
 310 2 310 2 263.5 38 c 128,-1,41
 217 74 217 74 217 131 c 0,42,43
 217 294 217 294 516 302 c 1,44,45
 516 417 516 417 408 417 c 0,46,47
 349 417 349 417 299 385 c 1,48,-1
 274 438 l 1,49,50
 346 480 346 480 432 480 c 3,0,1
375 68 m 3,51,52
 430 68 430 68 475 93.5 c 128,-1,53
 520 119 520 119 520 161 c 2,54,-1
 520 245 l 1,55,56
 292 236 292 236 292 138 c 0,57,58
 292 68 292 68 375 68 c 3,51,52
EndSplineSet
EndChar

StartChar: A
Encoding: 65 65 34
Width: 678
VWidth: 1504
Flags: W
HStem: 0 21G<-2 108.782 568.05 680> 239 81<229 445> 707 20G<290.719 389.226>
DStem2: 299 727 229 320 0.382539 0.923939<-747.447 -491.049 -402.821 -402.821> 680 0 481 239 0.380366 -0.924836<-296.729 -39.5581>
LayerCount: 3
Fore
SplineSet
680 0 m 1
 576 0 l 1
 481 239 l 1
 194 239 l 1
 101 0 l 1
 -2 0 l 1
 299 727 l 1
 381 727 l 1
 680 0 l 1
445 320 m 1
 340 618 l 1
 229 320 l 1
 445 320 l 1
EndSplineSet
Validated: 1
Layer: 2
SplineSet
680 0 m 1,0,-1
 576 0 l 1,1,-1
 481 239 l 1,2,-1
 194 239 l 1,3,-1
 101 0 l 1,4,-1
 -2 0 l 1,5,-1
 299 727 l 1,6,-1
 381 727 l 1,7,-1
 680 0 l 1,0,-1
445 320 m 1,8,-1
 340 618 l 1,9,-1
 229 320 l 1,10,-1
 445 320 l 1,8,-1
EndSplineSet
EndChar

StartChar: B
Encoding: 66 66 35
Width: 595
VWidth: 1504
Flags: W
HStem: -9 81<170.864 372.296> 338 80<170 368.406> 642 83<171.9 368.609>
VStem: 75 95<74.1995 338 418 639.891> 427 95<469.683 595.153> 457 94<139.691 273.048>
LayerCount: 3
Back
SplineSet
551 208 m 0xf4
 551 63.3333 444.667 -9 232 -9 c 0
 186.667 -9 134.333 -2.33333 75 11 c 1
 75 702 l 1
 137 717.333 194.333 725 247 725 c 0
 430.333 725 522 661.667 522 535 c 0xf8
 522 471 492 420.667 432 384 c 1
 511.333 346.667 551 288 551 208 c 0xf4
427 534 m 0
 427 606 367 642 247 642 c 0
 225.667 642 200 640.667 170 638 c 1
 170 418 l 1
 277 418 l 2
 321 418 357 428.333 385 449 c 0
 413 469.667 427 498 427 534 c 0
457 206 m 0xf4
 457 254 434 289.667 388 313 c 0
 352.667 330.335 309 338.668 257 338 c 2
 170 338 l 1
 170 77 l 1
 187.333 73.6667 212.333 72 245 72 c 0
 310.333 72 362 83.5 400 106.5 c 0
 438 129.5 457 162.667 457 206 c 0xf4
EndSplineSet
Fore
SplineSet
551 208 m 3xf4
 551 63 445 -9 232 -9 c 3
 187 -9 134 -2 75 11 c 1
 75 702 l 1
 137 717 194 725 247 725 c 3
 430 725 522 662 522 535 c 3xf8
 522 471 492 421 432 384 c 1
 511 347 551 288 551 208 c 3xf4
277 418 m 2
 357 418 427 457 427 534 c 3
 427 606 367 642 247 642 c 3
 226 642 200 641 170 638 c 1
 170 418 l 1
 277 418 l 2
245 72 m 3
 355 72 457 106 457 206 c 3xf4
 457 300 362 338 257 338 c 2
 170 338 l 1
 170 77 l 1
 187 74 212 72 245 72 c 3
EndSplineSet
Validated: 1
Layer: 2
SplineSet
551 208 m 3,0,1
 551 -9 551 -9 232 -9 c 0,2,3
 166 -9 166 -9 75 11 c 1,4,-1
 75 702 l 1,5,6
 170 725 170 725 247 725 c 0,7,8
 522 725 522 725 522 535 c 0,9,10
 522 440 522 440 432 384 c 1,11,12
 551 328 551 328 551 208 c 3,0,1
277 418 m 2,13,14
 341 418 341 418 384 448.5 c 128,-1,15
 427 479 427 479 427 534 c 0,16,17
 427 642 427 642 247 642 c 0,18,19
 210 642 210 642 170 638 c 1,20,-1
 170 418 l 1,21,-1
 277 418 l 2,13,14
245 72 m 3,22,23
 337 72 337 72 397 104 c 128,-1,24
 457 136 457 136 457 206 c 0,25,26
 457 272 457 272 400 305 c 128,-1,27
 343 338 343 338 257 338 c 2,28,-1
 170 338 l 1,29,-1
 170 77 l 1,30,31
 198 72 198 72 245 72 c 3,22,23
EndSplineSet
EndChar

StartChar: C
Encoding: 67 67 36
Width: 649
VWidth: 1504
Flags: W
HStem: -11 82<275.591 531.584> 608 21G<557 595> 645 82<278.928 542.844>
VStem: 39 96<228.451 489.086>
LayerCount: 3
Back
SplineSet
617 38 m 1
 543.667 6 456.333 -10.3333 355 -11 c 0
 259.667 -11 183.167 23 125.5 91 c 0
 67.8333 159 39 247.333 39 356 c 0
 39 464 67 551.334 123 618 c 0
 185 690 272 726.333 384 727 c 0
 469.333 727 547 712.333 617 683 c 1
 587 608 l 1
 527 633.333 460.333 645.667 387 645 c 0
 295 645 227.333 611 184 543 c 0
 152 493 135.667 429.667 135 353 c 0
 135 283 152.667 222 188 170 c 0
 232 104 294.333 71 375 71 c 0
 458.334 71 530.334 86 591 116 c 1
 617 38 l 1
EndSplineSet
Fore
SplineSet
39 356 m 3
 39 578 166 727 384 727 c 3
 469 727 547 712 617 683 c 1
 587 608 l 1
 527 633 460 645 387 645 c 3
 222 645 135 533 135 353 c 3
 135 191 228 71 375 71 c 3
 458 71 530 86 591 116 c 1
 617 38 l 1
 544 6 456 -11 355 -11 c 3
 155 -11 39 151 39 356 c 3
EndSplineSet
Validated: 1
Layer: 2
SplineSet
39 356 m 3,0,1
 39 525 39 525 131 626 c 128,-1,2
 223 727 223 727 384 727 c 0,3,4
 511 727 511 727 617 683 c 1,5,-1
 587 608 l 1,6,7
 498 645 498 645 387 645 c 0,8,9
 265 645 265 645 200 567.5 c 128,-1,10
 135 490 135 490 135 353 c 0,11,12
 135 230 135 230 200.5 150.5 c 128,-1,13
 266 71 266 71 375 71 c 0,14,15
 499.5 71 499.5 71 591 116 c 1,16,-1
 617 38 l 1,17,18
 505 -11 505 -11 355 -11 c 0,19,20
 209 -11 209 -11 124 93 c 128,-1,21
 39 197 39 197 39 356 c 3,0,1
EndSplineSet
EndChar

StartChar: D
Encoding: 68 68 37
Width: 690
VWidth: 1504
Flags: W
HStem: -6 81<171.987 409.446> 642 82<171.933 422.814>
VStem: 75 95<78.304 635.109> 555 96<237.94 504.525>
LayerCount: 3
Back
SplineSet
651 373 m 0
 651 265 625 178.333 573 113 c 0
 509 33.6667 410.333 -6 277 -6 c 0
 235.667 -6 168.333 -1 75 9 c 1
 75 704 l 1
 189 717.333 266.333 724 307 724 c 0
 429.667 724 520.333 687.333 579 614 c 0
 627 554.667 651 474.333 651 373 c 0
555 373 m 0
 555 552.333 470.667 642 302 642 c 0
 274 642 230 639 170 633 c 1
 170 80 l 1
 203.333 76.6667 245 75 295 75 c 0
 392.333 75 463 109.667 507 179 c 0
 539 230.333 555 295 555 373 c 0
EndSplineSet
Fore
SplineSet
307 724 m 3
 529 724 651 598 651 373 c 3
 651 131 518 -6 277 -6 c 3
 236 -6 168 -1 75 9 c 1
 75 704 l 1
 189 717 266 724 307 724 c 3
555 373 m 3
 555 552 471 642 302 642 c 3
 274 642 230 639 170 633 c 1
 170 80 l 1
 203 77 245 75 295 75 c 3
 468 75 555 193 555 373 c 3
EndSplineSet
Validated: 1
Layer: 2
SplineSet
307 724 m 3,0,1
 473 724 473 724 562 633 c 128,-1,2
 651 542 651 542 651 373 c 0,3,4
 651 191 651 191 554 92.5 c 128,-1,5
 457 -6 457 -6 277 -6 c 0,6,7
 214 -6 214 -6 75 9 c 1,8,-1
 75 704 l 1,9,10
 250 724 250 724 307 724 c 3,0,1
555 373 m 3,11,12
 555 642 555 642 302 642 c 0,13,14
 260 642 260 642 170 633 c 1,15,-1
 170 80 l 1,16,17
 225 75 225 75 295 75 c 0,18,19
 422 75 422 75 488.5 155 c 128,-1,20
 555 235 555 235 555 373 c 3,11,12
EndSplineSet
EndChar

StartChar: E
Encoding: 69 69 38
Width: 538
VWidth: 1504
Flags: W
HStem: 0 81<170 501> 337 81<170 465> 635 81<170 501>
VStem: 75 95<81 337 418 635>
LayerCount: 3
Fore
SplineSet
501 0 m 1
 75 0 l 1
 75 716 l 1
 501 716 l 1
 501 635 l 1
 170 635 l 1
 170 418 l 1
 465 418 l 1
 465 337 l 1
 170 337 l 1
 170 81 l 1
 501 81 l 1
 501 0 l 1
EndSplineSet
Validated: 1
Layer: 2
SplineSet
501 0 m 1,0,-1
 75 0 l 1,1,-1
 75 716 l 1,2,-1
 501 716 l 1,3,-1
 501 635 l 1,4,-1
 170 635 l 1,5,-1
 170 418 l 1,6,-1
 465 418 l 1,7,-1
 465 337 l 1,8,-1
 170 337 l 1,9,-1
 170 81 l 1,10,-1
 501 81 l 1,11,-1
 501 0 l 1,0,-1
EndSplineSet
EndChar

StartChar: F
Encoding: 70 70 39
Width: 538
VWidth: 1504
Flags: W
HStem: 0 21G<75 170> 329 80<170 495> 635 81<170 516>
VStem: 75 95<0 329 409 635>
LayerCount: 3
Fore
SplineSet
170 0 m 1
 75 0 l 1
 75 716 l 1
 516 716 l 1
 516 635 l 1
 170 635 l 1
 170 409 l 1
 495 409 l 1
 495 329 l 1
 170 329 l 1
 170 0 l 1
EndSplineSet
Validated: 1
Layer: 2
SplineSet
170 0 m 1,0,-1
 75 0 l 1,1,-1
 75 716 l 1,2,-1
 516 716 l 1,3,-1
 516 635 l 1,4,-1
 170 635 l 1,5,-1
 170 409 l 1,6,-1
 495 409 l 1,7,-1
 495 329 l 1,8,-1
 170 329 l 1,9,-1
 170 0 l 1,0,-1
EndSplineSet
EndChar

StartChar: G
Encoding: 71 71 40
Width: 682
VWidth: 1504
Flags: W
HStem: -11 82<275.591 520.626> 298 80<347 528> 608 21G<557 595> 645 82<278.928 542.844>
VStem: 39 96<228.233 489.74> 528 95<88.0859 298>
LayerCount: 3
Back
SplineSet
623 17 m 1
 575 29 l 1
 517 3 443.667 -10.3333 355 -11 c 0
 259.667 -11 183.167 23 125.5 91 c 0
 67.8333 159 39 247.333 39 356 c 0
 39 464 67 551.334 123 618 c 0
 185 690 272 726.333 384 727 c 0
 469.333 727 547 712.333 617 683 c 1
 587 608 l 1
 527 633.333 460.333 645.667 387 645 c 0
 295 645 227.333 611 184 543 c 0
 152 493 135.667 429.667 135 353 c 0
 135 283 152.667 222 188 170 c 0
 232 104 294.333 71 375 71 c 0
 434.333 71 485.333 79 528 95 c 1
 528 298 l 1
 347 298 l 1
 347 378 l 1
 623 378 l 1
 623 17 l 1
EndSplineSet
Fore
SplineSet
39 356 m 3
 39 578 166 727 384 727 c 3
 469 727 547 712 617 683 c 1
 587 608 l 1
 527 633 460 645 387 645 c 3
 222 645 135 536 135 353 c 3
 135 190 228 71 375 71 c 3
 434 71 485 79 528 95 c 1
 528 298 l 1
 347 298 l 1
 347 378 l 1
 623 378 l 1
 623 17 l 1
 575 29 l 1
 517 3 444 -11 355 -11 c 3
 155 -11 39 151 39 356 c 3
EndSplineSet
Validated: 1
Layer: 2
SplineSet
39 356 m 3,0,1
 39 525 39 525 131 626 c 128,-1,2
 223 727 223 727 384 727 c 0,3,4
 511 727 511 727 617 683 c 1,5,-1
 587 608 l 1,6,7
 498 645 498 645 387 645 c 0,8,9
 265 645 265 645 200 568.5 c 128,-1,10
 135 492 135 492 135 353 c 0,11,12
 135 229 135 229 200.5 150 c 128,-1,13
 266 71 266 71 375 71 c 0,14,15
 463.5 71 463.5 71 528 95 c 1,16,-1
 528 298 l 1,17,-1
 347 298 l 1,18,-1
 347 378 l 1,19,-1
 623 378 l 1,20,-1
 623 17 l 1,21,-1
 575 29 l 1,22,23
 486 -11 486 -11 355 -11 c 0,24,25
 209 -11 209 -11 124 93 c 128,-1,26
 39 197 39 197 39 356 c 3,0,1
EndSplineSet
EndChar

StartChar: H
Encoding: 72 72 41
Width: 709
VWidth: 1504
Flags: W
HStem: 0 21G<75 170 540 635> 340 81<170 540> 696 20G<75 170 540 635>
VStem: 75 95<0 340 421 716> 540 95<0 340 421 716>
LayerCount: 3
Fore
SplineSet
635 0 m 1
 540 0 l 1
 540 340 l 1
 170 340 l 1
 170 0 l 1
 75 0 l 1
 75 716 l 1
 170 716 l 1
 170 421 l 1
 540 421 l 1
 540 716 l 1
 635 716 l 1
 635 0 l 1
EndSplineSet
Validated: 1
Layer: 2
SplineSet
635 0 m 1,0,-1
 540 0 l 1,1,-1
 540 340 l 1,2,-1
 170 340 l 1,3,-1
 170 0 l 1,4,-1
 75 0 l 1,5,-1
 75 716 l 1,6,-1
 170 716 l 1,7,-1
 170 421 l 1,8,-1
 540 421 l 1,9,-1
 540 716 l 1,10,-1
 635 716 l 1,11,-1
 635 0 l 1,0,-1
EndSplineSet
EndChar

StartChar: I
Encoding: 73 73 42
Width: 245
VWidth: 1504
Flags: W
HStem: 0 21G<75 170> 696 20G<75 170>
VStem: 75 95<0 716>
LayerCount: 3
Fore
SplineSet
170 0 m 1
 75 0 l 1
 75 716 l 1
 170 716 l 1
 170 0 l 1
EndSplineSet
Validated: 1
Layer: 2
SplineSet
170 0 m 1,0,-1
 75 0 l 1,1,-1
 75 716 l 1,2,-1
 170 716 l 1,3,-1
 170 0 l 1,0,-1
EndSplineSet
EndChar

StartChar: J
Encoding: 74 74 43
Width: 424
VWidth: 1504
Flags: W
HStem: -14 82<22.6663 199.271> 696 20G<254 349>
VStem: 254 95<129.859 716>
LayerCount: 3
Back
SplineSet
349 241 m 2
 349 71.6667 272.333 -13.3333 119 -14 c 0
 79.6667 -14 37 -4.33333 -9 15 c 1
 17 93 l 1
 46.3333 75.6667 80.3333 67.3333 119 68 c 0
 166.333 68 200.667 82 222 110 c 0
 243.333 138 254 186.667 254 256 c 2
 254 716 l 1
 349 716 l 1
 349 241 l 2
EndSplineSet
Fore
SplineSet
119 68 m 3
 228 68 254 136 254 256 c 2
 254 716 l 1
 349 716 l 1
 349 241 l 2
 349 72 272 -14 119 -14 c 3
 80 -14 37 -4 -9 15 c 1
 17 93 l 1
 46 76 80 68 119 68 c 3
EndSplineSet
Validated: 1
Layer: 2
SplineSet
119 68 m 3,0,1
 197 68 197 68 225.5 113.5 c 128,-1,2
 254 159 254 159 254 256 c 2,3,-1
 254 716 l 1,4,-1
 349 716 l 1,5,-1
 349 241 l 2,6,7
 349 -14 349 -14 119 -14 c 0,8,9
 61 -14 61 -14 -9 15 c 1,10,-1
 17 93 l 1,11,12
 60 68 60 68 119 68 c 3,0,1
EndSplineSet
EndChar

StartChar: K
Encoding: 75 75 44
Width: 618
VWidth: 1504
Flags: W
HStem: 0 10G<75 170 521.535 591.941> 696 20G<75 170 490.207 587.667>
VStem: 75 95<0 287 400 716>
DStem2: 170 400 229 344 0.720289 0.693674<0 3.65135 94.145 473.144> 293 408 229 344 0.657534 -0.753425<6.13699 477.438>
LayerCount: 3
Fore
SplineSet
629 23 m 1
 539 -11 l 1
 229 344 l 1
 170 287 l 1
 170 0 l 1
 75 0 l 1
 75 716 l 1
 170 716 l 1
 170 400 l 1
 511 728 l 1
 603 704 l 1
 293 408 l 1
 629 23 l 1
EndSplineSet
Validated: 1
Layer: 2
SplineSet
629 23 m 1,0,-1
 539 -11 l 1,1,-1
 229 344 l 1,2,-1
 170 287 l 1,3,-1
 170 0 l 1,4,-1
 75 0 l 1,5,-1
 75 716 l 1,6,-1
 170 716 l 1,7,-1
 170 400 l 1,8,-1
 511 728 l 1,9,-1
 603 704 l 1,10,-1
 293 408 l 1,11,-1
 629 23 l 1,0,-1
EndSplineSet
EndChar

StartChar: L
Encoding: 76 76 45
Width: 540
VWidth: 1504
Flags: W
HStem: 0 81<170 520> 696 20G<75 170>
VStem: 75 95<81 716>
LayerCount: 3
Fore
SplineSet
520 0 m 1
 75 0 l 1
 75 716 l 1
 170 716 l 1
 170 81 l 1
 520 81 l 1
 520 0 l 1
EndSplineSet
Validated: 1
Layer: 2
SplineSet
520 0 m 1,0,-1
 75 0 l 1,1,-1
 75 716 l 1,2,-1
 170 716 l 1,3,-1
 170 81 l 1,4,-1
 520 81 l 1,5,-1
 520 0 l 1,0,-1
EndSplineSet
EndChar

StartChar: M
Encoding: 77 77 46
Width: 863
VWidth: 1504
Flags: W
HStem: 0 21G<44 136.405 391.856 471.144 726.595 820> 696 20G<93.5754 201.987 661.047 770.425>
DStem2: 44 0 135 0 0.071049 0.997473<6.46546 562.834> 194 716 174 555 0.370853 -0.928691<142.102 641.763> 432 120 463 0 0.369508 0.929227<0 499.178> 769 716 689 555 0.071049 -0.997473<154.909 711.278>
LayerCount: 3
Fore
SplineSet
820 0 m 1
 728 0 l 1
 689 555 l 1
 463 0 l 1
 400 0 l 1
 174 555 l 1
 135 0 l 1
 44 0 l 1
 95 716 l 1
 194 716 l 1
 432 120 l 1
 669 716 l 1
 769 716 l 1
 820 0 l 1
EndSplineSet
Validated: 1
Layer: 2
SplineSet
820 0 m 1,0,-1
 728 0 l 1,1,-1
 689 555 l 1,2,-1
 463 0 l 1,3,-1
 400 0 l 1,4,-1
 174 555 l 1,5,-1
 135 0 l 1,6,-1
 44 0 l 1,7,-1
 95 716 l 1,8,-1
 194 716 l 1,9,-1
 432 120 l 1,10,-1
 669 716 l 1,11,-1
 769 716 l 1,12,-1
 820 0 l 1,0,-1
EndSplineSet
EndChar

StartChar: N
Encoding: 78 78 47
Width: 709
VWidth: 1504
Flags: W
HStem: 0 21G<75 170 532.091 635> 696 20G<75 183.074 540 635>
VStem: 75 95<0 581> 540 95<150 716>
DStem2: 170 716 170 581 0.542292 -0.84019<113.426 676.196>
LayerCount: 3
Fore
SplineSet
635 0 m 1
 545 0 l 1
 170 581 l 1
 170 0 l 1
 75 0 l 1
 75 716 l 1
 170 716 l 1
 540 150 l 1
 540 716 l 1
 635 716 l 1
 635 0 l 1
EndSplineSet
Validated: 1
Layer: 2
SplineSet
635 0 m 1,0,-1
 545 0 l 1,1,-1
 170 581 l 1,2,-1
 170 0 l 1,3,-1
 75 0 l 1,4,-1
 75 716 l 1,5,-1
 170 716 l 1,6,-1
 540 150 l 1,7,-1
 540 716 l 1,8,-1
 635 716 l 1,9,-1
 635 0 l 1,0,-1
EndSplineSet
EndChar

StartChar: O
Encoding: 79 79 48
Width: 779
VWidth: 1504
Flags: W
HStem: -15 83<289.339 490.17> 648 82<289.339 490.346>
VStem: 39 93<237.89 478.012> 647 93<238.083 478.012>
LayerCount: 3
Back
SplineSet
647 358 m 256
 647 440 623.333 508.833 576 564.5 c 0
 528.666 620.167 466.666 648 390 648 c 256
 312.667 648 250.333 620.167 203 564.5 c 0
 155.667 508.833 132 440 132 358 c 256
 132 276 155.667 207.167 203 151.5 c 0
 250.333 95.8333 312.667 68 390 68 c 256
 467.333 68 529.5 95.8334 576.5 151.5 c 0
 623.5 207.167 647 276 647 358 c 256
740 356 m 256
 740 250.667 707.5 162.5 642.5 91.5 c 0
 577.5 20.5 493.333 -15 390 -15 c 256
 286.667 -15 202.333 20.6667 137 92 c 0
 71.6667 163.333 39 251.333 39 356 c 256
 39 461.333 71.6667 550 137 622 c 0
 202.333 694 286.667 730 390 730 c 256
 493.333 730 577.5 694 642.5 622 c 0
 707.5 550 740 461.333 740 356 c 256
EndSplineSet
Fore
SplineSet
647 358 m 259
 647 516 546 648 390 648 c 259
 233 648 132 516 132 358 c 259
 132 200 233 68 390 68 c 259
 546 68 647 200 647 358 c 259
740 356 m 259
 740 150 596 -15 390 -15 c 259
 183 -15 39 149 39 356 c 259
 39 572 183 730 390 730 c 259
 597 730 740 572 740 356 c 259
EndSplineSet
Validated: 1
Layer: 2
SplineSet
647 358 m 259,0,1
 647 480 647 480 575.5 564 c 128,-1,2
 504 648 504 648 390 648 c 0,3,4
 275 648 275 648 203.5 564 c 128,-1,5
 132 480 132 480 132 358 c 128,-1,6
 132 236 132 236 203.5 152 c 128,-1,7
 275 68 275 68 390 68 c 0,8,9
 504 68 504 68 575.5 152 c 128,-1,10
 647 236 647 236 647 358 c 259,0,1
740 356 m 259,11,12
 740 199 740 199 641 92 c 128,-1,13
 542 -15 542 -15 390 -15 c 0,14,15
 237 -15 237 -15 138 92 c 128,-1,16
 39 199 39 199 39 356 c 0,17,18
 39 519 39 519 137.5 624.5 c 128,-1,19
 236 730 236 730 390 730 c 128,-1,20
 544 730 544 730 642 624.5 c 128,-1,21
 740 519 740 519 740 356 c 259,11,12
EndSplineSet
EndChar

StartChar: P
Encoding: 80 80 49
Width: 586
VWidth: 1504
Flags: W
HStem: 0 21G<75 170> 278 82<171.427 375.442> 642 82<171.118 382.648>
VStem: 75 95<0 283 365.493 639.793> 454 95<425.637 578.683>
LayerCount: 3
Back
SplineSet
549 510 m 0
 549 440.667 521.167 384.667 465.5 342 c 0
 409.833 299.333 336.333 278 245 278 c 0
 221.667 278 196.667 279.667 170 283 c 1
 170 0 l 1
 75 0 l 1
 75 705 l 1
 147 717 210.667 723.333 266 724 c 0
 354 724 423.167 704.167 473.5 664.5 c 0
 523.833 624.833 549 573.333 549 510 c 0
454 505 m 0
 454 596.333 391 642 265 642 c 0
 231 642 199.333 640.667 170 638 c 1
 170 369 l 1
 204 363 232.667 360 256 360 c 0
 388 359.333 454 407.667 454 505 c 0
EndSplineSet
Fore
SplineSet
266 724 m 3
 420 724 549 653 549 510 c 3
 549 357 407 278 245 278 c 3
 222 278 197 280 170 283 c 1
 170 0 l 1
 75 0 l 1
 75 705 l 1
 147 717 211 724 266 724 c 3
454 505 m 3
 454 596 391 642 265 642 c 3
 231 642 199 641 170 638 c 1
 170 369 l 1
 204 363 233 360 256 360 c 3
 388 360 454 408 454 505 c 3
EndSplineSet
Validated: 1
Layer: 2
SplineSet
266 724 m 3,0,1
 388 724 388 724 468.5 668.5 c 128,-1,2
 549 613 549 613 549 510 c 0,3,4
 549 400 549 400 461.5 339 c 128,-1,5
 374 278 374 278 245 278 c 0,6,7
 215 278 215 278 170 283 c 1,8,-1
 170 0 l 1,9,-1
 75 0 l 1,10,-1
 75 705 l 1,11,12
 189 724 189 724 266 724 c 3,0,1
454 505 m 3,13,14
 454 642 454 642 265 642 c 0,15,16
 209 642 209 642 170 638 c 1,17,-1
 170 369 l 1,18,19
 221 360 221 360 256 360 c 0,20,21
 454 360 454 360 454 505 c 3,13,14
EndSplineSet
EndChar

StartChar: Q
Encoding: 81 81 50
Width: 779
VWidth: 1504
Flags: W
HStem: -15 83<289.417 476.386> 648 82<289.339 490.346>
VStem: 39 93<237.89 476.271> 647 93<240.018 476.271>
LayerCount: 3
Back
SplineSet
647 358 m 256
 647 440 623.333 508.833 576 564.5 c 0
 528.666 620.167 466.666 648 390 648 c 256
 312.667 648 250.333 620.167 203 564.5 c 0
 155.667 508.833 132 440 132 358 c 256
 132 276 155.667 207.167 203 151.5 c 0
 250.333 95.8333 312.667 68 390 68 c 256
 467.333 68 529.5 95.8334 576.5 151.5 c 0
 623.5 207.167 647 276 647 358 c 256
740 356 m 0
 740 276 721.167 206.667 683.5 148 c 0
 645.833 89.3333 594 48.6667 528 26 c 1
 528 20 l 1
 608 0 680.667 -15.3333 746 -26 c 1
 716 -107 l 1
 640 -87 544.333 -58.3333 429 -21 c 0
 423.667 -19 410.667 -17 390 -15 c 1
 286.667 -15 202.333 20.6667 137 92 c 0
 71.6667 163.333 39 251.333 39 356 c 256
 39 461.333 71.6667 550 137 622 c 0
 202.333 694 286.667 730 390 730 c 256
 493.333 730 577.5 694 642.5 622 c 0
 707.5 550 740 461.333 740 356 c 0
EndSplineSet
Fore
SplineSet
647 358 m 259
 647 516 546 648 390 648 c 259
 233 648 132 516 132 358 c 259
 132 200 233 68 390 68 c 259
 546 68 647 200 647 358 c 259
740 356 m 3
 740 190 654 69 528 26 c 1
 528 20 l 1
 608 0 681 -15 746 -26 c 1
 716 -107 l 1
 640 -87 544 -58 429 -21 c 0
 424 -19 411 -17 390 -15 c 1
 183 -15 39 149 39 356 c 259
 39 563 183 730 390 730 c 259
 597 730 740 563 740 356 c 3
EndSplineSet
Validated: 1
Layer: 2
SplineSet
647 358 m 259,0,1
 647 480 647 480 575.5 564 c 128,-1,2
 504 648 504 648 390 648 c 0,3,4
 275 648 275 648 203.5 564 c 128,-1,5
 132 480 132 480 132 358 c 128,-1,6
 132 236 132 236 203.5 152 c 128,-1,7
 275 68 275 68 390 68 c 0,8,9
 504 68 504 68 575.5 152 c 128,-1,10
 647 236 647 236 647 358 c 259,0,1
740 356 m 3,11,12
 740 234 740 234 682 146.5 c 128,-1,13
 624 59 624 59 528 26 c 1,14,-1
 528 20 l 1,15,16
 641 -8 641 -8 746 -26 c 1,17,-1
 716 -107 l 1,18,19
 608 -79 608 -79 429 -21 c 0,20,21
 421.5 -18 421.5 -18 390 -15 c 0,22,23
 237 -15 237 -15 138 92 c 128,-1,24
 39 199 39 199 39 356 c 0,25,26
 39 514 39 514 138 622 c 128,-1,27
 237 730 237 730 390 730 c 128,-1,28
 543 730 543 730 641.5 622 c 128,-1,29
 740 514 740 514 740 356 c 3,11,12
EndSplineSet
EndChar

StartChar: R
Encoding: 82 82 51
Width: 594
VWidth: 1504
Flags: W
HStem: 0 21G<75 170 463.5 572> 311 79<170 356.212> 641 83<171.378 388.979>
VStem: 75 95<0 311 390 638.047> 456 92<443.361 583.032> 477 95<0 113.383>
LayerCount: 3
Back
SplineSet
572 0 m 1xf4
 477 0 l 1xf4
 449.667 207.333 387.333 311 290 311 c 2
 170 311 l 1
 170 0 l 1
 75 0 l 1
 75 704 l 1
 147 717.333 211.667 724 269 724 c 0
 354.334 724 422.167 705.833 472.5 669.5 c 0
 522.833 633.167 548 584 548 522 c 0xf8
 548 440 508.667 380.667 430 344 c 1
 467.333 318.667 496.333 282 517 234 c 0
 537.667 186 556 108 572 0 c 1xf4
456 516 m 0xf8
 456 599.333 393.667 641 269 641 c 0
 229 641 196 639.333 170 636 c 1
 170 390 l 1
 286 390 l 2
 399.333 390 456 432 456 516 c 0xf8
EndSplineSet
Fore
SplineSet
269 724 m 3xf4
 418 724 548 661 548 522 c 3xf8
 548 440 509 381 430 344 c 1
 526 279 547 167 572 0 c 1
 477 0 l 1
 450 207 387 311 290 311 c 2
 170 311 l 1
 170 0 l 1
 75 0 l 1
 75 704 l 1
 147 717 212 724 269 724 c 3xf4
456 516 m 3
 456 599 394 641 269 641 c 3
 229 641 196 639 170 636 c 1
 170 390 l 1
 286 390 l 2
 399 390 456 432 456 516 c 3
EndSplineSet
Validated: 1
Layer: 2
SplineSet
269 724 m 3,0,1
 389 724 389 724 468.5 672.5 c 128,-1,2
 548 621 548 621 548 522 c 0,3,4
 548 399 548 399 430 344 c 1,5,6
 496 300 496 300 523 224 c 128,-1,7
 550 148 550 148 572 0 c 1,8,-1
 477 0 l 1,9,10
 436 311 436 311 290 311 c 2,11,-1
 170 311 l 1,12,-1
 170 0 l 1,13,-1
 75 0 l 1,14,-1
 75 704 l 1,15,16
 186 724 186 724 269 724 c 3,0,1
456 516 m 3,17,18
 456 641 456 641 269 641 c 0,19,20
 213 641 213 641 170 636 c 1,21,-1
 170 390 l 1,22,-1
 286 390 l 2,23,24
 456 390 456 390 456 516 c 3,17,18
EndSplineSet
EndChar

StartChar: S
Encoding: 83 83 52
Width: 549
VWidth: 1504
Flags: W
HStem: -14 86<144.988 353.586> 606 21G<417 452.933> 644 86<205.584 404.045>
VStem: 57 95<484.629 598.057> 414 96<126.291 253.67>
LayerCount: 3
Back
SplineSet
510 196 m 0
 510 134 485.167 83.5 435.5 44.5 c 0
 385.833 5.5 324 -14 250 -14 c 0
 170.667 -14 97 7.66667 29 51 c 1
 69 137 l 1
 126.333 93.6666 188.667 72 256 72 c 0
 305.333 72 344 82.8333 372 104.5 c 0
 400 126.167 414 155 414 191 c 0
 414 251 365.667 296.667 269 328 c 0
 127.667 373.333 57 442.333 57 535 c 0
 57 591 79.3333 637.5 124 674.5 c 0
 168.667 711.5 226.667 730 298 730 c 256
 369.333 730 431 713.667 483 681 c 1
 442 606 l 1
 392 631.333 343.333 644 296 644 c 0
 252.667 644 217.833 634.167 191.5 614.5 c 0
 165.167 594.833 152 571 152 543 c 0
 152 487.667 200 444.667 296 414 c 0
 374 388.667 429.167 359.5 461.5 326.5 c 0
 493.833 293.5 510 250 510 196 c 0
EndSplineSet
Fore
SplineSet
57 535 m 3
 57 657 170 730 298 730 c 259
 369 730 431 714 483 681 c 1
 442 606 l 1
 392 631 343 644 296 644 c 3
 224 644 152 609 152 543 c 3
 152 488 200 445 296 414 c 0
 419 375 510 322 510 196 c 3
 510 64 386 -14 250 -14 c 3
 171 -14 97 8 29 51 c 1
 69 137 l 1
 126 94 189 72 256 72 c 3
 343 72 414 110 414 191 c 3
 414 251 366 297 269 328 c 0
 128 373 57 442 57 535 c 3
EndSplineSet
Validated: 1
Layer: 2
SplineSet
57 535 m 3,0,1
 57 623 57 623 127.5 676.5 c 128,-1,2
 198 730 198 730 298 730 c 0,3,4
 406 730 406 730 483 681 c 1,5,-1
 442 606 l 1,6,7
 366 644 366 644 296 644 c 0,8,9
 238 644 238 644 195 617 c 128,-1,10
 152 590 152 590 152 543 c 0,11,12
 152 460.5 152 460.5 296 414 c 0,13,14
 400 381 400 381 455 332.5 c 128,-1,15
 510 284 510 284 510 196 c 0,16,17
 510 101 510 101 433.5 43.5 c 128,-1,18
 357 -14 357 -14 250 -14 c 0,19,20
 132 -14 132 -14 29 51 c 1,21,-1
 69 137 l 1,22,23
 155 72 155 72 256 72 c 0,24,25
 325 72 325 72 369.5 102.5 c 128,-1,26
 414 133 414 133 414 191 c 0,27,28
 414 282 414 282 269 328 c 0,29,30
 57 396 57 396 57 535 c 3,0,1
EndSplineSet
EndChar

StartChar: T
Encoding: 84 84 53
Width: 633
VWidth: 1504
Flags: W
HStem: 0 21G<271 366> 635 81<6 271 366 627>
VStem: 271 95<0 635>
LayerCount: 3
Fore
SplineSet
366 0 m 1
 271 0 l 1
 271 635 l 1
 6 635 l 1
 6 716 l 1
 627 716 l 1
 627 635 l 1
 366 635 l 1
 366 0 l 1
EndSplineSet
Validated: 1
Layer: 2
SplineSet
366 0 m 1,0,-1
 271 0 l 1,1,-1
 271 635 l 1,2,-1
 6 635 l 1,3,-1
 6 716 l 1,4,-1
 627 716 l 1,5,-1
 627 635 l 1,6,-1
 366 635 l 1,7,-1
 366 0 l 1,0,-1
EndSplineSet
EndChar

StartChar: U
Encoding: 85 85 54
Width: 725
VWidth: 1504
Flags: W
HStem: -14 82<265.709 459.919> 696 20G<75 171 554 650>
VStem: 75 96<174.541 716> 554 96<174.986 716>
LayerCount: 3
Back
SplineSet
650 305 m 2
 650 92.3333 554.333 -14 363 -14 c 256
 171.667 -14 75.6667 92.3333 75 305 c 2
 75 716 l 1
 171 716 l 1
 171 305 l 2
 171 146.333 235 67.3333 363 68 c 256
 490.333 68 554 147 554 305 c 2
 554 716 l 1
 650 716 l 1
 650 305 l 2
EndSplineSet
Fore
SplineSet
650 305 m 2
 650 92 554 -14 363 -14 c 259
 172 -14 75 92 75 305 c 2
 75 716 l 1
 171 716 l 1
 171 305 l 2
 171 146 235 68 363 68 c 259
 490 68 554 147 554 305 c 2
 554 716 l 1
 650 716 l 1
 650 305 l 2
EndSplineSet
Validated: 1
Layer: 2
SplineSet
650 305 m 2,0,1
 650 -14 650 -14 363 -14 c 0,2,3
 75 -14 75 -14 75 305 c 2,4,-1
 75 716 l 1,5,-1
 171 716 l 1,6,-1
 171 305 l 2,7,8
 171 68 171 68 363 68 c 0,9,10
 554 68 554 68 554 305 c 2,11,-1
 554 716 l 1,12,-1
 650 716 l 1,13,-1
 650 305 l 2,0,1
EndSplineSet
EndChar

StartChar: V
Encoding: 86 86 55
Width: 634
VWidth: 1504
Flags: W
HStem: 0 21G<266.29 368.682> 696 20G<-2 108.359 526.606 636>
DStem2: 101 716 -2 716 0.359678 -0.933077<0 625.406> 317 129 361 0 0.358542 0.933514<0 625.776>
LayerCount: 3
Fore
SplineSet
361 0 m 1
 274 0 l 1
 -2 716 l 1
 101 716 l 1
 317 129 l 1
 534 716 l 1
 636 716 l 1
 361 0 l 1
EndSplineSet
Validated: 1
Layer: 2
SplineSet
361 0 m 1,0,-1
 274 0 l 1,1,-1
 -2 716 l 1,2,-1
 101 716 l 1,3,-1
 317 129 l 1,4,-1
 534 716 l 1,5,-1
 636 716 l 1,6,-1
 361 0 l 1,0,-1
EndSplineSet
EndChar

StartChar: W
Encoding: 87 87 56
Width: 920
VWidth: 1504
Flags: W
HStem: 0 21G<187.441 286.154 634.812 733.559> 696 20G<-6 102.895 408.811 511.224 818.105 927>
DStem2: 238 144 280 0 0.294086 0.955779<0 486.786> 505 716 460 585 0.295577 -0.955319<111.846 599.055>
LayerCount: 3
Fore
SplineSet
728 0 m 1
 641 0 l 1
 460 585 l 1
 280 0 l 1
 193 0 l 1
 -6 716 l 1
 98 716 l 1
 238 144 l 1
 415 716 l 1
 505 716 l 1
 683 144 l 1
 823 716 l 1
 927 716 l 1
 728 0 l 1
EndSplineSet
Validated: 1
Layer: 2
SplineSet
728 0 m 1,0,-1
 641 0 l 1,1,-1
 460 585 l 1,2,-1
 280 0 l 1,3,-1
 193 0 l 1,4,-1
 -6 716 l 1,5,-1
 98 716 l 1,6,-1
 238 144 l 1,7,-1
 415 716 l 1,8,-1
 505 716 l 1,9,-1
 683 144 l 1,10,-1
 823 716 l 1,11,-1
 927 716 l 1,12,-1
 728 0 l 1,0,-1
EndSplineSet
EndChar

StartChar: X
Encoding: 88 88 57
Width: 640
VWidth: 1504
Flags: W
HStem: 0 21G<-2 127.483 516.655 644> 696 20G<9 139.143 503.143 635>
DStem2: -2 0 113 0 0.589111 0.808052<67.7477 425.796 543.772 884.314> 125 716 9 716 0.589111 -0.808052<0 342.899 460.874 817.744>
LayerCount: 3
Fore
SplineSet
644 0 m 1
 531 0 l 1
 323 290 l 1
 113 0 l 1
 -2 0 l 1
 265 367 l 1
 9 716 l 1
 125 716 l 1
 323 436 l 1
 517 716 l 1
 635 716 l 1
 379 367 l 1
 644 0 l 1
EndSplineSet
Validated: 1
Layer: 2
SplineSet
644 0 m 1,0,-1
 531 0 l 1,1,-1
 323 290 l 1,2,-1
 113 0 l 1,3,-1
 -2 0 l 1,4,-1
 265 367 l 1,5,-1
 9 716 l 1,6,-1
 125 716 l 1,7,-1
 323 436 l 1,8,-1
 517 716 l 1,9,-1
 635 716 l 1,10,-1
 379 367 l 1,11,-1
 644 0 l 1,0,-1
EndSplineSet
EndChar

StartChar: Y
Encoding: 89 89 58
Width: 595
VWidth: 1504
Flags: W
HStem: 0 21G<253 346> 696 20G<-9 113.298 483.764 605>
VStem: 253 93<0 313>
DStem2: 101 716 -9 716 0.545061 -0.838396<0 377.886> 299 394 346 314 0.541603 0.840635<0 377.38>
LayerCount: 3
Fore
SplineSet
346 0 m 1
 253 0 l 1
 253 313 l 1
 -9 716 l 1
 101 716 l 1
 299 394 l 1
 496 716 l 1
 605 716 l 1
 346 314 l 1
 346 0 l 1
EndSplineSet
Validated: 1
Layer: 2
SplineSet
346 0 m 1,0,-1
 253 0 l 1,1,-1
 253 313 l 1,2,-1
 -9 716 l 1,3,-1
 101 716 l 1,4,-1
 299 394 l 1,5,-1
 496 716 l 1,6,-1
 605 716 l 1,7,-1
 346 314 l 1,8,-1
 346 0 l 1,0,-1
EndSplineSet
EndChar

StartChar: Z
Encoding: 90 90 59
Width: 678
VWidth: 1504
Flags: W
HStem: 0 81<171 641> 635 81<81 505>
DStem2: 41 60 171 81 0.62799 0.778221<97.9814 738.865>
LayerCount: 3
Fore
SplineSet
641 0 m 1
 41 0 l 1
 41 60 l 1
 505 635 l 1
 65 635 l 1
 81 716 l 1
 636 716 l 1
 636 654 l 1
 171 81 l 1
 659 81 l 1
 641 0 l 1
EndSplineSet
Validated: 1
Layer: 2
SplineSet
641 0 m 1,0,-1
 41 0 l 1,1,-1
 41 60 l 1,2,-1
 505 635 l 1,3,-1
 65 635 l 1,4,-1
 81 716 l 1,5,-1
 636 716 l 1,6,-1
 636 654 l 1,7,-1
 171 81 l 1,8,-1
 659 81 l 1,9,-1
 641 0 l 1,0,-1
EndSplineSet
EndChar

StartChar: bracketleft
Encoding: 91 91 60
Width: 351
VWidth: 1504
Flags: W
HStem: -116 77<158 307> 716 78<158 307>
VStem: 69 238<-116 -39 716 794> 69 89<-39 716>
LayerCount: 3
Fore
SplineSet
307 -116 m 1xe0
 69 -116 l 1
 69 794 l 1
 307 794 l 1
 307 716 l 1xe0
 158 716 l 1
 158 -39 l 1xd0
 307 -39 l 1
 307 -116 l 1xe0
EndSplineSet
Validated: 1
Layer: 2
SplineSet
307 -116 m 1,0,-1
 69 -116 l 1,1,-1
 69 794 l 1,2,-1
 307 794 l 1,3,-1
 307 716 l 1,4,-1
 158 716 l 1,5,-1
 158 -39 l 1,6,-1
 307 -39 l 1,7,-1
 307 -116 l 1,0,-1
EndSplineSet
EndChar

StartChar: backslash
Encoding: 92 92 61
Width: 403
VWidth: 1504
Flags: W
HStem: 707 20G<-33 75.1302>
DStem2: 65 727 -33 727 0.4537 -0.891155<0 817.341>
LayerCount: 3
Fore
SplineSet
454 -41 m 1
 358 -41 l 1
 -33 727 l 1
 65 727 l 1
 454 -41 l 1
EndSplineSet
Validated: 1
Layer: 2
SplineSet
454 -41 m 1,0,-1
 358 -41 l 1,1,-1
 -33 727 l 1,2,-1
 65 727 l 1,3,-1
 454 -41 l 1,0,-1
EndSplineSet
EndChar

StartChar: bracketright
Encoding: 93 93 62
Width: 351
VWidth: 1504
Flags: W
HStem: -116 77<45 194> 716 78<45 194>
VStem: 45 238<-116 -39 716 794> 194 89<-39 716>
LayerCount: 3
Fore
SplineSet
283 -116 m 1xe0
 45 -116 l 1
 45 -39 l 1xe0
 194 -39 l 1
 194 716 l 1xd0
 45 716 l 1
 45 794 l 1
 283 794 l 1
 283 -116 l 1xe0
EndSplineSet
Validated: 1
Layer: 2
SplineSet
283 -116 m 1,0,-1
 45 -116 l 1,1,-1
 45 -39 l 1,2,-1
 194 -39 l 1,3,-1
 194 716 l 1,4,-1
 45 716 l 1,5,-1
 45 794 l 1,6,-1
 283 794 l 1,7,-1
 283 -116 l 1,0,-1
EndSplineSet
EndChar

StartChar: asciicircum
Encoding: 94 94 63
Width: 628
VWidth: 1504
Flags: W
HStem: 702 20G<273.467 369.452>
DStem2: 48 229 146 229 0.430289 0.902691<42.1683 460.061> 360 722 320 609 0.427298 -0.904111<85.0726 503.412>
LayerCount: 3
Fore
SplineSet
593 229 m 1
 495 229 l 1
 320 609 l 1
 146 229 l 1
 48 229 l 1
 283 722 l 1
 360 722 l 1
 593 229 l 1
EndSplineSet
Validated: 1
Layer: 2
SplineSet
593 229 m 1,0,-1
 495 229 l 1,1,-1
 320 609 l 1,2,-1
 146 229 l 1,3,-1
 48 229 l 1,4,-1
 283 722 l 1,5,-1
 360 722 l 1,6,-1
 593 229 l 1,0,-1
EndSplineSet
EndChar

StartChar: underscore
Encoding: 95 95 64
Width: 565
VWidth: 1504
Flags: W
HStem: -263 79<0 566>
LayerCount: 3
Fore
SplineSet
566 -263 m 1
 0 -263 l 1
 0 -184 l 1
 566 -184 l 1
 566 -263 l 1
EndSplineSet
Validated: 1
Layer: 2
SplineSet
566 -263 m 1,0,-1
 0 -263 l 1,1,-1
 0 -184 l 1,2,-1
 566 -184 l 1,3,-1
 566 -263 l 1,0,-1
EndSplineSet
EndChar

StartChar: grave
Encoding: 96 96 65
Width: 315
VWidth: 1504
Flags: W
HStem: 564 173
VStem: 51 199
LayerCount: 3
Fore
SplineSet
250 564 m 1
 177 564 l 1
 51 710 l 1
 137 737 l 1
 250 564 l 1
EndSplineSet
Validated: 1
Layer: 2
SplineSet
250 564 m 1,0,-1
 177 564 l 1,1,-1
 51 710 l 1,2,-1
 137 737 l 1,3,-1
 250 564 l 1,0,-1
EndSplineSet
EndChar

StartChar: a
Encoding: 97 97 66
Width: 552
VWidth: 1504
Flags: W
HStem: -14 83<156.877 316.735> 253 82<217.643 381> 448 78<122.2 334.64>
VStem: 39 96<90.269 197.274> 381 94<118.748 253 335 397.626>
LayerCount: 3
Back
SplineSet
496 5 m 1
 408 -14 l 1
 393 53 l 1
 341.667 9 284 -13.3333 220 -14 c 0
 168.667 -14 126 -0.166666 92 27.5 c 0
 58 55.1667 40.3333 92.6667 39 140 c 1
 39 267.333 153 332.333 381 335 c 1
 371 410.333 329.667 448 257 448 c 0
 203 448 143.333 435.667 78 411 c 1
 68 496 l 1
 136 516 200.667 526 262 526 c 0
 404.667 526 475.667 453 475 307 c 2
 475 137 l 2
 475 99 482 55 496 5 c 1
381 162 m 2
 381 253 l 1
 217.667 249.667 135.667 215 135 149 c 0
 135 95.6666 164.667 69 224 69 c 0
 257.333 69 290.333 77 323 93 c 0
 361.667 111.667 381 134.667 381 162 c 2
EndSplineSet
Fore
SplineSet
220 -14 m 3
 120 -14 39 44 39 140 c 3
 39 267 153 332 381 335 c 1
 371 410 330 448 257 448 c 3
 203 448 143 436 78 411 c 1
 68 496 l 1
 136 516 201 526 262 526 c 3
 405 526 475 453 475 307 c 2
 475 137 l 2
 475 99 482 55 496 5 c 1
 408 -14 l 1
 393 53 l 1
 342 9 284 -14 220 -14 c 3
381 162 m 2
 381 253 l 1
 218 250 135 215 135 149 c 3
 135 96 165 69 224 69 c 3
 286 69 381 107 381 162 c 2
EndSplineSet
Validated: 1
Layer: 2
SplineSet
220 -14 m 3,0,1
 143 -14 143 -14 91 28 c 128,-1,2
 39 70 39 70 39 140 c 0,3,4
 39 330.5 39 330.5 381 335 c 1,5,6
 366 448 366 448 257 448 c 0,7,8
 174 448 174 448 78 411 c 1,9,-1
 68 496 l 1,10,11
 170 526 170 526 262 526 c 0,12,13
 475 526 475 526 475 307 c 2,14,-1
 475 137 l 2,15,16
 475 80 475 80 496 5 c 1,17,-1
 408 -14 l 1,18,-1
 393 53 l 1,19,20
 315 -14 315 -14 220 -14 c 3,0,1
381 162 m 2,21,-1
 381 253 l 1,22,23
 135 248 135 248 135 149 c 0,24,25
 135 69 135 69 224 69 c 0,26,27
 276 69 276 69 328.5 96.5 c 128,-1,28
 381 124 381 124 381 162 c 2,21,-1
EndSplineSet
EndChar

StartChar: b
Encoding: 98 98 67
Width: 654
VWidth: 1504
Flags: W
HStem: -14 83<243.765 434.886> 0 21G<75 166.5> 453 78<266.804 432.57>
VStem: 81 95<127.787 372.814 460 758> 522 93<161.473 361.862>
LayerCount: 3
Back
SplineSet
615 266 m 0x78
 615 184.667 589.667 117.667 539 65 c 0
 488.333 12.3333 426 -14 352 -14 c 256xb8
 278 -14 217.333 9.33333 170 56 c 1
 170 30 168.333 11.3333 165 0 c 1
 75 0 l 1
 79 49.3333 81 95 81 137 c 2
 81 758 l 1
 176 758 l 1
 176 460 l 1
 223.333 507.333 284.667 531 360 531 c 0
 433.334 531 494.167 505.667 542.5 455 c 0
 590.833 404.333 615 341.333 615 266 c 0x78
522 266 m 0
 522 320 506.5 364.667 475.5 400 c 0
 444.5 435.333 402.667 453 350 453 c 0
 308 453 268.5 439 231.5 411 c 0
 194.5 383 176 349.667 176 311 c 2
 176 194 l 2
 176 156 191.5 125.667 222.5 103 c 0
 253.5 80.3333 294 69 344 69 c 0
 400 69 443.667 86.5 475 121.5 c 0
 506.333 156.5 522 204.667 522 266 c 0
EndSplineSet
Fore
SplineSet
615 266 m 3x78
 615 111 505 -14 352 -14 c 259xb8
 278 -14 217 9 170 56 c 1
 170 30 168 11 165 0 c 1
 75 0 l 1
 79 49 81 95 81 137 c 2
 81 758 l 1
 176 758 l 1
 176 460 l 1
 223 507 285 531 360 531 c 3
 507 531 615 413 615 266 c 3x78
344 69 m 3
 460 69 522 148 522 266 c 3
 522 372 456 453 350 453 c 3
 271 453 176 390 176 311 c 2
 176 194 l 2
 176 110 255 69 344 69 c 3
EndSplineSet
Validated: 1
Layer: 2
SplineSet
615 266 m 3,0,1
 615 148 615 148 540 67 c 128,-1,2
 465 -14 465 -14 352 -14 c 0,3,4
 240 -14 240 -14 170 56 c 1,5,6
 170 18 170 18 165 0 c 1,7,-1
 75 0 l 1,8,9
 81 74 81 74 81 137 c 2,10,-1
 81 758 l 1,11,-1
 176 758 l 1,12,-1
 176 460 l 1,13,14
 247 531 247 531 360 531 c 0,15,16
 469 531 469 531 542 454 c 128,-1,17
 615 377 615 377 615 266 c 3,0,1
344 69 m 3,18,19
 429 69 429 69 475.5 122.5 c 128,-1,20
 522 176 522 176 522 266 c 0,21,22
 522 347 522 347 475 400 c 128,-1,23
 428 453 428 453 350 453 c 0,24,25
 288 453 288 453 232 410.5 c 128,-1,26
 176 368 176 368 176 311 c 2,27,-1
 176 194 l 2,28,29
 176 134 176 134 224.5 101.5 c 128,-1,30
 273 69 273 69 344 69 c 3,18,19
EndSplineSet
EndChar

StartChar: c
Encoding: 99 99 68
Width: 521
VWidth: 1504
Flags: W
HStem: -14 80<222.832 407.63> 451 80<222.832 408.621>
VStem: 39 96<159.445 358.135>
LayerCount: 3
Back
SplineSet
484 32 m 1
 436 2 377.333 -13.3333 308 -14 c 0
 226.667 -14 161.5 11.3333 112.5 62 c 0
 63.5 112.667 39 178.333 39 259 c 0
 39 340.333 63.6667 406 113 456 c 0
 162.333 506 227.333 531 308 531 c 0
 376 531 434.667 516 484 486 c 1
 451 408 l 1
 403.667 437.335 355 451.668 305 451 c 0
 253.667 451 212.5 433.167 181.5 397.5 c 0
 150.5 361.833 135 315.666 135 259 c 0
 135 201 150.667 154.333 182 119 c 0
 213.333 83.6666 254.333 66 305 66 c 0
 355 66 403.667 80.6667 451 110 c 1
 484 32 l 1
EndSplineSet
Fore
SplineSet
135 259 m 3
 135 150 199 66 305 66 c 3
 355 66 404 81 451 110 c 1
 484 32 l 1
 436 2 377 -14 308 -14 c 3
 147 -14 39 98 39 259 c 3
 39 420 147 531 308 531 c 3
 376 531 435 516 484 486 c 1
 451 408 l 1
 404 437 355 451 305 451 c 3
 199 451 135 367 135 259 c 3
EndSplineSet
Validated: 1
Layer: 2
SplineSet
135 259 m 3,0,1
 135 175 135 175 181 120.5 c 128,-1,2
 227 66 227 66 305 66 c 0,3,4
 380 66 380 66 451 110 c 1,5,-1
 484 32 l 1,6,7
 410 -14 410 -14 308 -14 c 0,8,9
 188 -14 188 -14 113.5 62 c 128,-1,10
 39 138 39 138 39 259 c 128,-1,11
 39 380 39 380 113.5 455.5 c 128,-1,12
 188 531 188 531 308 531 c 0,13,14
 410 531 410 531 484 486 c 1,15,-1
 451 408 l 1,16,17
 381 451 381 451 305 451 c 0,18,19
 227 451 227 451 181 396.5 c 128,-1,20
 135 342 135 342 135 259 c 3,0,1
EndSplineSet
EndChar

StartChar: d
Encoding: 100 100 69
Width: 654
VWidth: 1504
Flags: W
HStem: -14 83<219.3 410.235> 0 21G<487.5 579> 453 78<222.111 387.259>
VStem: 39 93<159.618 360.635> 484 89<0 56>
LayerCount: 3
Back
SplineSet
579 0 m 1x78
 489 0 l 1x78
 485.667 11.3333 484 30 484 56 c 1
 436.667 10 376 -13.3333 302 -14 c 256xb8
 228 -14 165.667 12.3333 115 65 c 0
 64.3333 117.667 39 184.667 39 266 c 0
 39 341.333 63.3333 404.333 112 455 c 0
 160.667 505.667 221.667 531 295 531 c 0
 370.333 531 431.333 507.333 478 460 c 1
 478 758 l 1
 573 758 l 1
 573 137 l 2
 573 95 575 49.3333 579 0 c 1x78
478 194 m 2
 478 311 l 2
 478 349 459.5 382.167 422.5 410.5 c 0
 385.5 438.833 346 453 304 453 c 0
 252 453 210.333 435.333 179 400 c 0
 147.667 364.667 132 320 132 266 c 0
 132 204.667 147.667 156.5 179 121.5 c 0
 210.333 86.5 254 69 310 69 c 0xb8
 360 69 400.5 80.3333 431.5 103 c 0
 462.5 125.667 478 156 478 194 c 2
EndSplineSet
Fore
SplineSet
579 0 m 1x78
 489 0 l 1x78
 486 11 484 30 484 56 c 1
 437 10 376 -14 302 -14 c 259xb8
 150 -14 39 102 39 266 c 3
 39 422 148 531 295 531 c 3
 370 531 431 507 478 460 c 1
 478 758 l 1
 573 758 l 1
 573 137 l 2
 573 95 575 49 579 0 c 1x78
310 69 m 3xb8
 399 69 478 110 478 194 c 2
 478 311 l 2
 478 388 382 453 304 453 c 3
 199 453 132 372 132 266 c 3
 132 148 194 69 310 69 c 3xb8
EndSplineSet
Validated: 1
Layer: 2
SplineSet
579 0 m 1,0,-1
 489 0 l 1,1,2
 484 18 484 18 484 56 c 1,3,4
 412 -14 412 -14 302 -14 c 0,5,6
 188 -14 188 -14 113.5 64.5 c 128,-1,7
 39 143 39 143 39 266 c 0,8,9
 39 382 39 382 111.5 456.5 c 128,-1,10
 184 531 184 531 295 531 c 0,11,12
 407 531 407 531 478 460 c 1,13,-1
 478 758 l 1,14,-1
 573 758 l 1,15,-1
 573 137 l 2,16,17
 573 74 573 74 579 0 c 1,0,-1
310 69 m 3,18,19
 381 69 381 69 429.5 101.5 c 128,-1,20
 478 134 478 134 478 194 c 2,21,-1
 478 311 l 2,22,23
 478 367 478 367 421.5 410 c 128,-1,24
 365 453 365 453 304 453 c 0,25,26
 227 453 227 453 179.5 400 c 128,-1,27
 132 347 132 347 132 266 c 0,28,29
 132 176 132 176 178.5 122.5 c 128,-1,30
 225 69 225 69 310 69 c 3,18,19
EndSplineSet
EndChar

StartChar: e
Encoding: 101 101 70
Width: 588
VWidth: 1504
Flags: W
HStem: -14 85<226.138 464.152> 241 79<138 456> 453 78<220.615 385.23>
LayerCount: 3
Back
SplineSet
528 27 m 1
 454.667 -0.333334 385 -14 319 -14 c 0
 237.667 -14 170.667 10.3333 118 59 c 0
 65.3333 107.667 39 170.667 39 248 c 0
 39 333.333 65 402.667 117 456 c 1
 168.333 506 233.667 531 313 531 c 0
 467.667 531 546.334 434.333 549 241 c 1
 132 241 l 1
 136 187 155.333 145.167 190 115.5 c 0
 224.667 85.8333 269.667 71 325 71 c 0
 381 71 445 84 517 110 c 1
 528 27 l 1
456 320 m 1
 450.667 359.333 434.5 391.333 407.5 416 c 0
 380.5 440.667 346 453 304 453 c 0
 264 453 228.167 440.667 196.5 416 c 0
 164.833 391.333 145.333 359.333 138 320 c 1
 456 320 l 1
EndSplineSet
Fore
SplineSet
132 241 m 1
 140 135 213 71 325 71 c 3
 381 71 445 84 517 110 c 1
 528 27 l 1
 455 0 385 -14 319 -14 c 3
 161 -14 39 91 39 248 c 3
 39 413 148 531 313 531 c 3
 468 531 546 434 549 241 c 1
 132 241 l 1
456 320 m 1
 446 396 390 453 304 453 c 3
 220 453 152 393 138 320 c 1
 456 320 l 1
EndSplineSet
Validated: 1
Layer: 2
SplineSet
132 241 m 1,0,1
 138 162 138 162 189.5 116.5 c 128,-1,2
 241 71 241 71 325 71 c 128,-1,3
 409 71 409 71 517 110 c 1,4,-1
 528 27 l 1,5,6
 417 -14 417 -14 319 -14 c 0,7,8
 199 -14 199 -14 119 59 c 128,-1,9
 39 132 39 132 39 248 c 0,10,11
 39 373 39 373 114.5 452 c 128,-1,12
 190 531 190 531 313 531 c 0,13,14
 544 531 544 531 549 241 c 1,15,-1
 132 241 l 1,0,1
456 320 m 1,16,17
 448 379 448 379 407.5 416 c 128,-1,18
 367 453 367 453 304 453 c 0,19,20
 242 453 242 453 195.5 414.5 c 128,-1,21
 149 376 149 376 138 320 c 1,22,-1
 456 320 l 1,16,17
EndSplineSet
EndChar

StartChar: f
Encoding: 102 102 71
Width: 382
VWidth: 1504
Flags: W
HStem: 0 21G<111 206> 433 78<26 111 206 352> 687 82<250.607 397.16>
VStem: 111 95<0 433 511 634.228>
LayerCount: 3
Back
SplineSet
206 0 m 1
 111 0 l 1
 111 433 l 1
 26 433 l 1
 26 511 l 1
 113 511 l 1
 113 682.333 179.667 768.333 313 769 c 0
 355 769 390.667 758 420 736 c 1
 393 665 l 1
 357.667 680.333 330 687.667 310 687 c 0
 240.667 687 206 628.333 206 511 c 1
 352 511 l 1
 352 433 l 1
 206 433 l 1
 206 0 l 1
EndSplineSet
Fore
SplineSet
206 0 m 1
 111 0 l 1
 111 433 l 1
 26 433 l 1
 26 511 l 1
 113 511 l 1
 113 682 180 769 313 769 c 3
 355 769 391 758 420 736 c 1
 393 665 l 1
 358 680 330 687 310 687 c 3
 241 687 206 628 206 511 c 1
 352 511 l 1
 352 433 l 1
 206 433 l 1
 206 0 l 1
EndSplineSet
Validated: 1
Layer: 2
SplineSet
206 0 m 1,0,-1
 111 0 l 1,1,-1
 111 433 l 1,2,-1
 26 433 l 1,3,-1
 26 511 l 1,4,-1
 113 511 l 1,5,6
 113 769 113 769 313 769 c 0,7,8
 376 769 376 769 420 736 c 1,9,-1
 393 665 l 1,10,11
 342 687 342 687 310 687 c 0,12,13
 206 687 206 687 206 511 c 1,14,-1
 352 511 l 1,15,-1
 352 433 l 1,16,-1
 206 433 l 1,17,-1
 206 0 l 1,0,-1
EndSplineSet
EndChar

StartChar: g
Encoding: 103 103 72
Width: 499
VWidth: 1504
Flags: W
HStem: -226 80<154.605 320.516> 152 78<182.461 315.417> 445 77<185.255 312.131> 457 65<379 454>
VStem: 48 89<274.106 399.992> 89 85<121.521 161.714> 353 86<-115.071 -30.1155 266.619 405.77>
LayerCount: 3
Back
SplineSet
439 -68 m 0xd6
 439 -115.333 422 -153.5 388 -182.5 c 0
 354 -211.5 304.333 -226 239 -226 c 0
 185 -226 129.333 -208.667 72 -174 c 1
 105 -99 l 1
 158.333 -130.333 205 -146 245 -146 c 0
 276.333 -146 302.167 -138.667 322.5 -124 c 0
 342.833 -109.333 353 -92 353 -72 c 0
 353 -42 325 -15.3333 269 8 c 0
 227 25.3333 186.5 44.3333 147.5 65 c 0
 108.5 85.6667 89 113 89 147 c 0xd6
 89 163 93.3333 183.667 102 209 c 1
 66 248.333 48 290 48 334 c 0
 48 389.333 66.5 434.5 103.5 469.5 c 0
 140.5 504.5 185.333 522 238 522 c 2xea
 454 522 l 1
 454 457 l 1
 379 457 l 1
 397 449.667 411.667 433.333 423 408 c 0
 432.337 386.667 436.67 365.333 436 344 c 0
 436 284.667 419.667 237.833 387 203.5 c 0
 354.333 169.167 307.666 152 247 152 c 0
 225 152 203.333 155.333 182 162 c 1
 176.667 156.666 174 150.333 174 143 c 0
 174 127.667 210.333 110 283 90 c 0
 387 60.6667 439 8 439 -68 c 0xd6
356 337 m 256
 356 367 345.333 392.5 324 413.5 c 0
 302.667 434.5 277 445 247 445 c 256
 217 445 191.167 434.5 169.5 413.5 c 0
 147.833 392.5 137 367 137 337 c 256xea
 137 307 147.833 281.667 169.5 261 c 0
 191.167 240.333 217 230 247 230 c 0
 283 230 310.167 240.333 328.5 261 c 0
 346.833 281.667 356 307 356 337 c 256
EndSplineSet
Fore
SplineSet
48 334 m 3xda
 48 442 131 522 238 522 c 2xea
 454 522 l 1
 454 457 l 1
 379 457 l 1
 411 444 436 392 436 344 c 3
 436 225 367 152 247 152 c 3
 225 152 203 155 182 162 c 1
 177 157 174 150 174 143 c 3
 174 128 210 110 283 90 c 0
 387 61 439 8 439 -68 c 3
 439 -175 354 -226 239 -226 c 3
 185 -226 129 -209 72 -174 c 1
 105 -99 l 1
 158 -130 205 -146 245 -146 c 3
 297 -146 353 -119 353 -72 c 3
 353 -42 325 -15 269 8 c 0
 227 25 187 44 148 65 c 0
 109 86 89 113 89 147 c 3xd6
 89 163 93 184 102 209 c 1
 66 248 48 290 48 334 c 3xda
247 230 m 3
 314 230 356 273 356 337 c 259
 356 397 307 445 247 445 c 259
 188 445 137 397 137 337 c 259
 137 277 188 230 247 230 c 3
EndSplineSet
Validated: 1
Layer: 2
SplineSet
48 334 m 3,0,1
 48 415 48 415 102.5 468.5 c 128,-1,2
 157 522 157 522 238 522 c 2,3,-1
 454 522 l 1,4,-1
 454 457 l 1,5,-1
 379 457 l 1,6,7
 403 447 403 447 419.5 413.5 c 128,-1,8
 436 380 436 380 436 344 c 0,9,10
 436 254 436 254 386 203 c 128,-1,11
 336 152 336 152 247 152 c 0,12,13
 212 152 212 152 182 162 c 1,14,15
 174 154 174 154 174 143 c 0,16,17
 174 120 174 120 283 90 c 0,18,19
 439 46 439 46 439 -68 c 0,20,21
 439 -145 439 -145 384 -185.5 c 128,-1,22
 329 -226 329 -226 239 -226 c 0,23,24
 157 -226 157 -226 72 -174 c 1,25,-1
 105 -99 l 1,26,27
 185 -146 185 -146 245 -146 c 0,28,29
 287 -146 287 -146 320 -125.5 c 128,-1,30
 353 -105 353 -105 353 -72 c 0,31,32
 353 -26 353 -26 269 8 c 0,33,34
 208 33 208 33 148 65 c 0,35,36
 89 97 89 97 89 147 c 0,37,38
 89 173 89 173 102 209 c 1,39,40
 48 267 48 267 48 334 c 3,0,1
247 230 m 3,41,42
 297 230 297 230 326.5 259.5 c 128,-1,43
 356 289 356 289 356 337 c 0,44,45
 356 382 356 382 324 413.5 c 128,-1,46
 292 445 292 445 247 445 c 128,-1,47
 202 445 202 445 169.5 413.5 c 128,-1,48
 137 382 137 382 137 337 c 128,-1,49
 137 292 137 292 169.5 261 c 128,-1,50
 202 230 202 230 247 230 c 3,41,42
EndSplineSet
EndChar

StartChar: h
Encoding: 104 104 73
Width: 636
VWidth: 1504
Flags: W
HStem: 0 21G<75 170 466 561> 444 81<253.77 402.96>
VStem: 75 95<0 365.864 456 758> 466 95<0 374.014>
LayerCount: 3
Back
SplineSet
561 0 m 1
 466 0 l 1
 466 287 l 2
 466 332.333 453.833 369.833 429.5 399.5 c 0
 405.167 429.167 371.667 444 329 444 c 256
 287 444 250 428.833 218 398.5 c 0
 186 368.167 170 335 170 299 c 2
 170 0 l 1
 75 0 l 1
 75 758 l 1
 170 758 l 1
 170 456 l 1
 216 502 273.667 525 343 525 c 0
 411 525 464.333 503.667 503 461 c 0
 541.667 418.333 561 361 561 289 c 2
 561 0 l 1
EndSplineSet
Fore
SplineSet
343 525 m 3
 482 525 561 429 561 289 c 2
 561 0 l 1
 466 0 l 1
 466 287 l 2
 466 375 416 444 329 444 c 259
 251 444 170 374 170 299 c 2
 170 0 l 1
 75 0 l 1
 75 758 l 1
 170 758 l 1
 170 456 l 1
 216 502 274 525 343 525 c 3
EndSplineSet
Validated: 1
Layer: 2
SplineSet
343 525 m 3,0,1
 446 525 446 525 503.5 460.5 c 128,-1,2
 561 396 561 396 561 289 c 2,3,-1
 561 0 l 1,4,-1
 466 0 l 1,5,-1
 466 287 l 2,6,7
 466 355 466 355 429 399.5 c 128,-1,8
 392 444 392 444 329 444 c 0,9,10
 270 444 270 444 220 399.5 c 128,-1,11
 170 355 170 355 170 299 c 2,12,-1
 170 0 l 1,13,-1
 75 0 l 1,14,-1
 75 758 l 1,15,-1
 170 758 l 1,16,-1
 170 456 l 1,17,18
 239 525 239 525 343 525 c 3,0,1
EndSplineSet
EndChar

StartChar: i
Encoding: 105 105 74
Width: 245
VWidth: 1504
Flags: W
HStem: 0 21G<75 170> 491 20G<75 170> 590 144<69 171.5>
VStem: 48 145<611 713> 75 95<0 511>
LayerCount: 3
Back
SplineSet
170 0 m 1xe8
 75 0 l 1
 75 511 l 1
 170 511 l 1
 170 0 l 1xe8
193 662 m 256xf0
 193 642 185.833 625 171.5 611 c 0
 157.167 597 140 590 120 590 c 256
 100 590 83 597 69 611 c 0
 55 625 48 642 48 662 c 256
 48 682 55 699 69 713 c 0
 83 727 100 734 120 734 c 256
 140 734 157.167 727 171.5 713 c 0
 185.833 699 193 682 193 662 c 256xf0
EndSplineSet
Fore
SplineSet
170 0 m 1xe8
 75 0 l 1
 75 511 l 1
 170 511 l 1
 170 0 l 1xe8
120 734 m 259
 160 734 193 702 193 662 c 259
 193 622 160 590 120 590 c 259
 80 590 48 622 48 662 c 259xf0
 48 702 80 734 120 734 c 259
EndSplineSet
Validated: 1
Layer: 2
SplineSet
170 0 m 1,0,-1
 75 0 l 1,1,-1
 75 511 l 1,2,-1
 170 511 l 1,3,-1
 170 0 l 1,0,-1
120 734 m 259,4,5
 150 734 150 734 171.5 713 c 128,-1,6
 193 692 193 692 193 662 c 128,-1,7
 193 632 193 632 171.5 611 c 128,-1,8
 150 590 150 590 120 590 c 128,-1,9
 90 590 90 590 69 611 c 128,-1,10
 48 632 48 632 48 662 c 128,-1,11
 48 692 48 692 69 713 c 128,-1,12
 90 734 90 734 120 734 c 259,4,5
EndSplineSet
EndChar

StartChar: j
Encoding: 106 106 75
Width: 257
VWidth: 1504
Flags: W
HStem: -212 77<-62 27.1866> 491 20G<87 182> 590 144<83 185>
VStem: 62 144<611 713> 87 95<-75.1719 511>
LayerCount: 3
Back
SplineSet
182 27 m 2xe8
 182 -128.333 100.667 -208 -62 -212 c 1
 -72 -135 l 1
 -4 -129.667 39.5 -114.667 58.5 -90 c 0
 77.5 -65.3333 87 -13.3333 87 66 c 2
 87 511 l 1
 182 511 l 1
 182 27 l 2xe8
206 662 m 256xf0
 206 642 199 625 185 611 c 0
 171 597 154 590 134 590 c 256
 114 590 97 597 83 611 c 0
 69 625 62 642 62 662 c 256
 62 682 69 699 83 713 c 0
 97 727 114 734 134 734 c 256
 154 734 171 727 185 713 c 0
 199 699 206 682 206 662 c 256xf0
EndSplineSet
Fore
SplineSet
182 27 m 2xe8
 182 -128 101 -208 -62 -212 c 1
 -72 -135 l 1
 69 -125 87 -80 87 66 c 2
 87 511 l 1
 182 511 l 1
 182 27 l 2xe8
134 734 m 259
 174 734 206 702 206 662 c 259
 206 622 174 590 134 590 c 259
 94 590 62 622 62 662 c 259xf0
 62 702 94 734 134 734 c 259
EndSplineSet
Validated: 1
Layer: 2
SplineSet
182 27 m 2,0,1
 182 -206 182 -206 -62 -212 c 1,2,-1
 -72 -135 l 1,3,4
 -29 -132 -29 -132 -1 -124 c 128,-1,5
 27 -116 27 -116 45 -102.5 c 128,-1,6
 63 -89 63 -89 72 -64.5 c 128,-1,7
 81 -40 81 -40 84 -11 c 128,-1,8
 87 18 87 18 87 66 c 2,9,-1
 87 511 l 1,10,-1
 182 511 l 1,11,-1
 182 27 l 2,0,1
134 734 m 259,12,13
 164 734 164 734 185 713 c 128,-1,14
 206 692 206 692 206 662 c 128,-1,15
 206 632 206 632 185 611 c 128,-1,16
 164 590 164 590 134 590 c 128,-1,17
 104 590 104 590 83 611 c 128,-1,18
 62 632 62 632 62 662 c 128,-1,19
 62 692 62 692 83 713 c 128,-1,20
 104 734 104 734 134 734 c 259,12,13
EndSplineSet
EndChar

StartChar: k
Encoding: 107 107 76
Width: 511
VWidth: 1504
Flags: W
HStem: 0 6G<75 170 423.061 522.667> 502 20G<375.633 502>
VStem: 75 95<0 217 326 758>
DStem2: 170 326 272 301 0.756516 0.653976<60.8152 301.421> 272 301 206 247 0.674809 -0.737993<0 347.248>
LayerCount: 3
Fore
SplineSet
539 9 m 1
 441 -15 l 1
 206 247 l 1
 170 217 l 1
 170 0 l 1
 75 0 l 1
 75 758 l 1
 170 758 l 1
 170 326 l 1
 399 522 l 1
 502 504 l 1
 272 301 l 1
 539 9 l 1
EndSplineSet
Validated: 1
Layer: 2
SplineSet
539 9 m 1,0,-1
 441 -15 l 1,1,-1
 206 247 l 1,2,-1
 170 217 l 1,3,-1
 170 0 l 1,4,-1
 75 0 l 1,5,-1
 75 758 l 1,6,-1
 170 758 l 1,7,-1
 170 326 l 1,8,-1
 399 522 l 1,9,-1
 502 504 l 1,10,-1
 272 301 l 1,11,-1
 539 9 l 1,0,-1
EndSplineSet
EndChar

StartChar: l
Encoding: 108 108 77
Width: 320
VWidth: 1504
Flags: W
HStem: -12 86<234.58 299.895>
VStem: 75 95<147.328 758>
LayerCount: 3
Back
SplineSet
299 -12 m 1
 149.667 -4 75 87.6667 75 263 c 2
 75 758 l 1
 170 758 l 1
 170 284 l 2
 170 206.667 182 152 206 120 c 0
 227.333 92.6667 262 77.3333 310 74 c 1
 299 -12 l 1
EndSplineSet
Fore
SplineSet
299 -12 m 1
 150 -4 75 88 75 263 c 2
 75 758 l 1
 170 758 l 1
 170 284 l 2
 170 152 196 81 310 74 c 1
 299 -12 l 1
EndSplineSet
Validated: 1
Layer: 2
SplineSet
299 -12 m 1,0,1
 75 0 75 0 75 263 c 2,2,-1
 75 758 l 1,3,-1
 170 758 l 1,4,-1
 170 284 l 2,5,6
 170 178 170 178 199.5 128.5 c 128,-1,7
 229 79 229 79 310 74 c 1,8,-1
 299 -12 l 1,0,1
EndSplineSet
EndChar

StartChar: m
Encoding: 109 109 78
Width: 956
VWidth: 1504
Flags: W
HStem: 0 21G<75 170 430 525 787 881> 447 79<247.629 386.792 591.974 724.632> 493 20G<63 155.5>
VStem: 75 95<0 370.161> 75 87<454 511.628> 430 95<0 382.285> 787 94<0 377.922>
LayerCount: 3
Back
SplineSet
881 0 m 1xce
 787 0 l 1
 787 283 l 2
 787 329 776.333 367 755 397 c 0
 731 430.333 699.333 447 660 447 c 0
 626.665 447 595.832 434 567.5 408 c 0
 539.167 382 525 353.667 525 323 c 2
 525 0 l 1
 430 0 l 1
 430 308 l 2
 430 400 391.333 446.333 314 447 c 0
 280 447 247.5 431.667 216.5 401 c 0
 185.5 370.333 170 338.333 170 305 c 2
 170 0 l 1
 75 0 l 1xd6
 75 376 l 2
 75 438 71 483.667 63 513 c 1
 152 513 l 1xae
 159.333 495.667 162.667 476 162 454 c 1
 176 474 199.167 491 231.5 505 c 0
 263.833 519 295.333 526 326 526 c 0
 392 526 445.333 498 486 442 c 1
 539.333 498 603.333 526 678 526 c 0
 737.333 526 786 503.833 824 459.5 c 0
 862 415.167 881 356.667 881 284 c 2
 881 0 l 1xce
EndSplineSet
Fore
SplineSet
678 526 m 3xce
 806 526 881 417 881 284 c 2
 881 0 l 1
 787 0 l 1
 787 283 l 2
 787 370 742 447 660 447 c 3
 596 447 525 386 525 323 c 2
 525 0 l 1
 430 0 l 1
 430 308 l 2
 430 400 391 447 314 447 c 3
 247 447 170 371 170 305 c 2
 170 0 l 1
 75 0 l 1xd6
 75 376 l 2
 75 438 71 484 63 513 c 1
 152 513 l 1xae
 159 496 162 476 162 454 c 1
 188 491 263 526 326 526 c 3
 392 526 445 498 486 442 c 1
 539 498 603 526 678 526 c 3xce
EndSplineSet
Validated: 1
Layer: 2
SplineSet
678 526 m 3,0,1
 771 526 771 526 826 456.5 c 128,-1,2
 881 387 881 387 881 284 c 2,3,-1
 881 0 l 1,4,-1
 787 0 l 1,5,-1
 787 283 l 2,6,7
 787 352 787 352 753 399.5 c 128,-1,8
 719 447 719 447 660 447 c 0,9,10
 611 447 611 447 568 408.5 c 128,-1,11
 525 370 525 370 525 323 c 2,12,-1
 525 0 l 1,13,-1
 430 0 l 1,14,-1
 430 308 l 2,15,16
 430 447 430 447 314 447 c 0,17,18
 264 447 264 447 217 401 c 128,-1,19
 170 355 170 355 170 305 c 2,20,-1
 170 0 l 1,21,-1
 75 0 l 1,22,-1
 75 376 l 2,23,24
 75 470 75 470 63 513 c 1,25,-1
 152 513 l 1,26,27
 162 489 162 489 162 454 c 1,28,29
 182 482 182 482 231 504 c 128,-1,30
 280 526 280 526 326 526 c 0,31,32
 424 526 424 526 486 442 c 1,33,34
 565.5 526 565.5 526 678 526 c 3,0,1
EndSplineSet
EndChar

StartChar: n
Encoding: 110 110 79
Width: 636
VWidth: 1504
Flags: W
HStem: 0 21G<75 170 466 561> 447 79<255.045 405.624> 493 20G<63 155.5>
VStem: 75 95<0 366.737> 75 87<451 511.628> 466 95<0 386.781>
LayerCount: 3
Back
SplineSet
561 0 m 1xcc
 466 0 l 1
 466 290 l 2
 466 394 418.333 446.333 323 447 c 0
 287.667 447 253.333 431.167 220 399.5 c 0
 186.667 367.833 170 336.333 170 305 c 2
 170 0 l 1
 75 0 l 1xd4
 75 376 l 2
 75 438 71 483.667 63 513 c 1
 152 513 l 1xac
 159.333 495.667 162.667 475 162 451 c 1
 210 501 268.333 526 337 526 c 256
 405 526 459.333 505 500 463 c 0
 540.667 421 561 363.333 561 290 c 2
 561 0 l 1xcc
EndSplineSet
Fore
SplineSet
337 526 m 259xcc
 477 526 561 432 561 290 c 2
 561 0 l 1
 466 0 l 1
 466 290 l 2
 466 394 418 447 323 447 c 3
 256 447 170 370 170 305 c 2
 170 0 l 1
 75 0 l 1xd4
 75 376 l 2
 75 438 71 484 63 513 c 1
 152 513 l 1xac
 159 496 162 475 162 451 c 1
 210 501 268 526 337 526 c 259xcc
EndSplineSet
Validated: 1
Layer: 2
SplineSet
337 526 m 259,0,1
 441 526 441 526 501 462 c 128,-1,2
 561 398 561 398 561 290 c 2,3,-1
 561 0 l 1,4,-1
 466 0 l 1,5,-1
 466 290 l 2,6,7
 466 447 466 447 323 447 c 0,8,9
 272 447 272 447 221 400 c 128,-1,10
 170 353 170 353 170 305 c 2,11,-1
 170 0 l 1,12,-1
 75 0 l 1,13,-1
 75 376 l 2,14,15
 75 470 75 470 63 513 c 1,16,-1
 152 513 l 1,17,18
 162 489 162 489 162 451 c 1,19,20
 234 526 234 526 337 526 c 259,0,1
EndSplineSet
EndChar

StartChar: o
Encoding: 111 111 80
Width: 619
VWidth: 1504
Flags: W
HStem: -12 80<226.911 392.983> 450 81<226.911 392.983>
VStem: 39 93<166.109 351.752> 487 94<164.094 353.767>
LayerCount: 3
Back
SplineSet
581 259 m 256
 581 183 555.333 118.833 504 66.5 c 0
 452.667 14.1667 388 -12 310 -12 c 256
 232 -12 167.333 14 116 66 c 0
 64.6667 118 39 182.333 39 259 c 256
 39 335 64.6667 399.333 116 452 c 0
 167.333 504.667 232 531 310 531 c 256
 388 531 452.667 504.667 504 452 c 0
 555.333 399.333 581 335 581 259 c 256
487 259 m 256
 487 313 470.5 358.333 437.5 395 c 0
 404.5 431.667 362 450 310 450 c 256
 258 450 215.333 431.667 182 395 c 0
 148.667 358.333 132 313 132 259 c 256
 132 205 148.667 159.667 182 123 c 0
 215.333 86.3333 258 68 310 68 c 256
 362 68 404.5 86.3334 437.5 123 c 0
 470.5 159.667 487 205 487 259 c 256
EndSplineSet
Fore
SplineSet
581 259 m 259
 581 106 464 -12 310 -12 c 259
 156 -12 39 106 39 259 c 259
 39 411 156 531 310 531 c 259
 464 531 581 411 581 259 c 259
310 68 m 259
 415 68 487 153 487 259 c 259
 487 365 415 450 310 450 c 259
 205 450 132 365 132 259 c 259
 132 153 205 68 310 68 c 259
EndSplineSet
Validated: 1
Layer: 2
SplineSet
581 259 m 259,0,1
 581 144 581 144 503 66 c 128,-1,2
 425 -12 425 -12 310 -12 c 128,-1,3
 195 -12 195 -12 117 66 c 128,-1,4
 39 144 39 144 39 259 c 0,5,6
 39 373 39 373 117 452 c 128,-1,7
 195 531 195 531 310 531 c 128,-1,8
 425 531 425 531 503 452 c 128,-1,9
 581 373 581 373 581 259 c 259,0,1
310 68 m 259,10,11
 388 68 388 68 437.5 123 c 128,-1,12
 487 178 487 178 487 259 c 128,-1,13
 487 340 487 340 437.5 395 c 128,-1,14
 388 450 388 450 310 450 c 128,-1,15
 232 450 232 450 182 395 c 128,-1,16
 132 340 132 340 132 259 c 128,-1,17
 132 178 132 178 182 123 c 128,-1,18
 232 68 232 68 310 68 c 259,10,11
EndSplineSet
EndChar

StartChar: p
Encoding: 112 112 81
Width: 648
VWidth: 1504
Flags: W
HStem: -14 83<252.515 425.535> 453 78<269.303 425.335> 500 20G<69 166>
VStem: 69 93<485 520> 75 95<-215 48 143.591 361.27> 517 92<162.46 360.007>
LayerCount: 3
Back
SplineSet
609 269 m 0xd4
 609 185.667 583.5 117.667 532.5 65 c 0
 481.5 12.3333 417.667 -14 341 -14 c 0
 271 -14 214 6.66667 170 48 c 1
 170 -215 l 1
 75 -215 l 1
 75 346 l 2xcc
 75 429.333 73 487.333 69 520 c 1
 162 520 l 1xb4
 173 465 l 1
 226.333 509 286.333 531 353 531 c 0
 427 531 488.167 505.833 536.5 455.5 c 0
 584.833 405.167 609 343 609 269 c 0xd4
517 268 m 0
 517 320 500.833 363.833 468.5 399.5 c 0
 436.167 435.167 394.667 453 344 453 c 0
 304 453 265 436.833 227 404.5 c 0
 189 372.167 170 336.667 170 298 c 2
 170 214 l 2
 170 174.667 186.333 140.667 219 112 c 0
 251.667 83.3333 291.333 69 338 69 c 0
 394 69 437.833 86.8334 469.5 122.5 c 0
 501.167 158.167 517 206.667 517 268 c 0
EndSplineSet
Fore
SplineSet
609 269 m 3xd4
 609 109 498 -14 341 -14 c 3
 271 -14 214 7 170 48 c 1
 170 -215 l 1
 75 -215 l 1
 75 346 l 2xcc
 75 429 73 487 69 520 c 1
 162 520 l 1xb4
 173 465 l 1
 226 509 286 531 353 531 c 3
 500 531 609 416 609 269 c 3xd4
338 69 m 3
 454 69 517 150 517 268 c 3
 517 370 446 453 344 453 c 3
 267 453 170 375 170 298 c 2
 170 214 l 2
 170 131 252 69 338 69 c 3
EndSplineSet
Validated: 1
Layer: 2
SplineSet
609 269 m 3,0,1
 609 148 609 148 533.5 67 c 128,-1,2
 458 -14 458 -14 341 -14 c 0,3,4
 237 -14 237 -14 170 48 c 1,5,-1
 170 -215 l 1,6,-1
 75 -215 l 1,7,-1
 75 346 l 2,8,9
 75 470.5 75 470.5 69 520 c 1,10,-1
 162 520 l 1,11,-1
 173 465 l 1,12,13
 252.5 531 252.5 531 353 531 c 0,14,15
 463 531 463 531 536 455.5 c 128,-1,16
 609 380 609 380 609 269 c 3,0,1
338 69 m 3,17,18
 423 69 423 69 470 123 c 128,-1,19
 517 177 517 177 517 268 c 0,20,21
 517 346 517 346 468 399.5 c 128,-1,22
 419 453 419 453 344 453 c 0,23,24
 285 453 285 453 227.5 403.5 c 128,-1,25
 170 354 170 354 170 298 c 2,26,-1
 170 214 l 2,27,28
 170 153 170 153 221 111 c 128,-1,29
 272 69 272 69 338 69 c 3,17,18
EndSplineSet
EndChar

StartChar: q
Encoding: 113 113 82
Width: 648
VWidth: 1504
Flags: W
HStem: -14 83<222.465 397.651> 453 78<222.885 380.343> 500 20G<482 579>
VStem: 39 92<162.46 360.007> 478 95<-215 48 143.148 361.27> 486 93<485 520>
LayerCount: 3
Back
SplineSet
573 -215 m 1xb8
 478 -215 l 1
 478 48 l 1
 434 6.66667 377 -14 307 -14 c 0
 231 -14 167.333 12.3333 116 65 c 0
 64.6667 117.667 39 185.667 39 269 c 0
 39 343 63.1667 405.167 111.5 455.5 c 0
 159.833 505.833 221 531 295 531 c 0xd8
 362.333 531 422.333 509 475 465 c 1
 486 520 l 1
 579 520 l 1xb4
 575 486.667 573 428.667 573 346 c 2
 573 -215 l 1xb8
478 214 m 2
 478 298 l 2
 478 337.333 459 373 421 405 c 0
 383 437 344 453 304 453 c 0
 254 453 212.667 435.167 180 399.5 c 0
 147.333 363.833 131 320 131 268 c 0
 131 206.667 146.833 158.167 178.5 122.5 c 0
 210.167 86.8333 254 69 310 69 c 0
 357.334 69 397.167 83.3333 429.5 112 c 0
 461.833 140.667 478 174.667 478 214 c 2
EndSplineSet
Fore
SplineSet
573 -215 m 1xb8
 478 -215 l 1
 478 48 l 1
 434 7 377 -14 307 -14 c 3
 150 -14 39 109 39 269 c 3
 39 416 148 531 295 531 c 3xd8
 362 531 422 509 475 465 c 1
 486 520 l 1
 579 520 l 1xb4
 575 487 573 429 573 346 c 2
 573 -215 l 1xb8
131 268 m 3
 131 150 194 69 310 69 c 3
 398 69 478 130 478 214 c 2
 478 298 l 2
 478 376 382 453 304 453 c 3
 203 453 131 370 131 268 c 3
EndSplineSet
Validated: 1
Layer: 2
SplineSet
573 -215 m 1,0,-1
 478 -215 l 1,1,-1
 478 48 l 1,2,3
 411 -14 411 -14 307 -14 c 0,4,5
 190 -14 190 -14 114.5 67 c 128,-1,6
 39 148 39 148 39 269 c 0,7,8
 39 380 39 380 112 455.5 c 128,-1,9
 185 531 185 531 295 531 c 0,10,11
 395.5 531 395.5 531 475 465 c 1,12,-1
 486 520 l 1,13,-1
 579 520 l 1,14,15
 573 470.5 573 470.5 573 346 c 2,16,-1
 573 -215 l 1,0,-1
131 268 m 3,17,18
 131 177 131 177 178 123 c 128,-1,19
 225 69 225 69 310 69 c 0,20,21
 378 69 378 69 428 110.5 c 128,-1,22
 478 152 478 152 478 214 c 2,23,-1
 478 298 l 2,24,25
 478 355 478 355 421 404 c 128,-1,26
 364 453 364 453 304 453 c 0,27,28
 229 453 229 453 180 399.5 c 128,-1,29
 131 346 131 346 131 268 c 3,17,18
EndSplineSet
EndChar

StartChar: r
Encoding: 114 114 83
Width: 370
VWidth: 1504
Flags: W
HStem: 0 21G<75 170> 444 82<230.745 347> 499 20G<57 146.5>
VStem: 75 95<0 377.483>
LayerCount: 3
Back
SplineSet
170 0 m 1xd0
 75 0 l 1
 75 338 l 2
 75 418 69 478.333 57 519 c 1
 141 519 l 1xb0
 152.333 501 158 477 158 447 c 1
 167.333 466.333 186.167 484.333 214.5 501 c 0
 242.833 517.667 271 526 299 526 c 0
 319 526 335 524.667 347 522 c 1
 347 441 l 1
 339 443 327.667 444 313 444 c 0
 217.667 444 170 386.667 170 272 c 2
 170 0 l 1xd0
EndSplineSet
Fore
SplineSet
158 447 m 1xb0
 176 484 244 526 299 526 c 3
 319 526 335 525 347 522 c 1
 347 441 l 1
 339 443 328 444 313 444 c 3xd0
 218 444 170 387 170 272 c 2
 170 0 l 1
 75 0 l 1
 75 338 l 2
 75 418 69 478 57 519 c 1
 141 519 l 1
 152 501 158 477 158 447 c 1xb0
EndSplineSet
Validated: 1
Layer: 2
SplineSet
158 447 m 1,0,1
 172 476 172 476 215.5 501 c 128,-1,2
 259 526 259 526 299 526 c 0,3,4
 331 526 331 526 347 522 c 1,5,-1
 347 441 l 1,6,7
 335 444 335 444 313 444 c 0,8,9
 170 444 170 444 170 272 c 2,10,-1
 170 0 l 1,11,-1
 75 0 l 1,12,-1
 75 338 l 2,13,14
 75 458 75 458 57 519 c 1,15,-1
 141 519 l 1,16,17
 158 491 158 491 158 447 c 1,0,1
EndSplineSet
EndChar

StartChar: s
Encoding: 115 115 84
Width: 445
VWidth: 1504
Flags: W
HStem: -14 83<112.113 292.482> 451 74<175.57 333.398>
VStem: 62 88<345.455 425.806> 314 94<91.3885 186.614>
LayerCount: 3
Back
SplineSet
408 146 m 0
 408 98.6666 389.667 60.1666 353 30.5 c 0
 316.333 0.833334 267 -14 205 -14 c 0
 153.667 -14 98.3333 2.66667 39 36 c 1
 77 111 l 1
 118.333 83 162.333 69 209 69 c 0
 279 69 314 93 314 141 c 0
 314 178.333 280 207.667 212 229 c 0
 112 260.333 62 308 62 372 c 0
 62 415.334 78.6667 451.667 112 481 c 0
 145.333 510.333 190.667 525 248 525 c 0
 306 525 355.333 510.333 396 481 c 1
 361 412 l 1
 325.667 438 286 451 242 451 c 0
 216 451 194.167 444.333 176.5 431 c 0
 158.833 417.667 150 400.333 150 379 c 0
 150 353 186.667 327.333 260 302 c 0
 358.667 268 408 216 408 146 c 0
EndSplineSet
Fore
SplineSet
242 451 m 3
 195 451 150 425 150 379 c 3
 150 353 187 327 260 302 c 0
 359 268 408 216 408 146 c 3
 408 41 316 -14 205 -14 c 3
 154 -14 98 3 39 36 c 1
 77 111 l 1
 118 83 162 69 209 69 c 3
 279 69 314 93 314 141 c 3
 314 178 280 208 212 229 c 0
 112 260 62 308 62 372 c 3
 62 468 146 525 248 525 c 3
 306 525 355 510 396 481 c 1
 361 412 l 1
 326 438 286 451 242 451 c 3
EndSplineSet
Validated: 1
Layer: 2
SplineSet
242 451 m 3,0,1
 205 451 205 451 177.5 431.5 c 128,-1,2
 150 412 150 412 150 379 c 0,3,4
 150 340 150 340 260 302 c 0,5,6
 408 251 408 251 408 146 c 0,7,8
 408 70 408 70 350 28 c 128,-1,9
 292 -14 292 -14 205 -14 c 0,10,11
 128 -14 128 -14 39 36 c 1,12,-1
 77 111 l 1,13,14
 138.5 69 138.5 69 209 69 c 0,15,16
 314 69 314 69 314 141 c 0,17,18
 314 198 314 198 212 229 c 0,19,20
 62 276 62 276 62 372 c 0,21,22
 62 442 62 442 115.5 483.5 c 128,-1,23
 169 525 169 525 248 525 c 0,24,25
 334 525 334 525 396 481 c 1,26,-1
 361 412 l 1,27,28
 308 451 308 451 242 451 c 3,0,1
EndSplineSet
EndChar

StartChar: t
Encoding: 116 116 85
Width: 388
VWidth: 1504
Flags: W
HStem: -14 85<226.529 354.681> 433 78<14 116 211 375>
VStem: 116 95<87.1116 433 511 651>
LayerCount: 3
Back
SplineSet
364 8 m 1
 330.667 -6 297.667 -13.3333 265 -14 c 0
 219 -14 182.667 1.66667 156 33 c 0
 129.333 64.3333 116 107 116 161 c 2
 116 433 l 1
 14 433 l 1
 14 511 l 1
 116 511 l 1
 116 651 l 1
 211 692 l 1
 211 511 l 1
 375 511 l 1
 375 433 l 1
 211 433 l 1
 211 162 l 2
 211 100.667 230.333 70.3333 269 71 c 0
 294.333 71 322.333 76.3333 353 87 c 1
 364 8 l 1
EndSplineSet
Fore
SplineSet
265 -14 m 3
 168 -14 116 60 116 161 c 2
 116 433 l 1
 14 433 l 1
 14 511 l 1
 116 511 l 1
 116 651 l 1
 211 692 l 1
 211 511 l 1
 375 511 l 1
 375 433 l 1
 211 433 l 1
 211 162 l 2
 211 101 230 71 269 71 c 3
 294 71 322 76 353 87 c 1
 364 8 l 1
 331 -6 298 -14 265 -14 c 3
EndSplineSet
Validated: 1
Layer: 2
SplineSet
265 -14 m 3,0,1
 194 -14 194 -14 155 34.5 c 128,-1,2
 116 83 116 83 116 161 c 2,3,-1
 116 433 l 1,4,-1
 14 433 l 1,5,-1
 14 511 l 1,6,-1
 116 511 l 1,7,-1
 116 651 l 1,8,-1
 211 692 l 1,9,-1
 211 511 l 1,10,-1
 375 511 l 1,11,-1
 375 433 l 1,12,-1
 211 433 l 1,13,-1
 211 162 l 2,14,15
 211 71 211 71 269 71 c 0,16,17
 308 71 308 71 353 87 c 1,18,-1
 364 8 l 1,19,20
 312 -14 312 -14 265 -14 c 3,0,1
EndSplineSet
EndChar

StartChar: u
Encoding: 117 117 86
Width: 628
VWidth: 1504
Flags: W
HStem: -14 85<225.796 374.011> 491 20G<75 170 459 554>
VStem: 75 95<131.075 511> 459 95<147.591 511>
LayerCount: 3
Back
SplineSet
585 6 m 1
 493 -12 l 1
 483 12 474 41 466 75 c 1
 406 15.6667 346.333 -14 287 -14 c 0
 145.667 -14 75 68 75 232 c 2
 75 511 l 1
 170 511 l 1
 170 241 l 2
 170 127.667 213 71 299 71 c 0
 335 71 370.667 84.6667 406 112 c 0
 441.333 139.333 459 171.667 459 209 c 2
 459 511 l 1
 554 511 l 1
 554 137 l 2
 553.333 103 563.667 59.3333 585 6 c 1
EndSplineSet
Fore
SplineSet
585 6 m 1
 493 -12 l 1
 483 12 474 41 466 75 c 1
 406 16 346 -14 287 -14 c 3
 146 -14 75 68 75 232 c 2
 75 511 l 1
 170 511 l 1
 170 241 l 2
 170 128 213 71 299 71 c 3
 371 71 459 136 459 209 c 2
 459 511 l 1
 554 511 l 1
 554 137 l 2
 554 103 564 59 585 6 c 1
EndSplineSet
Validated: 1
Layer: 2
SplineSet
585 6 m 1,0,-1
 493 -12 l 1,1,2
 478 24 478 24 466 75 c 1,3,4
 375 -14 375 -14 287 -14 c 0,5,6
 75 -14 75 -14 75 232 c 2,7,-1
 75 511 l 1,8,-1
 170 511 l 1,9,-1
 170 241 l 2,10,11
 170 71 170 71 299 71 c 0,12,13
 355 71 355 71 407 113.5 c 128,-1,14
 459 156 459 156 459 209 c 2,15,-1
 459 511 l 1,16,-1
 554 511 l 1,17,-1
 554 137 l 2,18,19
 554 84 554 84 585 6 c 1,0,-1
EndSplineSet
EndChar

StartChar: v
Encoding: 118 118 87
Width: 538
VWidth: 1504
Flags: W
HStem: 0 21G<222.685 316.315> 491 20G<-6 101.934 436.066 545>
DStem2: 93 511 -6 511 0.422206 -0.9065<0 431.469> 269 117 307 0 0.422206 0.9065<0 431.469>
LayerCount: 3
Fore
SplineSet
307 0 m 1
 232 0 l 1
 -6 511 l 1
 93 511 l 1
 269 117 l 1
 445 511 l 1
 545 511 l 1
 307 0 l 1
EndSplineSet
Validated: 1
Layer: 2
SplineSet
307 0 m 1,0,-1
 232 0 l 1,1,-1
 -6 511 l 1,2,-1
 93 511 l 1,3,-1
 269 117 l 1,4,-1
 445 511 l 1,5,-1
 545 511 l 1,6,-1
 307 0 l 1,0,-1
EndSplineSet
EndChar

StartChar: w
Encoding: 119 119 88
Width: 722
VWidth: 1504
Flags: W
HStem: 0 21G<116.99 209.737 512.263 605.01> 491 20G<-6 95.9378 314.021 407.979 626.062 728>
DStem2: 168 125 202 0 0.360803 0.932642<0 336.371> 400 511 361 411 0.360803 -0.932642<79.1929 415.564>
LayerCount: 3
Fore
SplineSet
600 0 m 1
 520 0 l 1
 361 411 l 1
 202 0 l 1
 122 0 l 1
 -6 511 l 1
 92 511 l 1
 168 125 l 1
 322 511 l 1
 400 511 l 1
 554 125 l 1
 630 511 l 1
 728 511 l 1
 600 0 l 1
EndSplineSet
Validated: 1
Layer: 2
SplineSet
600 0 m 1,0,-1
 520 0 l 1,1,-1
 361 411 l 1,2,-1
 202 0 l 1,3,-1
 122 0 l 1,4,-1
 -6 511 l 1,5,-1
 92 511 l 1,6,-1
 168 125 l 1,7,-1
 322 511 l 1,8,-1
 400 511 l 1,9,-1
 554 125 l 1,10,-1
 630 511 l 1,11,-1
 728 511 l 1,12,-1
 600 0 l 1,0,-1
EndSplineSet
EndChar

StartChar: x
Encoding: 120 120 89
Width: 524
VWidth: 1504
Flags: W
HStem: 0 21G<-17 115.548 409.35 542> 491 20G<-3 127.889 397.222 528>
DStem2: -17 0 99 0 0.644734 0.764407<74.7892 330.469 433.544 668.492> 111 511 -3 511 0.644734 -0.764407<0 235.593 337.379 593.703>
LayerCount: 3
Fore
SplineSet
542 0 m 1
 426 0 l 1
 262 197 l 1
 99 0 l 1
 -17 0 l 1
 206 262 l 1
 -3 511 l 1
 111 511 l 1
 263 331 l 1
 414 511 l 1
 528 511 l 1
 319 262 l 1
 542 0 l 1
EndSplineSet
Validated: 1
Layer: 2
SplineSet
542 0 m 1,0,-1
 426 0 l 1,1,-1
 262 197 l 1,2,-1
 99 0 l 1,3,-1
 -17 0 l 1,4,-1
 206 262 l 1,5,-1
 -3 511 l 1,6,-1
 111 511 l 1,7,-1
 263 331 l 1,8,-1
 414 511 l 1,9,-1
 528 511 l 1,10,-1
 319 262 l 1,11,-1
 542 0 l 1,0,-1
EndSplineSet
EndChar

StartChar: y
Encoding: 121 121 90
Width: 543
VWidth: 1504
Flags: W
HStem: -227 78<45.8462 82.775> 491 20G<-6 107.34 435.082 548>
DStem2: 98 511 -6 511 0.432669 -0.901553<0 418.271> 275 132 313 11 0.425361 0.905024<0 414.89>
LayerCount: 3
Fore
SplineSet
48 -227 m 1
 24 -149 l 1
 113 -129 179 -67 221 38 c 1
 -6 511 l 1
 98 511 l 1
 275 132 l 1
 444 511 l 1
 548 511 l 1
 313 11 l 2
 250 -122 161 -202 48 -227 c 1
EndSplineSet
Validated: 1
Layer: 2
SplineSet
48 -227 m 1,0,-1
 24 -149 l 1,1,2
 158 -119 158 -119 221 38 c 1,3,-1
 -6 511 l 1,4,-1
 98 511 l 1,5,-1
 275 132 l 1,6,-1
 444 511 l 1,7,-1
 548 511 l 1,8,-1
 313 11 l 2,9,10
 218 -189 218 -189 48 -227 c 1,0,-1
EndSplineSet
EndChar

StartChar: z
Encoding: 122 122 91
Width: 538
VWidth: 1504
Flags: W
HStem: 0 80<161 496> 432 79<63 370>
DStem2: 30 57 161 80 0.671689 0.740833<105.03 506.187>
LayerCount: 3
Fore
SplineSet
496 0 m 1
 30 0 l 1
 30 57 l 1
 370 432 l 1
 45 432 l 1
 63 511 l 1
 499 511 l 1
 499 450 l 1
 161 80 l 1
 510 80 l 1
 496 0 l 1
EndSplineSet
Validated: 1
Layer: 2
SplineSet
496 0 m 1,0,-1
 30 0 l 1,1,-1
 30 57 l 1,2,-1
 370 432 l 1,3,-1
 45 432 l 1,4,-1
 63 511 l 1,5,-1
 499 511 l 1,6,-1
 499 450 l 1,7,-1
 161 80 l 1,8,-1
 510 80 l 1,9,-1
 496 0 l 1,0,-1
EndSplineSet
EndChar

StartChar: braceleft
Encoding: 123 123 92
Width: 383
VWidth: 1504
Flags: W
HStem: -132 76<227.34 332> 269 78<45 122.651> 671 78<227.501 332>
VStem: 117 89<-34.7226 211.364 404.182 649.129> 138 89<24.1355 252.348 364.033 592.841>
LayerCount: 3
Back
SplineSet
332 -132 m 1
 298 -132 l 2
 177.333 -132 117 -81 117 21 c 0
 117 41 120.5 73.3333 127.5 118 c 128
 134.5 162.667 138 194 138 212 c 0
 138 248 107 267 45 269 c 1
 45 347 l 1
 107 349 138 367.667 138 403 c 0
 138 424.333 134.5 457.333 127.5 502 c 128
 120.5 546.667 117 578 117 596 c 0
 117 698 177.333 749 298 749 c 2
 332 749 l 1
 332 671 l 1
 293 671 l 2
 237.667 671 208.667 645 206 593 c 1
 220 507.667 227 446 227 408 c 0
 227 386 220.833 365.167 208.5 345.5 c 128
 196.166 325.833 181.333 313.333 164 308 c 1
 206 290.667 227 257.333 227 208 c 0
 227 170.667 220 109.333 206 24 c 1
 208 -29.3333 237 -56 293 -56 c 2
 332 -56 l 1
 332 -132 l 1
EndSplineSet
Fore
SplineSet
227 402 m 3xe8
 227 358 198 318 164 308 c 1
 206 291 227 263 227 214 c 3xe8
 227 177 206 61 206 24 c 3
 206 -29 237 -56 293 -56 c 2
 332 -56 l 1
 332 -132 l 1
 298 -132 l 2
 177 -132 117 -81 117 21 c 3xf0
 117 51 138 182 138 212 c 3
 138 248 107 267 45 269 c 1
 45 347 l 1
 107 349 138 368 138 403 c 3xe8
 138 435 117 565 117 596 c 3
 117 698 177 749 298 749 c 2
 332 749 l 1
 332 671 l 1
 293 671 l 2
 238 671 206 645 206 593 c 3xf0
 206 556 227 439 227 402 c 3xe8
EndSplineSet
Validated: 1
Layer: 2
SplineSet
227 402 m 3,0,1
 227 370 227 370 208.5 343 c 128,-1,2
 190 316 190 316 164 308 c 1,3,4
 227 282 227 282 227 214 c 0,5,6
 227 196 227 196 216.5 119.5 c 128,-1,7
 206 43 206 43 206 24 c 0,8,9
 206 -56 206 -56 293 -56 c 2,10,-1
 332 -56 l 1,11,-1
 332 -132 l 1,12,-1
 298 -132 l 2,13,14
 117 -132 117 -132 117 21 c 0,15,16
 117 36 117 36 127.5 116.5 c 128,-1,17
 138 197 138 197 138 212 c 0,18,19
 138 266 138 266 45 269 c 1,20,-1
 45 347 l 1,21,22
 138 350 138 350 138 403 c 0,23,24
 138 419 138 419 127.5 500 c 128,-1,25
 117 581 117 581 117 596 c 0,26,27
 117 749 117 749 298 749 c 2,28,-1
 332 749 l 1,29,-1
 332 671 l 1,30,-1
 293 671 l 2,31,32
 206 671 206 671 206 593 c 0,33,34
 206 574 206 574 216.5 497 c 128,-1,35
 227 420 227 420 227 402 c 3,0,1
EndSplineSet
EndChar

StartChar: bar
Encoding: 124 124 93
Width: 266
VWidth: 1504
Flags: W
VStem: 90 86<-250 791>
LayerCount: 3
Fore
SplineSet
176 -250 m 1
 90 -250 l 1
 90 791 l 1
 176 791 l 1
 176 -250 l 1
EndSplineSet
Validated: 1
Layer: 2
SplineSet
176 -250 m 1,0,-1
 90 -250 l 1,1,-1
 90 791 l 1,2,-1
 176 791 l 1,3,-1
 176 -250 l 1,0,-1
EndSplineSet
EndChar

StartChar: braceright
Encoding: 125 125 94
Width: 383
VWidth: 1504
Flags: W
HStem: -132 76<56 160.66> 269 78<265.349 343> 671 78<56 160.66>
VStem: 161 89<21.1583 252.055 363.488 595.841> 182 89<-36.1093 208.365 407.182 652.422>
LayerCount: 3
Back
SplineSet
343 269 m 1
 281 267 250 248 250 212 c 0
 250 194 253.5 162.667 260.5 118 c 128
 267.5 73.3333 271 41 271 21 c 0
 271 -81 210.667 -132 90 -132 c 2
 56 -132 l 1
 56 -56 l 1
 95 -56 l 2
 153 -56 182 -31.3333 182 18 c 0
 182 41.3333 178.5 73.6667 171.5 115 c 128
 164.5 156.333 161 187.333 161 208 c 0
 161 258 182 291.333 224 308 c 1
 206.666 313.333 191.833 325.833 179.5 345.5 c 128
 167.167 365.167 161 386 161 408 c 256
 161 430 164.5 462 171.5 504 c 128
 178.5 546 182 577.667 182 599 c 0
 182 647 153 671 95 671 c 2
 56 671 l 1
 56 749 l 1
 90 749 l 2
 210.667 749 271 698 271 596 c 0
 271 578 267.5 546.667 260.5 502 c 128
 253.5 457.333 250 424.333 250 403 c 0
 250 367.667 281 349 343 347 c 1
 343 269 l 1
EndSplineSet
Fore
SplineSet
271 596 m 3xe8
 271 565 250 435 250 403 c 3
 250 368 281 349 343 347 c 1
 343 269 l 1
 281 267 250 248 250 212 c 3xf0
 250 182 271 51 271 21 c 3
 271 -81 211 -132 90 -132 c 2
 56 -132 l 1
 56 -56 l 1
 95 -56 l 2
 153 -56 182 -31 182 18 c 3xe8
 182 56 161 171 161 208 c 3
 161 258 182 291 224 308 c 1
 190 318 161 364 161 408 c 259xf0
 161 445 182 562 182 599 c 3
 182 647 153 671 95 671 c 2
 56 671 l 1
 56 749 l 1
 90 749 l 2
 211 749 271 698 271 596 c 3xe8
EndSplineSet
Validated: 1
Layer: 2
SplineSet
271 596 m 3,0,1
 271 581 271 581 260.5 500 c 128,-1,2
 250 419 250 419 250 403 c 0,3,4
 250 350 250 350 343 347 c 1,5,-1
 343 269 l 1,6,7
 250 266 250 266 250 212 c 0,8,9
 250 197 250 197 260.5 116.5 c 128,-1,10
 271 36 271 36 271 21 c 0,11,12
 271 -132 271 -132 90 -132 c 2,13,-1
 56 -132 l 1,14,-1
 56 -56 l 1,15,-1
 95 -56 l 2,16,17
 182 -56 182 -56 182 18 c 0,18,19
 182 37 182 37 171.5 113.5 c 128,-1,20
 161 190 161 190 161 208 c 0,21,22
 161 282 161 282 224 308 c 1,23,24
 198 316 198 316 179.5 345.5 c 128,-1,25
 161 375 161 375 161 408 c 0,26,27
 161 426 161 426 171.5 503 c 128,-1,28
 182 580 182 580 182 599 c 0,29,30
 182 671 182 671 95 671 c 2,31,-1
 56 671 l 1,32,-1
 56 749 l 1,33,-1
 90 749 l 2,34,35
 271 749 271 749 271 596 c 3,0,1
EndSplineSet
EndChar

StartChar: asciitilde
Encoding: 126 126 95
Width: 634
VWidth: 1504
Flags: W
HStem: 217 84<397.528 515.741> 310 80<131.579 252.776>
VStem: 33 83<217 295.809> 532 82<316.389 390>
LayerCount: 3
Back
SplineSet
614 366 m 2
 614 320 601.5 283.667 576.5 257 c 128
 551.5 230.333 518.667 217 478 217 c 0
 454 217 401.167 232.5 319.5 263.5 c 128
 237.833 294.5 188.333 310 171 310 c 0
 135.667 310 117.333 279 116 217 c 1
 33 217 l 1
 33 245 l 2
 33 289 46.3333 324.167 73 350.5 c 128
 99.6667 376.833 132.333 390 171 390 c 0
 198.333 390 252.167 375.167 332.5 345.5 c 128
 412.833 315.833 462.333 301 481 301 c 0
 512.333 301 529.333 330.667 532 390 c 1
 614 390 l 1
 614 366 l 2
EndSplineSet
Fore
SplineSet
33 245 m 2
 33 328 90 390 171 390 c 3
 198 390 252 376 332 346 c 0
 412 316 462 301 481 301 c 3
 512 301 529 331 532 390 c 1
 614 390 l 1
 614 366 l 2
 614 279 563 217 478 217 c 3
 454 217 402 233 320 264 c 0
 238 295 188 310 171 310 c 3
 136 310 117 279 116 217 c 1
 33 217 l 1
 33 245 l 2
EndSplineSet
Validated: 1
Layer: 2
SplineSet
33 245 m 2,0,1
 33 308 33 308 72 349 c 128,-1,2
 111 390 111 390 171 390 c 0,3,4
 215 390 215 390 332 346 c 0,5,6
 452 301 452 301 481 301 c 0,7,8
 527 301 527 301 532 390 c 1,9,-1
 614 390 l 1,10,-1
 614 366 l 2,11,12
 614 300 614 300 577.5 258.5 c 128,-1,13
 541 217 541 217 478 217 c 0,14,15
 444 217 444 217 320 264 c 0,16,17
 198 310 198 310 171 310 c 0,18,19
 118 310 118 310 116 217 c 1,20,-1
 33 217 l 1,21,-1
 33 245 l 2,0,1
EndSplineSet
EndChar

StartChar: uni0E4E.alt1
Encoding: 65540 -1 99
Width: 0
VWidth: 1504
Flags: W
HStem: 696 38<-382.852 -275.391> 835 30<-298.022 -259.536> 969 40<-312.556 -192.61>
VStem: -435 44<742.392 812.99> -367 45<880.548 958.949>
LayerCount: 3
Back
SplineSet
-184 999 m 1
 -197 961 l 1
 -214.333 966.333 -233 969 -253 969 c 0
 -299 969 -322 953.333 -322 922 c 0
 -322 888.667 -297 869 -247 863 c 1
 -260 829 l 1
 -272 833 -284 835 -296 835 c 0
 -324 835 -346.833 828.667 -364.5 816 c 128
 -382.167 803.333 -391 789.667 -391 775 c 0
 -391 747.667 -368.333 734 -323 734 c 0
 -309.667 734 -293.667 738 -275 746 c 1
 -274 708 l 1
 -293.333 700 -316.333 696 -343 696 c 0
 -368.333 696 -390 703.333 -408 718 c 128
 -426 732.667 -435 752 -435 776 c 0
 -435 801.333 -425 822.5 -405 839.5 c 128
 -385 856.5 -362.333 865 -337 865 c 1
 -357 878.333 -367 897.333 -367 922 c 0
 -367 980 -328.333 1009 -251 1009 c 0
 -224.333 1009.66 -202 1006.33 -184 999 c 1
EndSplineSet
Fore
SplineSet
-435 776 m 3
 -435 826 -387 865 -337 865 c 1
 -357 878 -367 897 -367 922 c 3
 -367 980 -328 1009 -251 1009 c 3
 -224 1009 -202 1006 -184 999 c 1
 -197 961 l 1
 -214 966 -233 969 -253 969 c 3
 -299 969 -322 953 -322 922 c 3
 -322 889 -297 869 -247 863 c 1
 -260 829 l 1
 -272 833 -284 835 -296 835 c 3
 -339 835 -391 813 -391 775 c 3
 -391 748 -368 734 -323 734 c 3
 -310 734 -294 738 -275 746 c 1
 -274 708 l 1
 -293 700 -316 696 -343 696 c 3
 -392 696 -435 727 -435 776 c 3
EndSplineSet
Validated: 1
Layer: 2
SplineSet
-435 776 m 3,0,1
 -435 813 -435 813 -405 839 c 128,-1,2
 -375 865 -375 865 -337 865 c 1,3,4
 -367 884.5 -367 884.5 -367 922 c 0,5,6
 -367 1009 -367 1009 -251 1009 c 0,7,8
 -210 1009 -210 1009 -184 999 c 1,9,-1
 -197 961 l 1,10,11
 -224 969 -224 969 -253 969 c 0,12,13
 -322 969 -322 969 -322 922 c 0,14,15
 -322 872 -322 872 -247 863 c 1,16,-1
 -260 829 l 1,17,18
 -278 835 -278 835 -296 835 c 0,19,20
 -331 835 -331 835 -361 818.5 c 128,-1,21
 -391 802 -391 802 -391 775 c 0,22,23
 -391 734 -391 734 -323 734 c 0,24,25
 -303.5 734 -303.5 734 -275 746 c 1,26,-1
 -274 708 l 1,27,28
 -302.5 696 -302.5 696 -343 696 c 0,29,30
 -381 696 -381 696 -408 718 c 128,-1,31
 -435 740 -435 740 -435 776 c 3,0,1
EndSplineSet
EndChar

StartChar: exclamdown
Encoding: 161 161 100
Width: 252
VWidth: 1504
Flags: W
HStem: 373 144<75 177.5>
VStem: 54 145<394 496> 72 109<-212 41.5> 83 84<41.5 295>
LayerCount: 3
Back
SplineSet
181 -212 m 1
 72 -212 l 1
 83 295 l 1
 167 295 l 1
 181 -212 l 1
199 445 m 256
 199 425 191.833 408 177.5 394 c 128
 163.167 380 146 373 126 373 c 256
 106 373 89 380 75 394 c 128
 61 408 54 425 54 445 c 256
 54 465 61 482 75 496 c 128
 89 510 106 517 126 517 c 256
 146 517 163.167 510 177.5 496 c 128
 191.833 482 199 465 199 445 c 256
EndSplineSet
Fore
SplineSet
181 -212 m 1xa0
 72 -212 l 1xa0
 83 295 l 1
 167 295 l 1x90
 181 -212 l 1xa0
126 517 m 259
 166 517 199 485 199 445 c 259
 199 405 166 373 126 373 c 259
 86 373 54 405 54 445 c 259xc0
 54 485 86 517 126 517 c 259
EndSplineSet
Validated: 1
Layer: 2
SplineSet
181 -212 m 1,0,-1
 72 -212 l 1,1,-1
 83 295 l 1,2,-1
 167 295 l 1,3,-1
 181 -212 l 1,0,-1
126 517 m 259,4,5
 156 517 156 517 177.5 496 c 128,-1,6
 199 475 199 475 199 445 c 128,-1,7
 199 415 199 415 177.5 394 c 128,-1,8
 156 373 156 373 126 373 c 128,-1,9
 96 373 96 373 75 394 c 128,-1,10
 54 415 54 415 54 445 c 128,-1,11
 54 475 54 475 75 496 c 128,-1,12
 96 517 96 517 126 517 c 259,4,5
EndSplineSet
EndChar

StartChar: cent
Encoding: 162 162 101
Width: 722
VWidth: 1504
Flags: W
HStem: 36 80<314.418 346 429 563.521> 573 80<313.978 346 429 565.776>
VStem: 92 90<240.51 447.854> 346 83<-84 32 657 773>
LayerCount: 3
Back
SplineSet
629 78 m 1
 575.667 48.6667 509 33.3333 429 32 c 1
 429 -84 l 1
 346 -84 l 1
 346 36 l 1
 268 50 206.167 84.3333 160.5 139 c 128
 114.833 193.667 92 262 92 344 c 256
 92 426 114.833 494.5 160.5 549.5 c 128
 206.167 604.5 268 639 346 653 c 1
 346 773 l 1
 429 773 l 1
 429 657 l 1
 509 655 575.667 639.667 629 611 c 1
 597 539 l 1
 571.667 550.333 545.5 558.833 518.5 564.5 c 128
 491.5 570.167 463.667 573 435 573 c 0
 355.667 573 293.667 553 249 513 c 128
 204.333 473 182 416.667 182 344 c 256
 182 272 204.333 216 249 176 c 128
 293.667 136 355.667 116 435 116 c 0
 464.333 116 492.5 119 519.5 125 c 128
 546.5 131 572.333 139.333 597 150 c 1
 629 78 l 1
EndSplineSet
Fore
SplineSet
435 116 m 3
 498 116 551 130 597 150 c 1
 629 78 l 1
 576 49 509 33 429 32 c 1
 429 -84 l 1
 346 -84 l 1
 346 36 l 1
 198 63 92 173 92 344 c 259
 92 515 198 626 346 653 c 1
 346 773 l 1
 429 773 l 1
 429 657 l 1
 509 655 576 640 629 611 c 1
 597 539 l 1
 551 560 498 573 435 573 c 3
 282 573 182 494 182 344 c 259
 182 195 283 116 435 116 c 3
EndSplineSet
Validated: 1
Layer: 2
SplineSet
435 116 m 3,0,1
 519 116 519 116 597 150 c 1,2,-1
 629 78 l 1,3,4
 548 33 548 33 429 32 c 1,5,-1
 429 -84 l 1,6,-1
 346 -84 l 1,7,-1
 346 36 l 1,8,9
 232 57 232 57 162 138 c 128,-1,10
 92 219 92 219 92 344 c 128,-1,11
 92 469 92 469 162 550.5 c 128,-1,12
 232 632 232 632 346 653 c 1,13,-1
 346 773 l 1,14,-1
 429 773 l 1,15,-1
 429 657 l 1,16,17
 550 654 550 654 629 611 c 1,18,-1
 597 539 l 1,19,20
 523 573 523 573 435 573 c 0,21,22
 318 573 318 573 250 513.5 c 128,-1,23
 182 454 182 454 182 344 c 128,-1,24
 182 234 182 234 250.5 175 c 128,-1,25
 319 116 319 116 435 116 c 3,0,1
EndSplineSet
EndChar

StartChar: sterling
Encoding: 163 163 102
Width: 722
VWidth: 1504
Flags: W
HStem: 0 71<271 588> 314 70<135 242 331 486> 606 21G<520 550.571> 633 71<354.297 527.478>
VStem: 235 73<385.732 585.76> 257 77<155.482 314>
LayerCount: 3
Back
SplineSet
588 0 m 1
 134 0 l 1
 134 56 l 1
 216 107.333 257 169.333 257 242 c 0
 257 250 256.5 260.5 255.5 273.5 c 128
 254.5 286.5 253 300 251 314 c 1
 135 314 l 1
 135 384 l 1
 242 384 l 1
 240 405.334 238.333 424.667 237 442 c 128
 235.667 459.333 235 476.333 235 493 c 0
 235 633.667 300.667 704 432 704 c 0
 472 704 517.667 692.333 569 669 c 1
 542 606 l 1
 498 624 460.333 633 429 633 c 0
 349 633 308.667 586.333 308 493 c 0
 308 455 311.667 418.667 319 384 c 1
 486 384 l 1
 486 314 l 1
 331 314 l 1
 332.343 306 333.177 296.333 333.5 285 c 128
 333.833 273.667 334 263 334 253 c 0
 334 179.667 313 119 271 71 c 1
 588 71 l 1
 588 0 l 1
EndSplineSet
Fore
SplineSet
331 314 m 1xf8
 334 298 334 272 334 253 c 3
 334 180 313 119 271 71 c 1
 588 71 l 1
 588 0 l 1
 134 0 l 1
 134 56 l 1
 216 107 257 169 257 242 c 3xf4
 257 264 254 292 251 314 c 1
 135 314 l 1
 135 384 l 1
 242 384 l 1
 238 423 235 454 235 493 c 3
 235 634 301 704 432 704 c 3
 472 704 518 692 569 669 c 1
 542 606 l 1
 498 624 460 633 429 633 c 3
 349 633 308 586 308 493 c 3
 308 455 312 419 319 384 c 1
 486 384 l 1
 486 314 l 1
 331 314 l 1xf8
EndSplineSet
Validated: 1
Layer: 2
SplineSet
331 314 m 1,0,1
 334 298 334 298 334 253 c 0,2,3
 334 143 334 143 271 71 c 1,4,-1
 588 71 l 1,5,-1
 588 0 l 1,6,-1
 134 0 l 1,7,-1
 134 56 l 1,8,9
 257 132.5 257 132.5 257 242 c 0,10,11
 257 270 257 270 251 314 c 1,12,-1
 135 314 l 1,13,-1
 135 384 l 1,14,-1
 242 384 l 1,15,16
 235 452 235 452 235 493 c 0,17,18
 235 704 235 704 432 704 c 0,19,20
 491 704 491 704 569 669 c 1,21,-1
 542 606 l 1,22,23
 476 633 476 633 429 633 c 0,24,25
 308 633 308 633 308 493 c 0,26,27
 308 439 308 439 319 384 c 1,28,-1
 486 384 l 1,29,-1
 486 314 l 1,30,-1
 331 314 l 1,0,1
EndSplineSet
EndChar

StartChar: currency
Encoding: 164 164 103
Width: 722
VWidth: 1504
Flags: W
HStem: 62 90<273.416 448.019> 528 90<275.12 446.484>
VStem: 80 93<252.253 425.851> 549 93<253.709 425.631>
DStem2: 523 566 591 499 0.695225 0.718792<-2.76978 80.4576>
LayerCount: 3
Back
SplineSet
642 340 m 256
 642 280.667 625 227.667 591 181 c 1
 647 122 l 1
 582 53 l 1
 523 114 l 1
 479 78.6666 424.667 61.3333 360 62 c 0
 296.667 62 243 79.3334 199 114 c 1
 140 53 l 1
 75 122 l 1
 131 181 l 1
 97 228.333 80 281.333 80 340 c 256
 80 399.333 97 452.333 131 499 c 1
 75 558 l 1
 140 627 l 1
 199 566 l 1
 243 601.333 296.667 618.667 360 618 c 0
 425.333 618 479.667 600.667 523 566 c 1
 582 627 l 1
 647 558 l 1
 591 499 l 1
 625 452.333 642 399.333 642 340 c 256
549 340 m 0
 549 391.333 530.5 435.5 493.5 472.5 c 128
 456.5 509.5 412.333 528 361 528 c 0
 307.667 528 263 509.5 227 472.5 c 128
 191 435.5 173 391.333 173 340 c 0
 173 286.667 191 242 227 206 c 128
 263 170 307.667 152 361 152 c 0
 412.333 152 456.5 170 493.5 206 c 128
 530.5 242 549 286.667 549 340 c 0
EndSplineSet
Fore
SplineSet
642 340 m 259
 642 281 625 228 591 181 c 1
 647 122 l 1
 582 53 l 1
 523 114 l 1
 479 79 425 62 360 62 c 3
 297 62 243 79 199 114 c 1
 140 53 l 1
 75 122 l 1
 131 181 l 1
 97 228 80 281 80 340 c 259
 80 399 97 452 131 499 c 1
 75 558 l 1
 140 627 l 1
 199 566 l 1
 243 601 297 618 360 618 c 3
 425 618 480 601 523 566 c 1
 582 627 l 1
 647 558 l 1
 591 499 l 1
 625 452 642 399 642 340 c 259
361 528 m 3
 257 528 173 443 173 340 c 3
 173 234 255 152 361 152 c 3
 465 152 549 235 549 340 c 3
 549 442 463 528 361 528 c 3
EndSplineSet
Validated: 1
Layer: 2
SplineSet
642 340 m 259,0,1
 642 251.5 642 251.5 591 181 c 1,2,-1
 647 122 l 1,3,-1
 582 53 l 1,4,-1
 523 114 l 1,5,6
 458 62 458 62 360 62 c 0,7,8
 264 62 264 62 199 114 c 1,9,-1
 140 53 l 1,10,-1
 75 122 l 1,11,-1
 131 181 l 1,12,13
 80 251.5 80 251.5 80 340 c 256,14,15
 80 428.5 80 428.5 131 499 c 1,16,-1
 75 558 l 1,17,-1
 140 627 l 1,18,-1
 199 566 l 1,19,20
 264 618 264 618 360 618 c 0,21,22
 459 618 459 618 523 566 c 1,23,-1
 582 627 l 1,24,-1
 647 558 l 1,25,-1
 591 499 l 1,26,27
 642 428.5 642 428.5 642 340 c 259,0,1
361 528 m 3,28,29
 283 528 283 528 228 472.5 c 128,-1,30
 173 417 173 417 173 340 c 0,31,32
 173 260 173 260 227.5 206 c 128,-1,33
 282 152 282 152 361 152 c 0,34,35
 439 152 439 152 494 206.5 c 128,-1,36
 549 261 549 261 549 340 c 0,37,38
 549 416 549 416 493.5 472 c 128,-1,39
 438 528 438 528 361 528 c 3,28,29
EndSplineSet
EndChar

StartChar: yen
Encoding: 165 165 104
Width: 722
VWidth: 1504
Flags: W
HStem: 137 75<144 317 405 578> 260 75<144 302 418 578>
VStem: 317 88<27 137 212 260>
DStem2: 190 693 84 693 0.520098 -0.854106<0 331.837> 360 408 418 337 0.525696 0.850672<0 332.336>
LayerCount: 3
Fore
SplineSet
578 137 m 1
 405 137 l 1
 405 27 l 1
 317 27 l 1
 317 137 l 1
 144 137 l 1
 144 212 l 1
 317 212 l 1
 317 260 l 1
 144 260 l 1
 144 335 l 1
 302 335 l 1
 84 693 l 1
 190 693 l 1
 360 408 l 1
 531 693 l 1
 638 693 l 1
 418 337 l 1
 578 337 l 1
 578 260 l 1
 405 260 l 1
 405 212 l 1
 578 212 l 1
 578 137 l 1
EndSplineSet
Validated: 1
Layer: 2
SplineSet
578 137 m 1,0,-1
 405 137 l 1,1,-1
 405 27 l 1,2,-1
 317 27 l 1,3,-1
 317 137 l 1,4,-1
 144 137 l 1,5,-1
 144 212 l 1,6,-1
 317 212 l 1,7,-1
 317 260 l 1,8,-1
 144 260 l 1,9,-1
 144 335 l 1,10,-1
 302 335 l 1,11,-1
 84 693 l 1,12,-1
 190 693 l 1,13,-1
 360 408 l 1,14,-1
 531 693 l 1,15,-1
 638 693 l 1,16,-1
 418 337 l 1,17,-1
 578 337 l 1,18,-1
 578 260 l 1,19,-1
 405 260 l 1,20,-1
 405 212 l 1,21,-1
 578 212 l 1,22,-1
 578 137 l 1,0,-1
EndSplineSet
EndChar

StartChar: brokenbar
Encoding: 166 166 105
Width: 242
VWidth: 1504
Flags: W
HStem: 696 20G<84 156>
VStem: 84 72<-179 208 331 716>
LayerCount: 3
Fore
SplineSet
156 331 m 1
 84 331 l 1
 84 716 l 1
 156 716 l 1
 156 331 l 1
156 -179 m 1
 84 -179 l 1
 84 208 l 1
 156 208 l 1
 156 -179 l 1
EndSplineSet
Validated: 1
Layer: 2
SplineSet
156 331 m 1,0,-1
 84 331 l 1,1,-1
 84 716 l 1,2,-1
 156 716 l 1,3,-1
 156 331 l 1,0,-1
156 -179 m 1,4,-1
 84 -179 l 1,5,-1
 84 208 l 1,6,-1
 156 208 l 1,7,-1
 156 -179 l 1,4,-1
EndSplineSet
EndChar

StartChar: section
Encoding: 167 167 106
Width: 571
VWidth: 1504
Flags: W
HStem: -57 68<178.628 353.085> 612 21G<400 431.385> 656 66<218.684 382.752>
VStem: 81 72<332.73 436.219> 113 75<534.307 625.29> 390 72<44.8307 153.517> 412 77<244.096 355.523>
DStem2: 199 316 161 251 0.930973 -0.365088<-52.1818 200.94>
LayerCount: 3
Back
SplineSet
462 107 m 0
 462 55.6667 443.667 15.5 407 -13.5 c 128
 370.333 -42.5 324 -57 268 -57 c 0
 204.667 -57 149.333 -38 102 0 c 1
 137 63 l 1
 157 43.6667 178 30.1667 200 22.5 c 128
 222 14.8333 245.667 11 271 11 c 0
 307 11 335.833 19.1667 357.5 35.5 c 128
 379.167 51.8333 390 73 390 99 c 0
 390 134.333 365.667 164 317 188 c 1
 291.667 198 265.667 208.333 239 219 c 128
 212.333 229.667 186.333 240.334 161 251 c 1
 107.667 277 81 318.333 81 375 c 0
 81 418.333 100.667 457.333 140 492 c 1
 122 515.333 113 541.333 113 570 c 0
 113 615.333 130 652 164 680 c 128
 198 708 243 722 299 722 c 0
 325 722 351.333 718 378 710 c 128
 404.667 702 431 691 457 677 c 1
 420 612 l 1
 380 641.333 337.333 656 292 656 c 0
 262.667 656 238 648.667 218 634 c 128
 198 619.333 188 601 188 579 c 0
 188 567.667 191.333 557.5 198 548.5 c 128
 204.667 539.5 213.334 531 224 523 c 0
 232 517.667 245 511.333 263 504 c 128
 281 496.667 302 489 326 481 c 0
 377.333 463 417.333 440.333 446 413 c 128
 474.667 385.667 489 354.333 489 319 c 0
 489 295.667 484 273.833 474 253.5 c 128
 464 233.167 450.333 213.333 433 194 c 1
 452.333 171.333 462 142.333 462 107 c 0
412 311 m 0
 412 328.333 402.167 345.833 382.5 363.5 c 128
 362.833 381.167 338 395.333 308 406 c 0
 282 415.333 259.333 424 240 432 c 128
 220.666 440 204.333 447 191 453 c 1
 165.667 431 153 406 153 378 c 0
 153 366 157 355.167 165 345.5 c 128
 173 335.833 184.333 326 199 316 c 1
 209 310.667 222.167 304.333 238.5 297 c 128
 254.833 289.667 276 281.333 302 272 c 0
 321.333 264.667 337.5 258.333 350.5 253 c 128
 363.5 247.667 374.667 242 384 236 c 1
 395.333 249.333 402.833 261.833 406.5 273.5 c 128
 410.167 285.167 412 297.667 412 311 c 0
EndSplineSet
Fore
SplineSet
489 319 m 3xea
 489 264 462 226 433 194 c 1
 452 171 462 142 462 107 c 3
 462 1 375 -57 268 -57 c 3
 205 -57 149 -38 102 0 c 1
 137 63 l 1
 171 30 210 11 271 11 c 3
 334 11 390 40 390 99 c 3
 390 134 368 168 317 188 c 0
 266 208 211 230 161 251 c 0
 107 274 81 318 81 375 c 3xf4
 81 418 101 457 140 492 c 1
 122 515 113 541 113 570 c 3
 113 668 197 722 299 722 c 3
 360 722 413 701 457 677 c 1
 420 612 l 1
 380 641 337 656 292 656 c 3
 240 656 188 628 188 579 c 3
 188 552 206 535 224 523 c 0
 249 506 290 493 326 481 c 0
 377 463 417 440 446 413 c 0
 475 386 489 354 489 319 c 3xea
384 236 m 1
 403 258 412 276 412 311 c 3xf2
 412 328 402 346 382 364 c 0
 362 382 338 395 308 406 c 0
 265 422 227 437 191 453 c 1
 166 431 153 406 153 378 c 3
 153 348 176 328 199 316 c 0
 239 295 303 272 350 253 c 0
 363 248 375 242 384 236 c 1
EndSplineSet
Validated: 1
Layer: 2
SplineSet
489 319 m 3,0,1
 489 256 489 256 433 194 c 1,2,3
 462 159 462 159 462 107 c 0,4,5
 462 30 462 30 407 -13.5 c 128,-1,6
 352 -57 352 -57 268 -57 c 0,7,8
 172 -57 172 -57 102 0 c 1,9,-1
 137 63 l 1,10,11
 191 11 191 11 271 11 c 0,12,13
 321 11 321 11 355.5 34 c 128,-1,14
 390 57 390 57 390 99 c 0,15,16
 390 159 390 159 317 188 c 0,17,18
 226 223 226 223 161 251 c 0,19,20
 81 285 81 285 81 375 c 0,21,22
 81 439 81 439 140 492 c 1,23,24
 113 526.5 113 526.5 113 570 c 0,25,26
 113 641 113 641 166 681.5 c 128,-1,27
 219 722 219 722 299 722 c 0,28,29
 374 722 374 722 457 677 c 1,30,-1
 420 612 l 1,31,32
 359 656 359 656 292 656 c 0,33,34
 250 656 250 656 219 635 c 128,-1,35
 188 614 188 614 188 579 c 0,36,37
 188 547 188 547 224 523 c 0,38,39
 247 507 247 507 326 481 c 0,40,41
 402 454 402 454 446 413 c 0,42,43
 489 373 489 373 489 319 c 3,0,1
384 236 m 1,44,45
 412 268 412 268 412 311 c 0,46,47
 412 337 412 337 382 364 c 0,48,49
 354 389 354 389 308 406 c 0,50,51
 239 432 239 432 191 453 c 1,52,53
 153 420 153 420 153 378 c 0,54,55
 153 340 153 340 199 316 c 0,56,57
 215 307 215 307 350 253 c 0,58,59
 370 245 370 245 384 236 c 1,44,45
EndSplineSet
EndChar

StartChar: dieresis
Encoding: 168 168 107
Width: 512
VWidth: 1504
Flags: W
HStem: 573 132<97.3035 192.725 321.228 415.202>
VStem: 80 131<591.025 686.612> 302 131<591.388 686.249>
LayerCount: 3
Back
SplineSet
211 639 m 0
 211 619.664 204.333 603.831 191 591.5 c 128
 177.667 579.167 162.667 573 146 573 c 0
 128 573 112.5 579.333 99.5 592 c 128
 86.5 604.669 80 620.336 80 639 c 0
 80 657 86.5 672.5 99.5 685.5 c 128
 112.5 698.5 128 705 146 705 c 0
 163.333 705 178.5 698.5 191.5 685.5 c 128
 204.5 672.5 211 657 211 639 c 0
433 639 m 0
 433 619.664 426.5 603.831 413.5 591.5 c 128
 400.5 579.167 385.667 573 369 573 c 256
 351.667 573 336.167 579.333 322.5 592 c 128
 308.833 604.669 302 620.336 302 639 c 0
 302 657 308.833 672.5 322.5 685.5 c 128
 336.167 698.5 351.667 705 369 705 c 256
 386.333 705 401.333 698.5 414 685.5 c 128
 426.667 672.5 433 657 433 639 c 0
EndSplineSet
Fore
SplineSet
146 705 m 3
 181 705 211 674 211 639 c 3
 211 603 181 573 146 573 c 3
 110 573 80 602 80 639 c 3
 80 675 110 705 146 705 c 3
369 705 m 259
 404 705 433 674 433 639 c 3
 433 603 404 573 369 573 c 259
 334 573 302 603 302 639 c 3
 302 674 334 705 369 705 c 259
EndSplineSet
Validated: 1
Layer: 2
SplineSet
146 705 m 3,0,1
 172 705 172 705 191.5 685 c 128,-1,2
 211 665 211 665 211 639 c 0,3,4
 211 612 211 612 191.5 592.5 c 128,-1,5
 172 573 172 573 146 573 c 0,6,7
 119 573 119 573 99.5 592 c 128,-1,8
 80 611 80 611 80 639 c 0,9,10
 80 666 80 666 99.5 685.5 c 128,-1,11
 119 705 119 705 146 705 c 3,0,1
369 705 m 259,12,13
 395 705 395 705 414 685 c 128,-1,14
 433 665 433 665 433 639 c 0,15,16
 433 612 433 612 414 592.5 c 128,-1,17
 395 573 395 573 369 573 c 0,18,19
 342 573 342 573 322 592.5 c 128,-1,20
 302 612 302 612 302 639 c 0,21,22
 302 665 302 665 322.5 685 c 128,-1,23
 343 705 343 705 369 705 c 259,12,13
EndSplineSet
EndChar

StartChar: copyright
Encoding: 169 169 108
Width: 812
VWidth: 1504
Flags: W
HStem: -5 64<297.211 514.835> 132 62<319.461 511.467> 520 58<318.098 510.571> 663 64<297.211 514.65>
VStem: 41 63<252.165 469.835> 185 69<262.328 453.814> 708 64<252.35 469.65>
LayerCount: 3
Back
SplineSet
558 176 m 1
 520 146.667 468.333 132 403 132 c 0
 335.667 132 282.5 153.167 243.5 195.5 c 128
 204.5 237.833 185 289.333 185 350 c 0
 185 420 205.5 475.5 246.5 516.5 c 128
 287.5 557.5 342.333 578 411 578 c 0
 472.333 578 519 566 551 542 c 1
 532 487 l 1
 494 509 453.667 520 411 520 c 0
 307 520 254.667 466 254 358 c 0
 254 248.667 306.667 194 412 194 c 0
 461.334 194 503.667 206.667 539 232 c 1
 558 176 l 1
772 361 m 256
 772 261 736.167 175 664.5 103 c 128
 592.833 31 506.667 -5 406 -5 c 256
 306 -5 220.167 31 148.5 103 c 128
 76.8333 175 41 261 41 361 c 256
 41 461 76.8333 547 148.5 619 c 128
 220.167 691 306 727 406 727 c 256
 506 727 592 691 664 619 c 128
 736 547 772 461 772 361 c 256
708 361 m 256
 708 444.333 678.5 515.5 619.5 574.5 c 128
 560.5 633.5 489.333 663 406 663 c 256
 322.667 663 251.5 633.5 192.5 574.5 c 128
 133.5 515.5 104 444.333 104 361 c 256
 104 277.667 133.5 206.5 192.5 147.5 c 128
 251.5 88.5 322.667 59 406 59 c 256
 489.333 59 560.5 88.5 619.5 147.5 c 128
 678.5 206.5 708 277.667 708 361 c 256
EndSplineSet
Fore
SplineSet
185 350 m 3
 185 488 273 578 411 578 c 3
 472 578 519 566 551 542 c 1
 532 487 l 1
 494 509 454 520 411 520 c 3
 307 520 254 466 254 358 c 3
 254 249 307 194 412 194 c 3
 461 194 504 207 539 232 c 1
 558 176 l 1
 520 147 468 132 403 132 c 3
 275 132 185 225 185 350 c 3
772 361 m 259
 772 163 605 -5 406 -5 c 259
 207 -5 41 162 41 361 c 259
 41 560 207 727 406 727 c 259
 604 727 772 559 772 361 c 259
708 361 m 259
 708 526 571 663 406 663 c 259
 241 663 104 526 104 361 c 259
 104 196 241 59 406 59 c 259
 571 59 708 196 708 361 c 259
EndSplineSet
Validated: 1
Layer: 2
SplineSet
185 350 m 3,0,1
 185 454 185 454 246.5 516 c 128,-1,2
 308 578 308 578 411 578 c 0,3,4
 503 578 503 578 551 542 c 1,5,-1
 532 487 l 1,6,7
 475 520 475 520 411 520 c 0,8,9
 254 520 254 520 254 358 c 0,10,11
 254 194 254 194 412 194 c 0,12,13
 486 194 486 194 539 232 c 1,14,-1
 558 176 l 1,15,16
 500 132 500 132 403 132 c 0,17,18
 308 132 308 132 246.5 194 c 128,-1,19
 185 256 185 256 185 350 c 3,0,1
772 361 m 259,20,21
 772 212 772 212 663.5 103.5 c 128,-1,22
 555 -5 555 -5 406 -5 c 128,-1,23
 257 -5 257 -5 149 103.5 c 128,-1,24
 41 212 41 212 41 361 c 128,-1,25
 41 510 41 510 149 618.5 c 128,-1,26
 257 727 257 727 406 727 c 0,27,28
 554 727 554 727 663 618.5 c 128,-1,29
 772 510 772 510 772 361 c 259,20,21
708 361 m 259,30,31
 708 485 708 485 619 574 c 128,-1,32
 530 663 530 663 406 663 c 128,-1,33
 282 663 282 663 193 574 c 128,-1,34
 104 485 104 485 104 361 c 128,-1,35
 104 237 104 237 193 148 c 128,-1,36
 282 59 282 59 406 59 c 128,-1,37
 530 59 530 59 619 148 c 128,-1,38
 708 237 708 237 708 361 c 259,30,31
EndSplineSet
EndChar

StartChar: ordfeminine
Encoding: 170 170 109
Width: 379
VWidth: 1504
Flags: W
HStem: 369 55<114.169 237.009> 546 56<134.325 260> 671 60<90.5105 240.669>
VStem: 39 66<434.227 518.788> 260 66<447.069 546 602 649.427> 274 64<373 411.042>
LayerCount: 3
Back
SplineSet
338 373 m 1
 274 373 l 1
 272 378.336 270.5 384.17 269.5 390.5 c 128
 268.5 396.833 267 404 265 412 c 1
 237 382.667 201.667 368.333 159 369 c 0
 79 369 39 405 39 477 c 0
 39 557 112.667 598.667 260 602 c 1
 258 627.333 249.333 645.167 234 655.5 c 128
 218.667 665.833 201 671 181 671 c 0
 163.667 671 146.167 669 128.5 665 c 128
 110.833 661 93.6666 653 77 641 c 1
 56 692 l 1
 77.3333 706 99.3333 716 122 722 c 128
 144.667 728 167.667 731 191 731 c 0
 281 731 326 676 326 566 c 2
 326 439 l 2
 326 433.667 326.667 425.333 328 414 c 128
 329.338 402.667 332.672 389 338 373 c 1
260 487 m 2
 260 546 l 1
 206 546 166.667 540.167 142 528.5 c 128
 117.333 516.833 105 499.667 105 477 c 0
 105 441.667 126 424 168 424 c 0
 177.333 424 187.333 425.5 198 428.5 c 128
 208.667 431.5 218.667 435.833 228 441.5 c 128
 237.333 447.167 245 453.667 251 461 c 128
 257 468.333 260 477 260 487 c 2
EndSplineSet
Fore
SplineSet
326 439 m 2xf8
 326 416 330 396 338 373 c 1
 274 373 l 1xf4
 269 385 269 398 265 412 c 1
 237 383 202 369 159 369 c 3
 79 369 39 405 39 477 c 3
 39 557 113 599 260 602 c 1
 256 648 227 671 181 671 c 3
 138 671 105 661 77 641 c 1
 56 692 l 1
 93 716 135 731 191 731 c 3
 281 731 326 676 326 566 c 2
 326 439 l 2xf8
260 487 m 2xf8
 260 546 l 1
 184 546 105 537 105 477 c 3
 105 442 126 424 168 424 c 3
 209 424 260 447 260 487 c 2xf8
EndSplineSet
Validated: 1
Layer: 2
SplineSet
326 439 m 2,0,1
 326 408 326 408 338 373 c 1,2,-1
 274 373 l 1,3,4
 271 380 271 380 269 393 c 128,-1,5
 267 406 267 406 265 412 c 1,6,7
 223 369 223 369 159 369 c 0,8,9
 39 369 39 369 39 477 c 0,10,11
 39 597 39 597 260 602 c 1,12,13
 254 671 254 671 181 671 c 0,14,15
 119 671 119 671 77 641 c 1,16,-1
 56 692 l 1,17,18
 116 731 116 731 191 731 c 0,19,20
 326 731 326 731 326 566 c 2,21,-1
 326 439 l 2,0,1
260 487 m 2,22,-1
 260 546 l 1,23,24
 105 546 105 546 105 477 c 0,25,26
 105 424 105 424 168 424 c 0,27,28
 202 424 202 424 231 441.5 c 128,-1,29
 260 459 260 459 260 487 c 2,22,-1
EndSplineSet
EndChar

StartChar: guillemotleft
Encoding: 171 171 110
Width: 535
VWidth: 1504
Flags: W
DStem2: 45 269 134 269 0.640553 0.767914<57.0092 264.395> 134 269 45 269 0.657966 -0.753048<0 202.399> 229 269 319 271 0.644252 0.764813<59.5123 265.424> 319 271 229 269 0.649852 -0.760061<0 204.65>
LayerCount: 3
Fore
SplineSet
490 71 m 1
 400 71 l 1
 229 269 l 1
 400 472 l 1
 489 472 l 1
 319 271 l 1
 490 71 l 1
307 71 m 1
 215 71 l 1
 45 269 l 1
 212 474 l 1
 305 474 l 1
 134 269 l 1
 307 71 l 1
EndSplineSet
Validated: 1
Layer: 2
SplineSet
490 71 m 1,0,-1
 400 71 l 1,1,-1
 229 269 l 1,2,-1
 400 472 l 1,3,-1
 489 472 l 1,4,-1
 319 271 l 1,5,-1
 490 71 l 1,0,-1
307 71 m 1,6,-1
 215 71 l 1,7,-1
 45 269 l 1,8,-1
 212 474 l 1,9,-1
 305 474 l 1,10,-1
 134 269 l 1,11,-1
 307 71 l 1,6,-1
EndSplineSet
EndChar

StartChar: logicalnot
Encoding: 172 172 111
Width: 673
VWidth: 1504
Flags: W
HStem: 352 68<51 534>
VStem: 534 72<132 352>
LayerCount: 3
Fore
SplineSet
606 132 m 1
 534 132 l 1
 534 352 l 1
 51 352 l 1
 51 420 l 1
 606 420 l 1
 606 132 l 1
EndSplineSet
Validated: 1
Layer: 2
SplineSet
606 132 m 1,0,-1
 534 132 l 1,1,-1
 534 352 l 1,2,-1
 51 352 l 1,3,-1
 51 420 l 1,4,-1
 606 420 l 1,5,-1
 606 132 l 1,0,-1
EndSplineSet
EndChar

StartChar: registered
Encoding: 174 174 112
Width: 812
VWidth: 1504
Flags: W
HStem: -5 64<297.211 514.835> 331 50<319 445.259> 537 53<320.096 470.865> 663 64<297.211 514.65>
VStem: 41 63<252.165 469.835> 257 62<134 331 381 535.942> 499 56<405.438 510.787> 511 59<134 231.954> 708 64<252.35 469.65>
LayerCount: 3
Back
SplineSet
570 134 m 1
 511 134 l 1
 493 265.333 454 331 394 331 c 2
 319 331 l 1
 319 134 l 1
 257 134 l 1
 257 578 l 1
 303 586 344.333 590 381 590 c 0
 434.334 590 476.667 578.667 508 556 c 128
 539.333 533.333 555 502.333 555 463 c 0
 555 411 530.333 374 481 352 c 1
 505 334.667 523.333 311 536 281 c 128
 548.667 251 560 202 570 134 c 1
499 459 m 256
 499 511 459.667 537 381 537 c 0
 355.667 537 335 536 319 534 c 1
 319 381 l 1
 390 381 l 2
 462.667 381 499 407 499 459 c 256
772 361 m 256
 772 261 736.167 175 664.5 103 c 128
 592.833 31 506.667 -5 406 -5 c 256
 306 -5 220.167 31 148.5 103 c 128
 76.8333 175 41 261 41 361 c 256
 41 461 76.8333 547 148.5 619 c 128
 220.167 691 306 727 406 727 c 256
 506 727 592 691 664 619 c 128
 736 547 772 461 772 361 c 256
708 361 m 256
 708 444.333 678.5 515.5 619.5 574.5 c 128
 560.5 633.5 489.333 663 406 663 c 256
 322.667 663 251.5 633.5 192.5 574.5 c 128
 133.5 515.5 104 444.333 104 361 c 256
 104 277.667 133.5 206.5 192.5 147.5 c 128
 251.5 88.5 322.667 59 406 59 c 256
 489.333 59 560.5 88.5 619.5 147.5 c 128
 678.5 206.5 708 277.667 708 361 c 256
EndSplineSet
Fore
SplineSet
381 590 m 3xfd80
 475 590 555 551 555 463 c 3xfe80
 555 411 530 374 481 352 c 1
 544 307 554 244 570 134 c 1
 511 134 l 1
 493 265 454 331 394 331 c 2
 319 331 l 1
 319 134 l 1
 257 134 l 1
 257 578 l 1
 303 586 344 590 381 590 c 3xfd80
499 459 m 259
 499 511 460 537 381 537 c 3
 356 537 335 536 319 534 c 1
 319 381 l 1
 390 381 l 2
 463 381 499 407 499 459 c 259
772 361 m 259
 772 163 605 -5 406 -5 c 259
 207 -5 41 162 41 361 c 259
 41 560 207 727 406 727 c 259
 604 727 772 559 772 361 c 259
708 361 m 259
 708 526 571 663 406 663 c 259
 241 663 104 526 104 361 c 259
 104 196 241 59 406 59 c 259
 571 59 708 196 708 361 c 259
EndSplineSet
Validated: 1
Layer: 2
SplineSet
381 590 m 3,0,1
 457 590 457 590 506 558 c 128,-1,2
 555 526 555 526 555 463 c 0,3,4
 555 385 555 385 481 352 c 1,5,6
 524 321 524 321 540 276 c 128,-1,7
 556 231 556 231 570 134 c 1,8,-1
 511 134 l 1,9,10
 484 331 484 331 394 331 c 2,11,-1
 319 331 l 1,12,-1
 319 134 l 1,13,-1
 257 134 l 1,14,-1
 257 578 l 1,15,16
 326 590 326 590 381 590 c 3,0,1
499 459 m 259,17,18
 499 537 499 537 381 537 c 0,19,20
 343 537 343 537 319 534 c 1,21,-1
 319 381 l 1,22,-1
 390 381 l 2,23,24
 499 381 499 381 499 459 c 259,17,18
772 361 m 259,25,26
 772 212 772 212 663.5 103.5 c 128,-1,27
 555 -5 555 -5 406 -5 c 128,-1,28
 257 -5 257 -5 149 103.5 c 128,-1,29
 41 212 41 212 41 361 c 128,-1,30
 41 510 41 510 149 618.5 c 128,-1,31
 257 727 257 727 406 727 c 0,32,33
 554 727 554 727 663 618.5 c 128,-1,34
 772 510 772 510 772 361 c 259,25,26
708 361 m 259,35,36
 708 485 708 485 619 574 c 128,-1,37
 530 663 530 663 406 663 c 128,-1,38
 282 663 282 663 193 574 c 128,-1,39
 104 485 104 485 104 361 c 128,-1,40
 104 237 104 237 193 148 c 128,-1,41
 282 59 282 59 406 59 c 128,-1,42
 530 59 530 59 619 148 c 128,-1,43
 708 237 708 237 708 361 c 259,35,36
EndSplineSet
EndChar

StartChar: macron
Encoding: 175 175 113
Width: 565
VWidth: 1504
Flags: W
HStem: 794 80<0 566>
LayerCount: 3
Fore
SplineSet
566 794 m 1
 0 794 l 1
 0 874 l 1
 566 874 l 1
 566 794 l 1
EndSplineSet
Validated: 1
Layer: 2
SplineSet
566 794 m 1,0,-1
 0 794 l 1,1,-1
 0 874 l 1,2,-1
 566 874 l 1,3,-1
 566 794 l 1,0,-1
EndSplineSet
EndChar

StartChar: degree
Encoding: 176 176 114
Width: 416
VWidth: 1504
Flags: W
HStem: 463 48<152.592 262.891> 683 48<152.592 262.902>
VStem: 74 48<541.807 652.408> 293 48<541.592 652.408>
LayerCount: 3
Back
SplineSet
341 597 m 256
 341 559.667 328 528 302 502 c 128
 276 476 244.667 463 208 463 c 256
 170.667 463 139 476.167 113 502.5 c 128
 87 528.833 74 560.333 74 597 c 256
 74 634.333 87 666 113 692 c 128
 139 718 170.667 731 208 731 c 256
 245.333 731 276.833 718 302.5 692 c 128
 328.167 666 341 634.333 341 597 c 256
293 597 m 256
 293 620.333 284.5 640.5 267.5 657.5 c 128
 250.5 674.5 230.667 683 208 683 c 256
 184.667 683 164.5 674.5 147.5 657.5 c 128
 130.5 640.5 122 620.333 122 597 c 256
 122 573.667 130.5 553.5 147.5 536.5 c 128
 164.5 519.5 184.667 511 208 511 c 256
 231.333 511 251.333 519.5 268 536.5 c 128
 284.667 553.5 293 573.667 293 597 c 256
EndSplineSet
Fore
SplineSet
208 731 m 259
 282 731 341 671 341 597 c 259
 341 523 281 463 208 463 c 259
 134 463 74 524 74 597 c 259
 74 671 134 731 208 731 c 259
208 511 m 259
 254 511 293 551 293 597 c 259
 293 643 253 683 208 683 c 259
 162 683 122 643 122 597 c 259
 122 551 162 511 208 511 c 259
EndSplineSet
Validated: 1
Layer: 2
SplineSet
208 731 m 259,0,1
 263 731 263 731 302 692 c 128,-1,2
 341 653 341 653 341 597 c 0,3,4
 341 542 341 542 302 502.5 c 128,-1,5
 263 463 263 463 208 463 c 128,-1,6
 153 463 153 463 113.5 502.5 c 128,-1,7
 74 542 74 542 74 597 c 128,-1,8
 74 652 74 652 113 691.5 c 128,-1,9
 152 731 152 731 208 731 c 259,0,1
208 511 m 259,10,11
 242 511 242 511 267.5 536.5 c 128,-1,12
 293 562 293 562 293 597 c 0,13,14
 293 631 293 631 267.5 657 c 128,-1,15
 242 683 242 683 208 683 c 128,-1,16
 174 683 174 683 148 657.5 c 128,-1,17
 122 632 122 632 122 597 c 128,-1,18
 122 562 122 562 148 536.5 c 128,-1,19
 174 511 174 511 208 511 c 259,10,11
EndSplineSet
EndChar

StartChar: plusminus
Encoding: 177 177 115
Width: 661
VWidth: 1504
Flags: W
HStem: 0 83<54 609> 326 83<62 284 379 602>
VStem: 284 95<117 326 409 636>
LayerCount: 3
Fore
SplineSet
609 0 m 1
 54 0 l 1
 54 83 l 1
 609 83 l 1
 609 0 l 1
602 326 m 1
 379 326 l 1
 379 117 l 1
 284 117 l 1
 284 326 l 1
 62 326 l 1
 62 409 l 1
 284 409 l 1
 284 636 l 1
 379 636 l 1
 379 409 l 1
 602 409 l 1
 602 326 l 1
EndSplineSet
Validated: 1
Layer: 2
SplineSet
609 0 m 1,0,-1
 54 0 l 1,1,-1
 54 83 l 1,2,-1
 609 83 l 1,3,-1
 609 0 l 1,0,-1
602 326 m 1,4,-1
 379 326 l 1,5,-1
 379 117 l 1,6,-1
 284 117 l 1,7,-1
 284 326 l 1,8,-1
 62 326 l 1,9,-1
 62 409 l 1,10,-1
 284 409 l 1,11,-1
 284 636 l 1,12,-1
 379 636 l 1,13,-1
 379 409 l 1,14,-1
 602 409 l 1,15,-1
 602 326 l 1,4,-1
EndSplineSet
EndChar

StartChar: twosuperior
Encoding: 178 178 116
Width: 391
VWidth: 1504
Flags: W
HStem: 286 67<149 326> 657 68<153.616 246.887>
VStem: 65 63<585.667 629.442> 256 72<547.841 649.301>
DStem2: 74 376 149 353 0.696368 0.717685<35.7208 282.735>
LayerCount: 3
Back
SplineSet
326 286 m 1
 41 286 l 1
 41 317.334 52.1667 347.167 74.5 375.5 c 128
 96.8333 403.833 121.333 431 148 457 c 128
 174.667 483 199.334 508.333 222 533 c 128
 244.667 557.667 256 581.667 256 605 c 0
 256 622.333 251.167 635.333 241.5 644 c 128
 231.833 652.667 219.667 657 205 657 c 0
 185.667 657 168.5 650 153.5 636 c 128
 138.5 622 130 601.667 128 575 c 1
 65 587 l 1
 70.3333 632.333 84.8333 666.667 108.5 690 c 128
 132.167 713.333 162.667 725 200 725 c 0
 238 725 268.833 714.167 292.5 692.5 c 128
 316.167 670.833 328 641.667 328 605 c 0
 328 583.667 321.5 560.5 308.5 535.5 c 128
 295.5 510.5 275 483.333 247 454 c 2
 149 353 l 1
 335 353 l 1
 326 286 l 1
EndSplineSet
Fore
SplineSet
200 725 m 3
 275 725 328 679 328 605 c 3
 328 584 321 561 308 536 c 0
 295 511 275 483 247 454 c 2
 149 353 l 1
 335 353 l 1
 326 286 l 1
 41 286 l 1
 41 317 52 348 74 376 c 0
 117 431 176 483 222 533 c 0
 245 558 256 582 256 605 c 3
 256 638 236 657 205 657 c 3
 160 657 131 621 128 575 c 1
 65 587 l 1
 74 667 116 725 200 725 c 3
EndSplineSet
Validated: 1
Layer: 2
SplineSet
200 725 m 3,0,1
 257 725 257 725 292.5 692.5 c 128,-1,2
 328 660 328 660 328 605 c 0,3,4
 328 574 328 574 308 536 c 0,5,6
 287 495 287 495 247 454 c 2,7,-1
 149 353 l 1,8,-1
 335 353 l 1,9,-1
 326 286 l 1,10,-1
 41 286 l 1,11,12
 41 334 41 334 74 376 c 0,13,14
 99 408 99 408 155.5 465 c 128,-1,15
 212 522 212 522 222 533 c 0,16,17
 256 570 256 570 256 605 c 0,18,19
 256 630 256 630 242 643.5 c 128,-1,20
 228 657 228 657 205 657 c 0,21,22
 172 657 172 657 151 634 c 128,-1,23
 130 611 130 611 128 575 c 1,24,-1
 65 587 l 1,25,26
 72 650 72 650 106 687.5 c 128,-1,27
 140 725 140 725 200 725 c 3,0,1
EndSplineSet
EndChar

StartChar: threesuperior
Encoding: 179 179 117
Width: 391
VWidth: 1504
Flags: W
HStem: 281 71<95.2577 238.039> 659 68<151.443 244.872>
VStem: 247 66<577.76 656.354> 272 71<384.422 484.357>
LayerCount: 3
Back
SplineSet
343 442 m 0
 343 394 327.167 355.5 295.5 326.5 c 128
 263.833 297.5 221 282.333 167 281 c 0
 125.667 281 88 293.667 54 319 c 1
 84 382 l 1
 98 370 112 362 126 358 c 128
 140 354 154 352 168 352 c 0
 200 352 225.333 360.333 244 377 c 128
 262.667 393.667 272 415 272 441 c 0
 272 458.333 266.833 471.333 256.5 480 c 128
 246.167 488.667 234 493 220 493 c 0
 208 493 195.833 490.833 183.5 486.5 c 128
 171.167 482.167 161 477 153 471 c 1
 129 516 l 1
 168.333 534 197.833 552.833 217.5 572.5 c 128
 237.167 592.167 247 610 247 626 c 0
 247 648 233 659 205 659 c 0
 187.667 659 171 653.167 155 641.5 c 128
 139 629.833 127 612.667 119 590 c 1
 63 618 l 1
 94.3333 690 143 726.333 209 727 c 0
 278.333 727 313 697.333 313 638 c 0
 313 604 297 573 265 545 c 1
 317 529.667 343 495.333 343 442 c 0
EndSplineSet
Fore
SplineSet
205 659 m 3xe0
 162 659 132 626 119 590 c 1
 63 618 l 1
 94 690 143 727 209 727 c 3
 278 727 313 697 313 638 c 3xe0
 313 604 297 573 265 545 c 1
 317 530 343 495 343 442 c 3
 343 341 269 281 167 281 c 3
 126 281 88 294 54 319 c 1
 84 382 l 1
 107 362 131 352 168 352 c 3
 227 352 272 385 272 441 c 3xd0
 272 473 250 493 220 493 c 3
 195 493 168 482 153 471 c 1
 129 516 l 1
 178 539 247 573 247 626 c 3
 247 648 233 659 205 659 c 3xe0
EndSplineSet
Validated: 1
Layer: 2
SplineSet
205 659 m 3,0,1
 175 659 175 659 152.5 639 c 128,-1,2
 130 619 130 619 119 590 c 1,3,-1
 63 618 l 1,4,5
 110 727 110 727 209 727 c 0,6,7
 313 727 313 727 313 638 c 0,8,9
 313 587 313 587 265 545 c 1,10,11
 343 522 343 522 343 442 c 0,12,13
 343 368 343 368 294 324.5 c 128,-1,14
 245 281 245 281 167 281 c 0,15,16
 106 281 106 281 54 319 c 1,17,-1
 84 382 l 1,18,19
 118 352 118 352 168 352 c 0,20,21
 213 352 213 352 242.5 376 c 128,-1,22
 272 400 272 400 272 441 c 0,23,24
 272 465 272 465 257.5 479 c 128,-1,25
 243 493 243 493 220 493 c 0,26,27
 183 493 183 493 153 471 c 1,28,-1
 129 516 l 1,29,30
 162 532 162 532 183 543.5 c 128,-1,31
 204 555 204 555 225.5 578.5 c 128,-1,32
 247 602 247 602 247 626 c 0,33,34
 247 659 247 659 205 659 c 3,0,1
EndSplineSet
EndChar

StartChar: acute
Encoding: 180 180 118
Width: 389
VWidth: 1504
Flags: W
HStem: 551 173
VStem: 80 230
LayerCount: 3
Fore
SplineSet
150 551 m 1
 80 551 l 1
 193 724 l 1
 310 724 l 1
 150 551 l 1
EndSplineSet
Validated: 1
Layer: 2
SplineSet
150 551 m 1,0,-1
 80 551 l 1,1,-1
 193 724 l 1,2,-1
 310 724 l 1,3,-1
 150 551 l 1,0,-1
EndSplineSet
EndChar

StartChar: micro
Encoding: 181 181 119
Width: 622
VWidth: 1504
Flags: W
HStem: -14 85<220.364 375.372> 494 20G<71 165 454 549>
VStem: 71 94<-212 36 131.075 514> 454 95<141.987 514>
LayerCount: 3
Back
SplineSet
581 6 m 1
 489 -12 l 1
 483.667 -0.666667 479.333 10.6667 476 22 c 128
 472.667 33.3333 469.333 46 466 60 c 1
 438 38 409.167 20.1667 379.5 6.5 c 128
 349.833 -7.16667 317.666 -14 283 -14 c 0
 259.667 -14 237.833 -9.83333 217.5 -1.5 c 128
 197.167 6.83333 179.667 19.3333 165 36 c 1
 165 -212 l 1
 71 -212 l 1
 71 514 l 1
 165 514 l 1
 165 241 l 2
 165 127.667 208.333 71 295 71 c 0
 332.333 71 368.167 83.6667 402.5 109 c 128
 436.833 134.333 454 167.667 454 209 c 2
 454 514 l 1
 549 514 l 1
 549 137 l 2
 549 119 551.833 99 557.5 77 c 128
 563.167 55 571 31.3333 581 6 c 1
EndSplineSet
Fore
SplineSet
466 60 m 1
 417 22 363 -14 283 -14 c 3
 231 -14 191 6 165 36 c 1
 165 -212 l 1
 71 -212 l 1
 71 514 l 1
 165 514 l 1
 165 241 l 2
 165 128 208 71 295 71 c 3
 372 71 454 130 454 209 c 2
 454 514 l 1
 549 514 l 1
 549 137 l 2
 549 89 565 47 581 6 c 1
 489 -12 l 1
 478 11 473 32 466 60 c 1
EndSplineSet
Validated: 1
Layer: 2
SplineSet
466 60 m 1,0,1
 420 25 420 25 378.5 5.5 c 128,-1,2
 337 -14 337 -14 283 -14 c 0,3,4
 208 -14 208 -14 165 36 c 1,5,-1
 165 -212 l 1,6,-1
 71 -212 l 1,7,-1
 71 514 l 1,8,-1
 165 514 l 1,9,-1
 165 241 l 2,10,11
 165 71 165 71 295 71 c 0,12,13
 355 71 355 71 404.5 111.5 c 128,-1,14
 454 152 454 152 454 209 c 2,15,-1
 454 514 l 1,16,-1
 549 514 l 1,17,-1
 549 137 l 2,18,19
 549 88 549 88 581 6 c 1,20,-1
 489 -12 l 1,21,22
 479 10 479 10 466 60 c 1,0,1
EndSplineSet
EndChar

StartChar: paragraph
Encoding: 182 182 120
Width: 571
VWidth: 1504
Flags: W
HStem: 666 48<364 435.303>
VStem: 72 292<391.923 589.85> 311 53<-95 271> 436 51<-95 666>
LayerCount: 3
Back
SplineSet
487 -95 m 1
 436 -95 l 1
 436 666 l 1
 364 666 l 1
 364 -95 l 1
 311 -95 l 1
 311 271 l 1
 305 271 l 2
 245 271 191.167 289.833 143.5 327.5 c 128
 95.8333 365.167 72 417 72 483 c 0
 72 637.667 171.333 714.667 370 714 c 4
 423.333 714 462.333 711.667 487 707 c 1
 487 -95 l 1
EndSplineSet
Fore
SplineSet
487 -95 m 1xd0
 436 -95 l 1
 436 666 l 1
 364 666 l 1
 364 -95 l 1
 311 -95 l 1
 311 271 l 1xb0
 305 271 l 2
 182 271 72 357 72 483 c 3
 72 638 171 714 370 714 c 3
 423 714 462 712 487 707 c 1
 487 -95 l 1xd0
EndSplineSet
Validated: 1
Layer: 2
SplineSet
487 -95 m 1,0,-1
 436 -95 l 1,1,-1
 436 666 l 1,2,-1
 364 666 l 1,3,-1
 364 -95 l 1,4,-1
 311 -95 l 1,5,-1
 311 271 l 1,6,-1
 305 271 l 2,7,8
 210 271 210 271 141 331 c 128,-1,9
 72 391 72 391 72 483 c 0,10,11
 72 714 72 714 370 714 c 0,12,13
 452 714 452 714 487 707 c 1,14,-1
 487 -95 l 1,0,-1
EndSplineSet
EndChar

StartChar: periodcentered
Encoding: 183 183 121
Width: 258
VWidth: 1504
Flags: W
HStem: 202 144<78 180.5>
VStem: 57 145<223 325>
LayerCount: 3
Back
SplineSet
202 274 m 256
 202 254 194.833 237 180.5 223 c 128
 166.167 209 149 202 129 202 c 256
 109 202 92 209 78 223 c 128
 64 237 57 254 57 274 c 256
 57 294 64 311 78 325 c 128
 92 339 109 346 129 346 c 256
 149 346 166.167 339 180.5 325 c 128
 194.833 311 202 294 202 274 c 256
EndSplineSet
Fore
SplineSet
129 346 m 259
 169 346 202 314 202 274 c 259
 202 234 169 202 129 202 c 259
 89 202 57 234 57 274 c 259
 57 314 89 346 129 346 c 259
EndSplineSet
Validated: 1
Layer: 2
SplineSet
129 346 m 259,0,1
 159 346 159 346 180.5 325 c 128,-1,2
 202 304 202 304 202 274 c 128,-1,3
 202 244 202 244 180.5 223 c 128,-1,4
 159 202 159 202 129 202 c 128,-1,5
 99 202 99 202 78 223 c 128,-1,6
 57 244 57 244 57 274 c 128,-1,7
 57 304 57 304 78 325 c 128,-1,8
 99 346 99 346 129 346 c 259,0,1
EndSplineSet
EndChar

StartChar: cedilla
Encoding: 184 184 122
Width: 374
VWidth: 1504
Flags: W
HStem: -239 52<96.6887 220.79>
VStem: 226 69<-181.001 -107.324>
LayerCount: 3
Back
SplineSet
295 -135 m 0
 295 -167 284.5 -192.333 263.5 -211 c 128
 242.5 -229.667 212.667 -239 174 -239 c 0
 160 -239 144.5 -236.833 127.5 -232.5 c 128
 110.5 -228.167 94.6667 -221.333 80 -212 c 1
 101 -164 l 1
 115 -171.333 129.167 -177 143.5 -181 c 128
 157.833 -185 169 -187 177 -187 c 0
 209 -187 225.333 -171.667 226 -141 c 0
 226 -113 193.667 -93.6667 129 -83 c 1
 194 17 l 1
 259 17 l 1
 217 -42 l 1
 244.333 -50 264.167 -61.6667 276.5 -77 c 128
 288.833 -92.3333 295 -111.667 295 -135 c 0
EndSplineSet
Fore
SplineSet
217 -42 m 1
 264 -56 295 -80 295 -135 c 3
 295 -204 246 -239 174 -239 c 3
 139 -239 104 -227 80 -212 c 1
 101 -164 l 1
 121 -174 152 -187 177 -187 c 3
 209 -187 226 -172 226 -141 c 3
 226 -113 194 -94 129 -83 c 1
 194 17 l 1
 259 17 l 1
 217 -42 l 1
EndSplineSet
Validated: 1
Layer: 2
SplineSet
217 -42 m 1,0,1
 295 -65 295 -65 295 -135 c 0,2,3
 295 -185 295 -185 262.5 -212 c 128,-1,4
 230 -239 230 -239 174 -239 c 0,5,6
 123 -239 123 -239 80 -212 c 1,7,-1
 101 -164 l 1,8,9
 147 -187 147 -187 177 -187 c 0,10,11
 226 -187 226 -187 226 -141 c 0,12,13
 226 -99 226 -99 129 -83 c 1,14,-1
 194 17 l 1,15,-1
 259 17 l 1,16,-1
 217 -42 l 1,0,1
EndSplineSet
EndChar

StartChar: onesuperior
Encoding: 185 185 123
Width: 391
VWidth: 1504
Flags: W
HStem: 293 59<114 179 253 316> 708 20G<183.477 221>
VStem: 179 74<352 623>
LayerCount: 3
Back
SplineSet
316 293 m 1
 114 293 l 1
 114 352 l 1
 179 352 l 1
 179 623 l 1
 119 566 l 1
 81 617 l 1
 206 728 l 1
 221.333 728 233 723.167 241 713.5 c 128
 249 703.833 253 691.667 253 677 c 2
 253 352 l 1
 316 352 l 1
 316 293 l 1
EndSplineSet
Fore
SplineSet
206 728 m 1
 236 728 253 707 253 677 c 2
 253 352 l 1
 316 352 l 1
 316 293 l 1
 114 293 l 1
 114 352 l 1
 179 352 l 1
 179 623 l 1
 119 566 l 1
 81 617 l 1
 206 728 l 1
EndSplineSet
Validated: 1
Layer: 2
SplineSet
206 728 m 1,0,1
 228 728 228 728 240.5 714 c 128,-1,2
 253 700 253 700 253 677 c 2,3,-1
 253 352 l 1,4,-1
 316 352 l 1,5,-1
 316 293 l 1,6,-1
 114 293 l 1,7,-1
 114 352 l 1,8,-1
 179 352 l 1,9,-1
 179 623 l 1,10,-1
 119 566 l 1,11,-1
 81 617 l 1,12,-1
 206 728 l 1,0,1
EndSplineSet
EndChar

StartChar: ordmasculine
Encoding: 186 186 124
Width: 442
VWidth: 1504
Flags: W
HStem: 349 66<152.144 287.656> 666 67<153.624 286.384>
VStem: 29 66<472.144 607.717> 346 66<473.624 606.445>
LayerCount: 3
Back
SplineSet
412 540 m 0
 412 486 393.167 440.667 355.5 404 c 128
 317.833 367.333 272.666 349 220 349 c 0
 166 349 120.667 367.333 84 404 c 128
 47.3333 440.667 29 486 29 540 c 0
 29 593.333 47.1667 638.833 83.5 676.5 c 128
 119.833 714.167 165.333 733 220 733 c 0
 273.334 733 318.667 714.167 356 676.5 c 128
 393.333 638.833 412 593.333 412 540 c 0
346 540 m 256
 346 574 333.5 603.5 308.5 628.5 c 128
 283.5 653.5 254 666 220 666 c 256
 186 666 156.667 653.5 132 628.5 c 128
 107.333 603.5 95 574 95 540 c 256
 95 506 107.167 476.667 131.5 452 c 128
 155.833 427.333 185.333 415 220 415 c 256
 254 415 283.5 427.333 308.5 452 c 128
 333.5 476.667 346 506 346 540 c 256
EndSplineSet
Fore
SplineSet
220 733 m 3
 326 733 412 646 412 540 c 3
 412 433 326 349 220 349 c 3
 113 349 29 433 29 540 c 3
 29 646 113 733 220 733 c 3
220 415 m 259
 287 415 346 473 346 540 c 259
 346 607 287 666 220 666 c 259
 153 666 95 607 95 540 c 259
 95 472 152 415 220 415 c 259
EndSplineSet
Validated: 1
Layer: 2
SplineSet
220 733 m 3,0,1
 299 733 299 733 355.5 676.5 c 128,-1,2
 412 620 412 620 412 540 c 128,-1,3
 412 460 412 460 356 404.5 c 128,-1,4
 300 349 300 349 220 349 c 128,-1,5
 140 349 140 349 84.5 404.5 c 128,-1,6
 29 460 29 460 29 540 c 128,-1,7
 29 620 29 620 84.5 676.5 c 128,-1,8
 140 733 140 733 220 733 c 3,0,1
220 415 m 259,9,10
 270 415 270 415 308 452.5 c 128,-1,11
 346 490 346 490 346 540 c 128,-1,12
 346 590 346 590 308 628 c 128,-1,13
 270 666 270 666 220 666 c 128,-1,14
 170 666 170 666 132.5 628 c 128,-1,15
 95 590 95 590 95 540 c 0,16,17
 95 489 95 489 132 452 c 128,-1,18
 169 415 169 415 220 415 c 259,9,10
EndSplineSet
EndChar

StartChar: guillemotright
Encoding: 187 187 125
Width: 535
VWidth: 1504
Flags: W
DStem2: 45 71 135 71 0.652039 0.758185<58.6835 263.788> 135 472 47 472 0.646448 -0.762958<0 206.363> 229 71 320 71 0.657966 0.753048<59.8749 262.932> 323 474 230 474 0.642754 -0.766073<0 207.822>
LayerCount: 3
Fore
SplineSet
135 71 m 1
 45 71 l 1
 217 271 l 1
 47 472 l 1
 135 472 l 1
 307 269 l 1
 135 71 l 1
320 71 m 1
 229 71 l 1
 402 269 l 1
 230 474 l 1
 323 474 l 1
 490 269 l 1
 320 71 l 1
EndSplineSet
Validated: 1
Layer: 2
SplineSet
135 71 m 1,0,-1
 45 71 l 1,1,-1
 217 271 l 1,2,-1
 47 472 l 1,3,-1
 135 472 l 1,4,-1
 307 269 l 1,5,-1
 135 71 l 1,0,-1
320 71 m 1,6,-1
 229 71 l 1,7,-1
 402 269 l 1,8,-1
 230 474 l 1,9,-1
 323 474 l 1,10,-1
 490 269 l 1,11,-1
 320 71 l 1,6,-1
EndSplineSet
EndChar

StartChar: onequarter
Encoding: 188 188 126
Width: 815
VWidth: 1504
Flags: W
HStem: -14 21G<162 249.857 624 698> 90 72<534 624 698 758> 265 58<69 134 208 271>
VStem: 134 74<323 585> 624 74<0 90 162 340>
DStem2: 162 -14 238 -14 0.510839 0.859676<38.8238 845.667>
LayerCount: 3
Back
SplineSet
271 265 m 1
 69 265 l 1
 69 323 l 1
 134 323 l 1
 134 585 l 1
 77 535 l 1
 35 590 l 1
 161 701 l 1
 192.333 699 208 681.333 208 648 c 2
 208 323 l 1
 271 323 l 1
 271 265 l 1
238 -14 m 1
 162 -14 l 1
 594 713 l 1
 669 713 l 1
 238 -14 l 1
624 162 m 1
 624 340 l 1
 600.666 320 580.832 293.167 564.5 259.5 c 128
 548.167 225.833 538 193.333 534 162 c 1
 624 162 l 1
698 0 m 1
 624 0 l 1
 624 90 l 1
 456 90 l 1
 456 122 461 158.167 471 198.5 c 128
 481 238.833 496 276.833 516 312.5 c 128
 536 348.167 561.833 378.167 593.5 402.5 c 128
 625.167 426.834 660 439.667 698 441 c 1
 698 162 l 1
 761 162 l 1
 758 90 l 1
 698 90 l 1
 698 0 l 1
EndSplineSet
Fore
SplineSet
271 265 m 1
 69 265 l 1
 69 323 l 1
 134 323 l 1
 134 585 l 1
 77 535 l 1
 35 590 l 1
 161 701 l 1
 192 699 208 681 208 648 c 2
 208 323 l 1
 271 323 l 1
 271 265 l 1
238 -14 m 1
 162 -14 l 1
 594 713 l 1
 669 713 l 1
 238 -14 l 1
624 162 m 1
 624 340 l 1
 582 304 543 229 534 162 c 1
 624 162 l 1
698 0 m 1
 624 0 l 1
 624 90 l 1
 456 90 l 1
 456 235 543 436 698 441 c 1
 698 162 l 1
 761 162 l 1
 758 90 l 1
 698 90 l 1
 698 0 l 1
EndSplineSet
Validated: 1
Layer: 2
SplineSet
271 265 m 1,0,-1
 69 265 l 1,1,-1
 69 323 l 1,2,-1
 134 323 l 1,3,-1
 134 585 l 1,4,-1
 77 535 l 1,5,-1
 35 590 l 1,6,-1
 161 701 l 1,7,8
 208 698 208 698 208 648 c 2,9,-1
 208 323 l 1,10,-1
 271 323 l 1,11,-1
 271 265 l 1,0,-1
238 -14 m 1,12,-1
 162 -14 l 1,13,-1
 594 713 l 1,14,-1
 669 713 l 1,15,-1
 238 -14 l 1,12,-1
624 162 m 1,16,-1
 624 340 l 1,17,18
 592 313 592 313 566.5 262.5 c 128,-1,19
 541 212 541 212 534 162 c 1,20,-1
 624 162 l 1,16,-1
698 0 m 1,21,-1
 624 0 l 1,22,-1
 624 90 l 1,23,-1
 456 90 l 1,24,25
 456 166 456 166 483 244 c 128,-1,26
 510 322 510 322 567.5 380.5 c 128,-1,27
 625 439 625 439 698 441 c 1,28,-1
 698 162 l 1,29,-1
 761 162 l 1,30,-1
 758 90 l 1,31,-1
 698 90 l 1,32,-1
 698 0 l 1,21,-1
EndSplineSet
LCarets2: 2 0 0
Ligature2: "'frac' Diagonal Fractions in Latin lookup 0 subtable" one fraction four
Ligature2: "'frac' Diagonal Fractions in Latin lookup 0 subtable" one slash four
EndChar

StartChar: onehalf
Encoding: 189 189 127
Width: 815
VWidth: 1504
Flags: W
HStem: -14 21G<162 249.857> 0 69<605 782> 265 58<69 134 208 271> 370 69<610.078 702.78>
VStem: 134 74<323 585> 520 68<299.765 347.112> 711 74<264.791 361.836>
DStem2: 162 -14 238 -14 0.510839 0.859676<38.8238 845.667>
LayerCount: 3
Back
SplineSet
782 0 m 1
 496 0 l 1
 499.334 38 512.334 71.5 535 100.5 c 128
 557.669 129.5 581.336 155.667 606 179 c 0
 618 191 630.333 202.833 643 214.5 c 128
 655.667 226.167 667 238 677 250 c 128
 687 262 695.167 273.667 701.5 285 c 128
 707.833 296.334 711 307.668 711 319 c 0
 711 333 706.833 345 698.5 355 c 128
 690.161 365 677.328 370 660 370 c 0
 618.667 370 594.667 343 588 289 c 1
 520 301 l 1
 524 346.334 538.333 380.667 563 404 c 128
 587.667 427.333 618.667 439 656 439 c 0
 694 439 725 428.5 749 407.5 c 128
 773 386.5 785 357 785 319 c 0
 785 293.667 777.833 270 763.5 248 c 128
 749.167 226 732.167 204.667 712.5 184 c 128
 692.833 163.333 673 143.5 653 124.5 c 128
 633 105.5 617 87 605 69 c 1
 791 69 l 1
 782 0 l 1
238 -14 m 1
 162 -14 l 1
 594 713 l 1
 669 713 l 1
 238 -14 l 1
271 265 m 1
 69 265 l 1
 69 323 l 1
 134 323 l 1
 134 585 l 1
 77 535 l 1
 35 590 l 1
 161 701 l 1
 192.333 699 208 681.333 208 648 c 2
 208 323 l 1
 271 323 l 1
 271 265 l 1
EndSplineSet
Fore
SplineSet
656 439 m 3x7e
 732 439 785 395 785 319 c 3
 785 294 778 270 764 248 c 0
 735 203 691 161 653 124 c 0
 633 105 617 87 605 69 c 1
 791 69 l 1
 782 0 l 1
 496 0 l 1
 499 38 512 71 535 100 c 0
 569 144 604 178 643 214 c 0
 665 235 688 259 702 285 c 0
 708 296 711 308 711 319 c 3
 711 349 692 370 660 370 c 3
 619 370 595 343 588 289 c 1
 520 301 l 1
 527 382 573 439 656 439 c 3x7e
238 -14 m 1xbe
 162 -14 l 1
 594 713 l 1
 669 713 l 1
 238 -14 l 1xbe
271 265 m 1
 69 265 l 1
 69 323 l 1
 134 323 l 1
 134 585 l 1
 77 535 l 1
 35 590 l 1
 161 701 l 1
 192 699 208 681 208 648 c 2
 208 323 l 1
 271 323 l 1
 271 265 l 1
EndSplineSet
Validated: 1
Layer: 2
SplineSet
656 439 m 3,0,1
 714 439 714 439 749.5 407 c 128,-1,2
 785 375 785 375 785 319 c 0,3,4
 785 281 785 281 764 248 c 0,5,6
 736 205 736 205 653 124 c 0,7,8
 622 95 622 95 605 69 c 1,9,-1
 791 69 l 1,10,-1
 782 0 l 1,11,-1
 496 0 l 1,12,13
 500 56 500 56 535 100 c 0,14,15
 574 150 574 150 643 214 c 0,16,17
 686 255 686 255 702 285 c 0,18,19
 711 302 711 302 711 319 c 0,20,21
 711 342 711 342 697.5 356 c 128,-1,22
 684 370 684 370 660 370 c 0,23,24
 598.5 370 598.5 370 588 289 c 1,25,-1
 520 301 l 1,26,27
 525 364 525 364 560.5 401.5 c 128,-1,28
 596 439 596 439 656 439 c 3,0,1
238 -14 m 1,29,-1
 162 -14 l 1,30,-1
 594 713 l 1,31,-1
 669 713 l 1,32,-1
 238 -14 l 1,29,-1
271 265 m 1,33,-1
 69 265 l 1,34,-1
 69 323 l 1,35,-1
 134 323 l 1,36,-1
 134 585 l 1,37,-1
 77 535 l 1,38,-1
 35 590 l 1,39,-1
 161 701 l 1,40,41
 208 698 208 698 208 648 c 2,42,-1
 208 323 l 1,43,-1
 271 323 l 1,44,-1
 271 265 l 1,33,-1
EndSplineSet
LCarets2: 2 0 0
Ligature2: "'frac' Diagonal Fractions in Latin lookup 0 subtable" one fraction two
Ligature2: "'frac' Diagonal Fractions in Latin lookup 0 subtable" one slash two
EndChar

StartChar: threequarters
Encoding: 190 190 128
Width: 815
VWidth: 1504
Flags: W
HStem: -14 21G<162 249.857 624 698> 90 72<534 624 698 758> 268 69<92.7456 232.074> 645 63<141.652 234.066>
VStem: 235 69<562.631 642.238> 265 70<370.536 473.411> 624 74<0 90 162 340>
DStem2: 162 -14 238 -14 0.510839 0.859676<38.8238 845.667>
LayerCount: 3
Back
SplineSet
238 -14 m 1
 162 -14 l 1
 594 713 l 1
 669 713 l 1
 238 -14 l 1
335 429 m 0
 335 403 330 379.833 320 359.5 c 128
 310 339.167 297 322.333 281 309 c 128
 265 295.667 246.333 285.5 225 278.5 c 128
 203.667 271.5 181.667 268 159 268 c 0
 117.667 268 80.3333 280.333 47 305 c 1
 77 370 l 1
 91 358.667 105 350.333 119 345 c 128
 133 339.667 147 337 161 337 c 0
 193 337 218.333 345.5 237 362.5 c 128
 255.667 379.5 265 401 265 427 c 0
 265 462.333 248.333 480 215 480 c 0
 189.667 480 166.667 471 146 453 c 1
 122 498 l 1
 166 521.333 195.833 542 211.5 560 c 128
 227.167 578 235 597 235 617 c 0
 235 625 232 631.667 226 637 c 128
 220 642.333 210.333 645 197 645 c 0
 157 645 128.333 620.667 111 572 c 1
 56 600 l 1
 86 672 134.667 708 202 708 c 0
 237.333 708 263.167 700 279.5 684 c 128
 295.833 668 304 649 304 627 c 0
 304 593 288.333 562 257 534 c 1
 284.334 530 304.167 518.5 316.5 499.5 c 128
 328.833 480.5 335 457 335 429 c 0
624 162 m 1
 624 340 l 1
 600.666 320 580.832 293.167 564.5 259.5 c 128
 548.167 225.833 538 193.333 534 162 c 1
 624 162 l 1
698 0 m 1
 624 0 l 1
 624 90 l 1
 456 90 l 1
 456 122 461 158.167 471 198.5 c 128
 481 238.833 496 276.833 516 312.5 c 128
 536 348.167 561.833 378.167 593.5 402.5 c 128
 625.167 426.834 660 439.667 698 441 c 1
 698 162 l 1
 761 162 l 1
 758 90 l 1
 698 90 l 1
 698 0 l 1
EndSplineSet
Fore
SplineSet
238 -14 m 1xf2
 162 -14 l 1
 594 713 l 1
 669 713 l 1
 238 -14 l 1xf2
257 534 m 1
 310 526 335 487 335 429 c 3
 335 327 250 268 159 268 c 3
 118 268 80 280 47 305 c 1
 77 370 l 1
 100 352 125 337 161 337 c 3
 220 337 265 371 265 427 c 3xf6
 265 462 248 480 215 480 c 3
 190 480 167 471 146 453 c 1
 122 498 l 1
 181 529 235 565 235 617 c 3
 235 637 219 645 197 645 c 3
 157 645 128 621 111 572 c 1
 56 600 l 1
 86 672 135 708 202 708 c 3
 262 708 304 680 304 627 c 3xfa
 304 593 288 562 257 534 c 1
624 162 m 1
 624 340 l 1
 582 304 543 229 534 162 c 1
 624 162 l 1
698 0 m 1
 624 0 l 1
 624 90 l 1
 456 90 l 1
 456 235 543 436 698 441 c 1
 698 162 l 1
 761 162 l 1
 758 90 l 1
 698 90 l 1
 698 0 l 1
EndSplineSet
Validated: 1
Layer: 2
SplineSet
238 -14 m 1,0,-1
 162 -14 l 1,1,-1
 594 713 l 1,2,-1
 669 713 l 1,3,-1
 238 -14 l 1,0,-1
257 534 m 1,4,5
 335 522 335 522 335 429 c 0,6,7
 335 356 335 356 283 312 c 128,-1,8
 231 268 231 268 159 268 c 0,9,10
 96 268 96 268 47 305 c 1,11,-1
 77 370 l 1,12,13
 119 337 119 337 161 337 c 0,14,15
 206 337 206 337 235.5 361.5 c 128,-1,16
 265 386 265 386 265 427 c 0,17,18
 265 480 265 480 215 480 c 0,19,20
 177.5 480 177.5 480 146 453 c 1,21,-1
 122 498 l 1,22,23
 175 526 175 526 205 554 c 128,-1,24
 235 582 235 582 235 617 c 0,25,26
 235 645 235 645 197 645 c 0,27,28
 136 645 136 645 111 572 c 1,29,-1
 56 600 l 1,30,31
 101 708 101 708 202 708 c 0,32,33
 248 708 248 708 276 687 c 128,-1,34
 304 666 304 666 304 627 c 0,35,36
 304 576 304 576 257 534 c 1,4,5
624 162 m 1,37,-1
 624 340 l 1,38,39
 592 313 592 313 566.5 262.5 c 128,-1,40
 541 212 541 212 534 162 c 1,41,-1
 624 162 l 1,37,-1
698 0 m 1,42,-1
 624 0 l 1,43,-1
 624 90 l 1,44,-1
 456 90 l 1,45,46
 456 166 456 166 483 244 c 128,-1,47
 510 322 510 322 567.5 380.5 c 128,-1,48
 625 439 625 439 698 441 c 1,49,-1
 698 162 l 1,50,-1
 761 162 l 1,51,-1
 758 90 l 1,52,-1
 698 90 l 1,53,-1
 698 0 l 1,42,-1
EndSplineSet
LCarets2: 2 0 0
Ligature2: "'frac' Diagonal Fractions in Latin lookup 0 subtable" three fraction four
Ligature2: "'frac' Diagonal Fractions in Latin lookup 0 subtable" three slash four
EndChar

StartChar: questiondown
Encoding: 191 191 129
Width: 434
VWidth: 1504
Flags: W
HStem: -227 86<158.147 324.905> 369 144<181.875 281.25>
VStem: 36 95<-114.79 9.96329> 161 141<390.375 491.625> 205 90<186.499 321.9>
LayerCount: 3
Back
SplineSet
399 -171 m 1
 339.667 -208.333 282 -227 226 -227 c 0
 168.667 -227 122.667 -211.667 88 -181 c 128
 53.3333 -150.333 36 -109.667 36 -59 c 0
 36 -5.66667 69 55 135 123 c 0
 158.333 146.333 175.5 169.833 186.5 193.5 c 128
 197.5 217.167 203.667 239.334 205 260 c 0
 205 277.333 201.333 298.333 194 323 c 1
 280 323 l 1
 285.336 309 289.169 296.333 291.5 285 c 128
 293.833 273.667 295 264 295 256 c 0
 295 200.667 266 142.333 208 81 c 0
 156.667 27 131 -18.6667 131 -56 c 0
 131 -113.333 166 -141.667 236 -141 c 0
 279.333 -141 321 -126.667 361 -98 c 1
 399 -171 l 1
302 441 m 256
 302 421 295 404 281 390 c 128
 267 376 250.667 369 232 369 c 256
 212.667 369 196 376 182 390 c 128
 168 404 161 421 161 441 c 256
 161 461 168 478 182 492 c 128
 196 506 212.667 513 232 513 c 256
 251.333 513 267.833 506 281.5 492 c 128
 295.167 478 302 461 302 441 c 256
EndSplineSet
Fore
SplineSet
280 323 m 1xe8
 288 301 295 280 295 256 c 3
 295 201 266 142 208 81 c 0
 157 27 131 -19 131 -56 c 3
 131 -113 166 -141 236 -141 c 3
 279 -141 321 -127 361 -98 c 1
 399 -171 l 1
 340 -208 282 -227 226 -227 c 3
 117 -227 36 -165 36 -59 c 3
 36 -6 69 55 135 123 c 0
 171 159 205 209 205 260 c 3
 205 277 201 298 194 323 c 1
 280 323 l 1xe8
232 513 m 259
 271 513 302 480 302 441 c 259
 302 402 270 369 232 369 c 259
 193 369 161 402 161 441 c 259xf0
 161 480 193 513 232 513 c 259
EndSplineSet
Validated: 1
Layer: 2
SplineSet
280 323 m 1,0,1
 295 282 295 282 295 256 c 0,2,3
 295 172 295 172 208 81 c 0,4,5
 131 -1 131 -1 131 -56 c 0,6,7
 131 -141 131 -141 236 -141 c 0,8,9
 302 -141 302 -141 361 -98 c 1,10,-1
 399 -171 l 1,11,12
 310 -227 310 -227 226 -227 c 128,-1,13
 142 -227 142 -227 89 -182 c 128,-1,14
 36 -137 36 -137 36 -59 c 0,15,16
 36 21 36 21 135 123 c 0,17,18
 205 193 205 193 205 260 c 0,19,20
 205 284 205 284 194 323 c 1,21,-1
 280 323 l 1,0,1
232 513 m 259,22,23
 261 513 261 513 281.5 491.5 c 128,-1,24
 302 470 302 470 302 441 c 128,-1,25
 302 412 302 412 281 390.5 c 128,-1,26
 260 369 260 369 232 369 c 0,27,28
 203 369 203 369 182 390.5 c 128,-1,29
 161 412 161 412 161 441 c 128,-1,30
 161 470 161 470 182 491.5 c 128,-1,31
 203 513 203 513 232 513 c 259,22,23
EndSplineSet
EndChar

StartChar: AE
Encoding: 198 198 136
Width: 876
VWidth: 1504
Flags: W
HStem: 0 83<570 835> 286 81<280 438> 340 83<531 802> 644 83<489 817>
DStem2: -15 0 87 0 0.472726 0.88121<48.218 372.098 462.858 737.092> 489 644 409 609 0.131844 -0.99127<24.147 222.762 349.733 566.782>
LayerCount: 3
Fore
SplineSet
835 0 m 1xb0
 490 0 l 1
 450 286 l 1
 239 286 l 1xd0
 87 0 l 1
 -15 0 l 1
 375 727 l 1
 817 727 l 1
 817 644 l 1
 489 644 l 1
 517 423 l 1
 802 423 l 1
 802 340 l 1
 531 340 l 1
 570 83 l 1
 835 83 l 1
 835 0 l 1xb0
438 367 m 1
 409 609 l 1
 280 367 l 1
 438 367 l 1
EndSplineSet
Validated: 1
Layer: 2
SplineSet
835 0 m 1,0,-1
 490 0 l 1,1,-1
 450 286 l 1,2,-1
 239 286 l 1,3,-1
 87 0 l 1,4,-1
 -15 0 l 1,5,-1
 375 727 l 1,6,-1
 817 727 l 1,7,-1
 817 644 l 1,8,-1
 489 644 l 1,9,-1
 517 423 l 1,10,-1
 802 423 l 1,11,-1
 802 340 l 1,12,-1
 531 340 l 1,13,-1
 570 83 l 1,14,-1
 835 83 l 1,15,-1
 835 0 l 1,0,-1
438 367 m 1,16,-1
 409 609 l 1,17,-1
 280 367 l 1,18,-1
 438 367 l 1,16,-1
EndSplineSet
EndChar

StartChar: Ccedilla
Encoding: 199 199 137
Width: 649
VWidth: 1504
Flags: W
HStem: -239 52<233.689 357.79> -11 82<376 530.59> 608 21G<557 595> 645 82<278.928 542.844>
VStem: 39 96<228.595 489.086> 363 69<-181.001 -107.324>
LayerCount: 3
Back
SplineSet
354 -42 m 1
 401 -56 432 -80 432 -135 c 3
 432 -204 383 -239 311 -239 c 3
 276 -239 241 -227 217 -212 c 1
 238 -164 l 1
 258 -174 289 -187 314 -187 c 3
 346 -187 363 -172 363 -141 c 3
 363 -113 331 -94 266 -83 c 1
 331 17 l 1
 396 17 l 1
 354 -42 l 1
39 356 m 3
 39 578 166 727 384 727 c 3
 469 727 547 712 617 683 c 1
 587 608 l 1
 527 633 460 645 387 645 c 3
 222 645 135 533 135 353 c 3
 135 191 228 71 375 71 c 3
 458 71 530 86 591 116 c 1
 617 38 l 1
 544 6 456 -11 355 -11 c 3
 155 -11 39 151 39 356 c 3
EndSplineSet
Fore
SplineSet
39 356 m 3
 39 578 166 727 384 727 c 3
 469 727 547 712 617 683 c 1
 587 608 l 1
 527 633 460 645 387 645 c 3
 222 645 135 533 135 353 c 3
 135 191 228 71 375 71 c 3
 458 71 530 86 591 116 c 1
 617 38 l 1
 549 8 468 -9 376 -11 c 1
 354 -42 l 1
 401 -56 432 -80 432 -135 c 3
 432 -204 383 -239 311 -239 c 3
 276 -239 241 -227 217 -212 c 1
 238 -164 l 1
 258 -174 289 -187 314 -187 c 3
 346 -187 363 -172 363 -141 c 3
 363 -113 331 -94 266 -83 c 1
 314 -9 l 1
 139 12 39 165 39 356 c 3
EndSplineSet
Validated: 1
Layer: 2
SplineSet
39 356 m 3,0,1
 39 525 39 525 131 626 c 128,-1,2
 223 727 223 727 384 727 c 0,3,4
 511 727 511 727 617 683 c 1,5,-1
 587 608 l 1,6,7
 498 645 498 645 387 645 c 0,8,9
 265 645 265 645 200 567.5 c 128,-1,10
 135 490 135 490 135 353 c 0,11,12
 135 230 135 230 200.5 150.5 c 128,-1,13
 266 71 266 71 375 71 c 0,14,15
 499.5 71 499.5 71 591 116 c 1,16,-1
 617 38 l 1,17,18
 513 -8 513 -8 376 -11 c 1,19,-1
 354 -42 l 1,20,21
 432 -65 432 -65 432 -135 c 0,22,23
 432 -185 432 -185 399.5 -212 c 128,-1,24
 367 -239 367 -239 311 -239 c 0,25,26
 260 -239 260 -239 217 -212 c 1,27,-1
 238 -164 l 1,28,29
 284 -187 284 -187 314 -187 c 0,30,31
 363 -187 363 -187 363 -141 c 0,32,33
 363 -99 363 -99 266 -83 c 1,34,-1
 314 -9 l 1,35,36
 186 6 186 6 112.5 107.5 c 128,-1,37
 39 209 39 209 39 356 c 3,0,1
EndSplineSet
EndChar

StartChar: Eth
Encoding: 208 208 146
Width: 690
VWidth: 1504
Flags: W
HStem: -6 81<171.987 409.446> 310 81<14 75 170 411> 642 82<171.933 422.814>
VStem: 75 95<78.304 310 391 635.109> 555 96<237.94 504.525>
LayerCount: 3
Back
SplineSet
651 373 m 0
 651 265 625 178.333 573 113 c 0
 509 33.6667 410.333 -6 277 -6 c 0
 235.667 -6 168.333 -1 75 9 c 1
 75 310 l 1
 14 310 l 1
 14 391 l 1
 75 391 l 1
 75 704 l 1
 189 717.333 266.333 724 307 724 c 0
 429.667 724 520.333 687.333 579 614 c 0
 627 554.667 651 474.333 651 373 c 0
555 373 m 0
 555 552.333 470.667 642 302 642 c 0
 274 642 230 639 170 633 c 1
 170 391 l 1
 411 391 l 1
 411 310 l 1
 170 310 l 1
 170 80 l 1
 203.333 76.6667 245 75 295 75 c 0
 392.333 75 463 109.667 507 179 c 0
 539 230.333 555 295 555 373 c 0
EndSplineSet
Fore
SplineSet
307 724 m 3
 529 724 651 598 651 373 c 3
 651 131 518 -6 277 -6 c 3
 236 -6 168 -1 75 9 c 1
 75 310 l 1
 14 310 l 1
 14 391 l 1
 75 391 l 1
 75 704 l 1
 189 717 266 724 307 724 c 3
555 373 m 3
 555 552 471 642 302 642 c 3
 274 642 230 639 170 633 c 1
 170 391 l 1
 411 391 l 1
 411 310 l 1
 170 310 l 1
 170 80 l 1
 203 77 245 75 295 75 c 3
 468 75 555 193 555 373 c 3
EndSplineSet
Validated: 1
Layer: 2
SplineSet
307 724 m 3,0,1
 473 724 473 724 562 633 c 128,-1,2
 651 542 651 542 651 373 c 0,3,4
 651 191 651 191 554 92.5 c 128,-1,5
 457 -6 457 -6 277 -6 c 0,6,7
 214 -6 214 -6 75 9 c 1,8,-1
 75 310 l 1,9,-1
 14 310 l 1,10,-1
 14 391 l 1,11,-1
 75 391 l 1,12,-1
 75 704 l 1,13,14
 250 724 250 724 307 724 c 3,0,1
555 373 m 3,15,16
 555 642 555 642 302 642 c 0,17,18
 260 642 260 642 170 633 c 1,19,-1
 170 391 l 1,20,-1
 411 391 l 1,21,-1
 411 310 l 1,22,-1
 170 310 l 1,23,-1
 170 80 l 1,24,25
 225 75 225 75 295 75 c 0,26,27
 422 75 422 75 488.5 155 c 128,-1,28
 555 235 555 235 555 373 c 3,15,16
EndSplineSet
EndChar

StartChar: multiply
Encoding: 215 215 153
Width: 627
VWidth: 1504
Flags: W
HStem: -8 21G<80.661 120.013 506.897 546.678>
DStem2: 101 560 41 501 0.690577 -0.723259<1.23764 308.38 395.927 703.759> 41 51 101 -8 0.690577 0.723259<0 306.451 395.38 702.522>
LayerCount: 3
Back
SplineSet
587 51 m 1
 526 -8 l 1
 313 215 l 1
 277.667 179.667 242 142.5 206 103.5 c 128
 170 64.5 135 27.3333 101 -8 c 1
 41 51 l 1
 254 274 l 1
 218.667 311.334 183 349.167 147 387.5 c 128
 111 425.834 75.6667 463.667 41 501 c 1
 101 560 l 1
 314 337 l 1
 348 373 383.667 410.333 421 449 c 128
 458.333 487.667 493.333 524.667 526 560 c 1
 587 501 l 1
 372 275 l 1
 587 51 l 1
EndSplineSet
Fore
SplineSet
314 337 m 1
 526 560 l 1
 587 501 l 1
 372 275 l 1
 587 51 l 1
 526 -8 l 1
 313 215 l 1
 101 -8 l 1
 41 51 l 1
 254 274 l 1
 41 501 l 1
 101 560 l 1
 314 337 l 1
EndSplineSet
Validated: 1
Layer: 2
SplineSet
314 337 m 1,0,-1
 526 560 l 1,1,-1
 587 501 l 1,2,-1
 372 275 l 1,3,-1
 587 51 l 1,4,-1
 526 -8 l 1,5,-1
 313 215 l 1,6,-1
 101 -8 l 1,7,-1
 41 51 l 1,8,-1
 254 274 l 1,9,-1
 41 501 l 1,10,-1
 101 560 l 1,11,-1
 314 337 l 1,0,-1
EndSplineSet
EndChar

StartChar: Oslash
Encoding: 216 216 154
Width: 779
VWidth: 1504
Flags: W
HStem: -15 83<300.102 490.17> 648 82<289.339 484.69>
VStem: 39 93<234.48 476.271> 647 93<238.083 476.746>
DStem2: 140 -42 236 -42 0.457194 0.889367<43.8906 100.674 188.732 747.851 837.411 879.277>
LayerCount: 3
Back
SplineSet
740 356 m 256
 740 250.667 707.5 162.5 642.5 91.5 c 128
 577.5 20.5 493.333 -15 390 -15 c 0
 342.667 -15 299.333 -8 260 6 c 1
 236 -42 l 1
 140 -42 l 1
 185 47 l 1
 167.667 60.3333 151.667 75.3333 137 92 c 0
 71.6667 163.333 39 251.333 39 356 c 256
 39 461.333 71.6667 550 137 622 c 128
 202.333 694 286.667 730 390 730 c 0
 439.334 730 483.667 721.667 523 705 c 1
 542 740 l 1
 638 740 l 1
 597 662 l 1
 613 650 628 636.333 642 621 c 0
 707.333 549.667 740 461.333 740 356 c 256
486 630 m 1
 456.667 642 424.667 648 390 648 c 0
 312.667 648 250.333 620.167 203 564.5 c 128
 155.667 508.833 132 440 132 358 c 256
 132 276 155.667 206.667 203 150 c 0
 210.333 140.667 218 132.667 226 126 c 1
 486 630 l 1
647 358 m 256
 647 440 623.333 508.667 576 564 c 0
 570 571.333 564 578 558 584 c 1
 299 83 l 1
 326.334 73 356.667 68 390 68 c 0
 467.333 68 529.5 95.8334 576.5 151.5 c 128
 623.5 207.167 647 276 647 358 c 256
EndSplineSet
Fore
SplineSet
597 662 m 1
 685 596 740 484 740 356 c 259
 740 150 596 -15 390 -15 c 3
 343 -15 299 -8 260 6 c 1
 236 -42 l 1
 140 -42 l 1
 185 47 l 1
 97 114 39 226 39 356 c 259
 39 563 183 730 390 730 c 3
 439 730 484 722 523 705 c 1
 542 740 l 1
 638 740 l 1
 597 662 l 1
486 630 m 1
 457 642 425 648 390 648 c 3
 233 648 132 516 132 358 c 259
 132 265 166 178 226 126 c 1
 486 630 l 1
647 358 m 259
 647 451 614 528 558 584 c 1
 299 83 l 1
 326 73 357 68 390 68 c 3
 546 68 647 200 647 358 c 259
EndSplineSet
Validated: 1
Layer: 2
SplineSet
597 662 m 1,0,1
 664 612 664 612 702 531.5 c 128,-1,2
 740 451 740 451 740 356 c 0,3,4
 740 199 740 199 641 92 c 128,-1,5
 542 -15 542 -15 390 -15 c 0,6,7
 318 -15 318 -15 260 6 c 1,8,-1
 236 -42 l 1,9,-1
 140 -42 l 1,10,-1
 185 47 l 1,11,12
 118 98 118 98 78.5 179 c 128,-1,13
 39 260 39 260 39 356 c 0,14,15
 39 514 39 514 138 622 c 128,-1,16
 237 730 237 730 390 730 c 0,17,18
 466 730 466 730 523 705 c 1,19,-1
 542 740 l 1,20,-1
 638 740 l 1,21,-1
 597 662 l 1,0,1
486 630 m 1,22,23
 442.5 648 442.5 648 390 648 c 0,24,25
 275 648 275 648 203.5 564 c 128,-1,26
 132 480 132 480 132 358 c 0,27,28
 132 288 132 288 156.5 226.5 c 128,-1,29
 181 165 181 165 226 126 c 1,30,-1
 486 630 l 1,22,23
647 358 m 259,31,32
 647 495 647 495 558 584 c 1,33,-1
 299 83 l 1,34,35
 340 68 340 68 390 68 c 0,36,37
 504 68 504 68 575.5 152 c 128,-1,38
 647 236 647 236 647 358 c 259,31,32
EndSplineSet
EndChar

StartChar: Thorn
Encoding: 222 222 160
Width: 592
VWidth: 1504
Flags: W
HStem: 0 21G<80 168> 137 78<169.035 365.902> 534 78<169.012 369.173> 696 20G<80 168>
VStem: 80 88<0 143 220.933 528.067 606 716> 450 87<289.83 459.998>
LayerCount: 3
Back
SplineSet
537 375 m 256
 537 297.667 511.5 238.667 460.5 198 c 128
 409.5 157.333 338.333 137 247 137 c 0
 215 137 188.667 139 168 143 c 1
 168 0 l 1
 80 0 l 1
 80 716 l 1
 168 716 l 1
 168 606 l 1
 188 610 214.333 612 247 612 c 0
 338.333 612 409.5 591.833 460.5 551.5 c 128
 511.5 511.167 537 452.333 537 375 c 256
450 375 m 256
 450 481 383.333 534 250 534 c 0
 218.667 534 191.333 530 168 522 c 1
 168 227 l 1
 191.333 219 218.667 215 250 215 c 0
 383.333 215.667 450 269 450 375 c 256
EndSplineSet
Fore
SplineSet
247 612 m 3
 417 612 537 539 537 375 c 259
 537 211 417 137 247 137 c 3
 215 137 189 139 168 143 c 1
 168 0 l 1
 80 0 l 1
 80 716 l 1
 168 716 l 1
 168 606 l 1
 188 610 214 612 247 612 c 3
450 375 m 259
 450 481 383 534 250 534 c 3
 219 534 191 530 168 522 c 1
 168 227 l 1
 191 219 219 215 250 215 c 3
 383 215 450 269 450 375 c 259
EndSplineSet
Validated: 1
Layer: 2
SplineSet
247 612 m 3,0,1
 380 612 380 612 458.5 553 c 128,-1,2
 537 494 537 494 537 375 c 128,-1,3
 537 256 537 256 458.5 196.5 c 128,-1,4
 380 137 380 137 247 137 c 0,5,6
 200 137 200 137 168 143 c 1,7,-1
 168 0 l 1,8,-1
 80 0 l 1,9,-1
 80 716 l 1,10,-1
 168 716 l 1,11,-1
 168 606 l 1,12,13
 198 612 198 612 247 612 c 3,0,1
450 375 m 259,14,15
 450 534 450 534 250 534 c 0,16,17
 203 534 203 534 168 522 c 1,18,-1
 168 227 l 1,19,20
 202 215 202 215 250 215 c 0,21,22
 450 215 450 215 450 375 c 259,14,15
EndSplineSet
EndChar

StartChar: germandbls
Encoding: 223 223 161
Width: 639
VWidth: 1504
Flags: W
HStem: -14 83<289.097 445.157> 654 86<259.542 399.132>
VStem: 105 91<-162.969 572.563> 332 91<341.326 411.345> 430 87<504.624 623.199> 478 88<100.383 213.745>
LayerCount: 3
Back
SplineSet
566 164 m 0
 566 108.667 548.667 65.1666 514 33.5 c 128
 479.333 1.83333 433 -14 375 -14 c 0
 349 -14 324.167 -10.6667 300.5 -4 c 128
 276.833 2.66667 253.333 12 230 24 c 1
 260 105 l 1
 305.333 81 344 69 376 69 c 256
 408 69 433 77.3333 451 94 c 128
 469 110.667 478 131 478 155 c 0
 478 177 470.5 196.5 455.5 213.5 c 128
 440.5 230.5 423.833 247.333 405.5 264 c 128
 387.167 280.667 370.333 298 355 316 c 128
 339.667 334 332 355 332 379 c 0
 332 392.334 337.167 406.667 347.5 422 c 128
 357.835 437.333 369.168 452.833 381.5 468.5 c 128
 393.833 484.167 405 499.167 415 513.5 c 128
 425 527.833 430 541.333 430 554 c 0
 430 621.333 394 654.667 322 654 c 0
 238 654 196 577 196 423 c 2
 196 -60 l 2
 196 -86 192.667 -112 186 -138 c 128
 179.333 -164 169 -189.667 155 -215 c 1
 69 -193 l 1
 82.3334 -167.667 91.6667 -144.167 97 -122.5 c 128
 102.333 -100.833 105 -80 105 -60 c 2
 105 447 l 2
 105 642.333 180.667 740 332 740 c 0
 386 740 430.333 723.667 465 691 c 128
 499.667 658.333 517 613.667 517 557 c 0
 517 533.667 512 512.667 502 494 c 128
 492 475.333 481.333 458.5 470 443.5 c 128
 458.667 428.5 448 415.5 438 404.5 c 128
 428 393.5 423 383.667 423 375 c 0
 423 365 430.5 353.167 445.5 339.5 c 128
 460.5 325.833 476.667 310 494 292 c 128
 511.333 274 527.667 254.5 543 233.5 c 128
 558.333 212.5 566 189.333 566 164 c 0
EndSplineSet
Fore
SplineSet
332 740 m 3xf8
 442 740 517 668 517 557 c 3xf8
 517 534 512 513 502 494 c 0
 484 461 461 429 438 404 c 0
 428 393 423 384 423 375 c 3
 423 365 431 354 446 340 c 0
 479 310 515 272 543 234 c 0
 558 213 566 189 566 164 c 3
 566 52 488 -14 375 -14 c 3
 316 -14 272 3 230 24 c 1
 260 105 l 1
 305 81 344 69 376 69 c 259
 433 69 478 101 478 155 c 3xf4
 478 177 471 197 456 214 c 0
 426 248 385 281 355 316 c 0
 340 334 332 355 332 379 c 3
 332 392 338 407 348 422 c 0
 368 452 395 485 415 514 c 0
 425 528 430 541 430 554 c 3
 430 621 394 654 322 654 c 3
 238 654 196 577 196 423 c 2
 196 -60 l 2
 196 -122 179 -171 155 -215 c 1
 69 -193 l 1
 91 -152 105 -114 105 -60 c 2
 105 447 l 2
 105 642 181 740 332 740 c 3xf8
EndSplineSet
Validated: 1
Layer: 2
SplineSet
332 740 m 3,0,1
 415 740 415 740 466 690 c 128,-1,2
 517 640 517 640 517 557 c 0,3,4
 517 522.5 517 522.5 502 494 c 0,5,6
 475 444 475 444 438 404 c 0,7,8
 423 388 423 388 423 375 c 0,9,10
 423 361 423 361 446 340 c 0,11,12
 503 288 503 288 543 234 c 0,13,14
 566 202 566 202 566 164 c 0,15,16
 566 81 566 81 513.5 33.5 c 128,-1,17
 461 -14 461 -14 375 -14 c 0,18,19
 306 -14 306 -14 230 24 c 1,20,-1
 260 105 l 1,21,22
 328 69 328 69 376 69 c 0,23,24
 420 69 420 69 449 92.5 c 128,-1,25
 478 116 478 116 478 155 c 0,26,27
 478 189 478 189 456 214 c 0,28,29
 442 230 442 230 406.5 264 c 128,-1,30
 371 298 371 298 355 316 c 0,31,32
 332 344 332 344 332 379 c 0,33,34
 332 398 332 398 348 422 c 0,35,36
 359 438 359 438 382.5 469.5 c 128,-1,37
 406 501 406 501 415 514 c 0,38,39
 430 535 430 535 430 554 c 0,40,41
 430 654 430 654 322 654 c 0,42,43
 196 654 196 654 196 423 c 2,44,-1
 196 -60 l 2,45,46
 196 -140 196 -140 155 -215 c 1,47,-1
 69 -193 l 1,48,49
 105 -126 105 -126 105 -60 c 2,50,-1
 105 447 l 2,51,52
 105 740 105 740 332 740 c 3,0,1
EndSplineSet
EndChar

StartChar: ae
Encoding: 230 230 168
Width: 934
VWidth: 1504
Flags: W
HStem: -14 85<161.321 315.253 568.226 811.243> 241 79<484 802> 256 82<208.427 382> 454 78<141.797 333.427 561.594 729.278>
VStem: 39 99<93.0815 203.51> 382 93<165.834 241>
LayerCount: 3
Back
SplineSet
872 27 m 1
 804 -0.333334 734 -14 662 -14 c 0
 564 -14 488.667 21.3333 436 92 c 1
 398.667 22 327 -13.3333 221 -14 c 0
 195.667 -14 172 -10.3333 150 -3 c 128
 128 4.33333 108.833 14.5 92.5 27.5 c 128
 76.1667 40.5 63.1667 56.5 53.5 75.5 c 128
 43.8333 94.5 39 116 39 140 c 0
 39 270.667 153.333 336.667 382 338 c 1
 380 372 368.5 399.833 347.5 421.5 c 128
 326.5 443.167 297 454 259 454 c 0
 227 454 167.667 441 81 415 c 1
 69 501 l 1
 139 522.333 204.333 532.667 265 532 c 0
 310.334 532 347.667 525.333 377 512 c 128
 406.334 498.667 429.667 475 447 441 c 1
 495 502.333 564.667 532.667 656 532 c 0
 810.667 532 890.334 435 895 241 c 1
 475 241 l 1
 480.333 185.667 500.333 143.5 535 114.5 c 128
 569.667 85.5 614 71 668 71 c 0
 726 71 791.667 84 865 110 c 1
 872 27 l 1
382 256 m 1
 296.667 254.666 234.667 245.333 196 228 c 128
 157.333 210.666 138 184.333 138 149 c 0
 138 123 146.333 103.167 163 89.5 c 128
 179.667 75.8333 200 69 224 69 c 0
 272 69 310.333 82.5 339 109.5 c 128
 367.667 136.5 382 174.333 382 223 c 2
 382 256 l 1
802 320 m 1
 794.667 357.333 778 389 752 415 c 128
 726 441 692 454 650 454 c 0
 606 454 569.667 442.333 541 419 c 128
 512.333 395.667 493.333 362.667 484 320 c 1
 802 320 l 1
EndSplineSet
Fore
SplineSet
475 241 m 1xdc
 485 135 555 71 668 71 c 3
 726 71 792 84 865 110 c 1
 872 27 l 1
 804 0 734 -14 662 -14 c 3
 564 -14 489 21 436 92 c 1
 399 22 327 -14 221 -14 c 3
 121 -14 39 42 39 140 c 3
 39 271 153 337 382 338 c 1xbc
 378 407 333 454 259 454 c 3
 227 454 168 441 81 415 c 1
 69 501 l 1
 139 522 204 532 265 532 c 3
 361 532 414 506 447 441 c 1
 495 502 565 532 656 532 c 3
 811 532 890 435 895 241 c 1
 475 241 l 1xdc
224 69 m 3
 320 69 382 126 382 223 c 2
 382 256 l 1
 263 255 138 243 138 149 c 3
 138 99 175 69 224 69 c 3
802 320 m 1xdc
 788 392 736 454 650 454 c 3
 556 454 501 400 484 320 c 1
 802 320 l 1xdc
EndSplineSet
Validated: 1
Layer: 2
SplineSet
475 241 m 1,0,1
 483 161 483 161 533.5 116 c 128,-1,2
 584 71 584 71 668 71 c 0,3,4
 756 71 756 71 865 110 c 1,5,-1
 872 27 l 1,6,7
 769 -14 769 -14 662 -14 c 0,8,9
 515 -14 515 -14 436 92 c 1,10,11
 380 -14 380 -14 221 -14 c 0,12,13
 143 -14 143 -14 91 27.5 c 128,-1,14
 39 69 39 69 39 140 c 0,15,16
 39 337 39 337 382 338 c 1,17,18
 379 391 379 391 346.5 422.5 c 128,-1,19
 314 454 314 454 259 454 c 0,20,21
 212 454 212 454 81 415 c 1,22,-1
 69 501 l 1,23,24
 172 532 172 532 265 532 c 0,25,26
 337 532 337 532 379.5 511 c 128,-1,27
 422 490 422 490 447 441 c 1,28,29
 519 532 519 532 656 532 c 0,30,31
 888 532 888 532 895 241 c 1,32,-1
 475 241 l 1,0,1
224 69 m 3,33,34
 297 69 297 69 339.5 110 c 128,-1,35
 382 151 382 151 382 223 c 2,36,-1
 382 256 l 1,37,38
 330 256 330 256 292.5 252 c 128,-1,39
 255 248 255 248 216.5 237.5 c 128,-1,40
 178 227 178 227 158 205 c 128,-1,41
 138 183 138 183 138 149 c 0,42,43
 138 112 138 112 162 90.5 c 128,-1,44
 186 69 186 69 224 69 c 3,33,34
802 320 m 1,45,46
 791 378 791 378 751 416 c 128,-1,47
 711 454 711 454 650 454 c 0,48,49
 582 454 582 454 539.5 418 c 128,-1,50
 497 382 497 382 484 320 c 1,51,-1
 802 320 l 1,45,46
EndSplineSet
EndChar

StartChar: ccedilla
Encoding: 231 231 169
Width: 521
VWidth: 1504
Flags: W
HStem: -239 52<170.689 294.79> -14 80<311 408.074> 451 80<222.832 408.621>
VStem: 39 96<159.364 358.135> 300 69<-181.001 -107.324>
LayerCount: 3
Back
SplineSet
291 -42 m 1
 338 -56 369 -80 369 -135 c 3
 369 -204 320 -239 248 -239 c 3
 213 -239 178 -227 154 -212 c 1
 175 -164 l 1
 195 -174 226 -187 251 -187 c 3
 283 -187 300 -172 300 -141 c 3
 300 -113 268 -94 203 -83 c 1
 268 17 l 1
 333 17 l 1
 291 -42 l 1
135 259 m 3
 135 150 199 66 305 66 c 3
 355 66 404 81 451 110 c 1
 484 32 l 1
 436 2 377 -14 308 -14 c 3
 147 -14 39 98 39 259 c 3
 39 420 147 531 308 531 c 3
 376 531 435 516 484 486 c 1
 451 408 l 1
 404 437 355 451 305 451 c 3
 199 451 135 367 135 259 c 3
EndSplineSet
Fore
SplineSet
135 259 m 3
 135 150 199 66 305 66 c 3
 355 66 404 81 451 110 c 1
 484 32 l 1
 437 2 379 -14 311 -14 c 1
 291 -42 l 1
 338 -56 369 -80 369 -135 c 3
 369 -204 320 -239 248 -239 c 3
 213 -239 178 -227 154 -212 c 1
 175 -164 l 1
 195 -174 226 -187 251 -187 c 3
 283 -187 300 -172 300 -141 c 3
 300 -113 268 -94 203 -83 c 1
 251 -9 l 1
 122 14 39 118 39 259 c 3
 39 420 147 531 308 531 c 3
 376 531 435 516 484 486 c 1
 451 408 l 1
 404 437 355 451 305 451 c 3
 199 451 135 367 135 259 c 3
EndSplineSet
Validated: 1
Layer: 2
SplineSet
135 259 m 3,0,1
 135 175 135 175 181 120.5 c 128,-1,2
 227 66 227 66 305 66 c 0,3,4
 380 66 380 66 451 110 c 1,5,-1
 484 32 l 1,6,7
 412 -14 412 -14 311 -14 c 1,8,-1
 291 -42 l 1,9,10
 369 -65 369 -65 369 -135 c 0,11,12
 369 -185 369 -185 336.5 -212 c 128,-1,13
 304 -239 304 -239 248 -239 c 0,14,15
 197 -239 197 -239 154 -212 c 1,16,-1
 175 -164 l 1,17,18
 221 -187 221 -187 251 -187 c 0,19,20
 300 -187 300 -187 300 -141 c 0,21,22
 300 -99 300 -99 203 -83 c 1,23,-1
 251 -9 l 1,24,25
 154 8 154 8 96.5 80.5 c 128,-1,26
 39 153 39 153 39 259 c 0,27,28
 39 380 39 380 113.5 455.5 c 128,-1,29
 188 531 188 531 308 531 c 0,30,31
 410 531 410 531 484 486 c 1,32,-1
 451 408 l 1,33,34
 381 451 381 451 305 451 c 0,35,36
 227 451 227 451 181 396.5 c 128,-1,37
 135 342 135 342 135 259 c 3,0,1
EndSplineSet
EndChar

StartChar: eth
Encoding: 240 240 178
Width: 568
VWidth: 1504
Flags: W
HStem: -24 84<209.359 342.601> 367 81<211.471 344.096> 699 20G<98.6 136 387.408 435.565>
VStem: 54 87<136.613 292.933> 411 102<133.026 294.72>
DStem2: 78 537 119 471 0.889258 0.457406<6.2708 135.959 273.286 389.122>
LayerCount: 3
Back
SplineSet
513 245 m 0
 513 163.667 490.167 98.5 444.5 49.5 c 128
 398.833 0.5 341 -24 271 -24 c 0
 207.667 -24 155.667 -1.16667 115 44.5 c 128
 74.3333 90.1666 54 146.667 54 214 c 0
 54 280 74.5 335.5 115.5 380.5 c 128
 156.5 425.5 207.333 448 268 448 c 256
 328 448 372.667 432 402 400 c 1
 378 450 335.333 499.333 274 548 c 0
 272.667 549.333 271.667 549.667 271 549 c 2
 119 471 l 1
 78 537 l 1
 199 599 l 1
 163 619 127.333 634 92 644 c 1
 101 719 l 1
 171 705 233.667 680.333 289 645 c 1
 426 716 l 1
 459 647 l 1
 356 594 l 1
 460.667 494 513 377.667 513 245 c 0
411 214 m 0
 411 257.334 397.667 293.667 371 323 c 128
 344.333 352.333 312 367 274 367 c 0
 238 367 206.833 351.5 180.5 320.5 c 128
 154.167 289.5 141 254 141 214 c 256
 141 174 154.167 138.333 180.5 107 c 128
 206.833 75.6667 238 60 274 60 c 0
 312 60 344.333 75.1667 371 105.5 c 128
 397.667 135.833 411 172 411 214 c 0
EndSplineSet
Fore
SplineSet
54 214 m 3
 54 340 144 448 268 448 c 259
 328 448 373 432 402 400 c 1
 378 450 334 500 273 549 c 1
 273 549 135 479 119 471 c 1
 78 537 l 1
 199 599 l 1
 163 619 127 634 92 644 c 1
 101 719 l 1
 171 705 234 680 289 645 c 1
 426 716 l 1
 459 647 l 1
 356 594 l 1
 461 494 513 378 513 245 c 3
 513 93 418 -24 271 -24 c 3
 142 -24 54 84 54 214 c 3
274 60 m 3
 352 60 411 134 411 214 c 3
 411 296 353 367 274 367 c 3
 200 367 141 290 141 214 c 259
 141 138 200 60 274 60 c 3
EndSplineSet
Validated: 1
Layer: 2
SplineSet
54 214 m 3,0,1
 54 310 54 310 115 379 c 128,-1,2
 176 448 176 448 268 448 c 0,3,4
 358 448 358 448 402 400 c 1,5,6
 367 474 367 474 273 549 c 1,7,8
 135 479 135 479 119 471 c 1,9,-1
 78 537 l 1,10,-1
 199 599 l 1,11,12
 146 629 146 629 92 644 c 1,13,-1
 101 719 l 1,14,15
 206 698 206 698 289 645 c 1,16,-1
 426 716 l 1,17,-1
 459 647 l 1,18,-1
 356 594 l 1,19,20
 513 444 513 444 513 245 c 0,21,22
 513 129 513 129 446 52.5 c 128,-1,23
 379 -24 379 -24 271 -24 c 0,24,25
 176 -24 176 -24 115 45 c 128,-1,26
 54 114 54 114 54 214 c 3,0,1
274 60 m 3,27,28
 331 60 331 60 371 106.5 c 128,-1,29
 411 153 411 153 411 214 c 0,30,31
 411 277 411 277 371.5 322 c 128,-1,32
 332 367 332 367 274 367 c 0,33,34
 220 367 220 367 180.5 320 c 128,-1,35
 141 273 141 273 141 214 c 128,-1,36
 141 155 141 155 180.5 107.5 c 128,-1,37
 220 60 220 60 274 60 c 3,27,28
EndSplineSet
EndChar

